<svg width="7" height="7" viewBox="0 0 7 7" fill="none" xmlns="http://www.w3.org/2000/svg">
<path d="M5.43469 6.9999C5.37714 7.00081 5.32035 6.98661 5.26999 6.95873L0.246761 4.3511C0.193418 4.32446 0.147761 4.28463 0.114134 4.23539C0.0805059 4.18615 0.0600229 4.12913 0.0546157 4.06975C-0.0409063 3.52374 -0.0108392 2.96315 0.142542 2.43049C0.295923 1.89784 0.568585 1.4071 0.939854 0.995494C1.35399 0.639383 1.83484 0.369225 2.3544 0.200755C2.87396 0.0322853 3.42184 -0.0311247 3.96615 0.0142065C4.0334 0.0205312 4.09748 0.0458136 4.15093 0.0871151C4.20438 0.128417 4.24501 0.184038 4.2681 0.247518L6.38856 5.94313C6.41405 6.00873 6.41918 6.08049 6.40326 6.14904C6.38735 6.21759 6.35113 6.27975 6.29935 6.32741L5.67487 6.91069C5.60828 6.96858 5.52293 7.00028 5.43469 6.9999ZM0.747709 3.81585L5.37294 6.21762L5.64743 5.97058L3.68479 0.714142C2.86407 0.690766 2.06326 0.96909 1.43394 1.49643C1.15833 1.81023 0.954219 2.18019 0.835729 2.58068C0.717239 2.98116 0.687205 3.40261 0.747709 3.81585Z" fill="#231F20"/>
</svg>
