<svg width="16" height="9" viewBox="0 0 16 9" fill="none" xmlns="http://www.w3.org/2000/svg">
<path d="M0.217409 8.35149C0.128699 8.26274 0.0639234 8.15296 0.0291269 8.0324C-0.00566952 7.91184 -0.00935355 7.78443 0.018423 7.66206C0.326724 6.45063 0.834382 5.29893 1.52062 4.2541C3.03402 2.01202 5.10794 1.10678 7.51817 1.65329C12.6469 2.81917 13.4849 2.42961 14.5947 0.39492C14.688 0.220246 14.8469 0.0897825 15.0363 0.0322306C15.2258 -0.0253214 15.4304 -0.00524777 15.6051 0.0880358C15.7797 0.181319 15.9102 0.340172 15.9678 0.529647C16.0253 0.719122 16.0052 0.923699 15.912 1.09837C14.2528 4.14199 12.3779 4.26251 7.20989 3.08822C5.41903 2.68184 3.92524 3.34886 2.76497 5.07246C2.18064 5.96767 1.74615 6.95214 1.47858 7.98716C1.4577 8.08208 1.41826 8.17194 1.36252 8.25156C1.30677 8.33118 1.23584 8.39899 1.15378 8.45108C1.07173 8.50318 0.980189 8.53853 0.88442 8.55511C0.788652 8.57169 0.69055 8.56916 0.595762 8.54767C0.453813 8.51886 0.322755 8.4509 0.217409 8.35149Z" fill="#0099F5"/>
</svg>
