<svg width="205" height="46" viewBox="0 0 205 46" fill="none" xmlns="http://www.w3.org/2000/svg">
<path d="M21.1845 6.65154V0H0V45.7H21.1845V39.0485C16.8449 39.0485 12.6829 37.3418 9.61437 34.304C6.54577 31.2662 4.82185 27.1461 4.82185 22.85C4.82185 18.5539 6.54577 14.4337 9.61437 11.396C12.6829 8.35818 16.8449 6.65154 21.1845 6.65154Z" fill="white"/>
<path d="M21.1845 6.65155V39.0485C25.5242 39.0485 29.6862 37.3418 32.7548 34.304C35.8234 31.2662 37.5472 27.1461 37.5472 22.85C37.5472 18.5539 35.8234 14.4337 32.7548 11.396C29.6862 8.35818 25.5242 6.65155 21.1845 6.65155Z" fill="white"/>
<path d="M49.4359 10.7208H54.1787V33.336H49.4359V10.7208Z" fill="white"/>
<path d="M56.8347 25.589C56.8347 23.9619 57.3227 22.3715 58.2368 21.0193C59.1509 19.6671 60.45 18.6139 61.9694 17.9934C63.4888 17.373 65.16 17.2131 66.7713 17.5339C68.3826 17.8547 69.8614 18.642 71.0203 19.7957C72.1791 20.9497 72.9659 22.418 73.2808 24.015C73.5956 25.612 73.4245 27.2655 72.789 28.7661C72.1535 30.2665 71.0824 31.5466 69.7112 32.4437C68.3401 33.3409 66.7307 33.8148 65.0872 33.8056C63.9971 33.8141 62.9162 33.607 61.9081 33.1963C60.8999 32.7858 59.9845 32.1801 59.2159 31.415C58.4472 30.6496 57.8408 29.74 57.4318 28.7396C57.023 27.7392 56.82 26.6681 56.8347 25.589ZM68.7233 25.589C68.7047 24.8875 68.4775 24.207 68.0702 23.6328C67.663 23.0584 67.0938 22.6157 66.4336 22.3599C65.7736 22.1042 65.0521 22.0468 64.3593 22.195C63.6664 22.343 63.0331 22.69 62.5384 23.1927C62.0437 23.6953 61.7097 24.331 61.5781 25.0206C61.4466 25.7101 61.5233 26.4227 61.7987 27.0692C62.0741 27.7158 62.5358 28.2678 63.1265 28.6557C63.717 29.0439 64.4099 29.2509 65.1188 29.2513C65.6014 29.2606 66.0808 29.1713 66.5269 28.9888C66.9731 28.8065 67.3764 28.5349 67.7117 28.1912C68.047 27.8475 68.3071 27.4389 68.4757 26.9913C68.6444 26.5435 68.7179 26.0662 68.6917 25.589H68.7233Z" fill="white"/>
<path d="M92.1054 17.8419V32.5692C92.1054 37.7652 87.9949 39.972 83.8371 39.972C82.3704 40.0911 80.8994 39.8027 79.5896 39.1391C78.2796 38.4755 77.1827 37.463 76.4225 36.2158L80.4222 33.9308C80.7463 34.5778 81.2619 35.1115 81.9003 35.461C82.5386 35.8105 83.2694 35.9592 83.9952 35.8872C84.4576 35.9435 84.9268 35.8981 85.3693 35.7541C85.812 35.61 86.2169 35.371 86.5552 35.0539C86.8937 34.7368 87.157 34.3498 87.3267 33.9202C87.4963 33.4907 87.5679 33.0293 87.5365 32.5692V31.145C86.9846 31.8075 86.2842 32.3334 85.4912 32.6811C84.698 33.0289 83.8341 33.1888 82.9676 33.1483C80.8711 33.1483 78.8606 32.3238 77.3781 30.8562C75.8957 29.3888 75.0629 27.3984 75.0629 25.3229C75.0629 23.2475 75.8957 21.2572 77.3781 19.7896C78.8606 18.3221 80.8711 17.4976 82.9676 17.4976C83.8341 17.4571 84.698 17.617 85.4912 17.9648C86.2842 18.3125 86.9846 18.8384 87.5365 19.5009V17.9358L92.1054 17.8419ZM87.5365 25.276C87.5679 24.5273 87.3725 23.7862 86.9752 23.1483C86.5779 22.5104 85.9971 22.0047 85.307 21.6962C84.6171 21.3877 83.8499 21.2907 83.1037 21.4175C82.3576 21.5442 81.6668 21.889 81.1202 22.4075C80.5737 22.926 80.1963 23.5946 80.0367 24.3272C79.877 25.0599 79.9423 25.8228 80.2242 26.5183C80.5062 27.2139 80.9919 27.81 81.6187 28.2301C82.2457 28.6501 82.9853 28.875 83.7422 28.8757C84.2363 28.9109 84.7322 28.8431 85.1979 28.6769C85.6638 28.5105 86.0894 28.2493 86.4469 27.91C86.8045 27.5709 87.0862 27.1611 87.2739 26.7074C87.4615 26.2537 87.551 25.766 87.5365 25.276Z" fill="white"/>
<path d="M94.7771 25.589C94.7771 23.9632 95.2644 22.374 96.1771 21.0224C97.0897 19.6708 98.3869 18.6177 99.9044 17.9963C101.422 17.3748 103.092 17.213 104.702 17.5313C106.313 17.8497 107.791 18.6338 108.952 19.7844C110.112 20.9352 110.901 22.4007 111.219 23.9956C111.538 25.5905 111.371 27.2431 110.741 28.7441C110.11 30.2453 109.044 31.5275 107.677 32.4285C106.31 33.3295 104.704 33.8087 103.061 33.8056C101.969 33.8161 100.886 33.6106 99.8749 33.2011C98.864 32.7917 97.9458 32.1867 97.1743 31.4213C96.4026 30.656 95.7932 29.7459 95.3815 28.7444C94.97 27.743 94.7645 26.6701 94.7771 25.589ZM106.666 25.589C106.647 24.8869 106.419 24.2057 106.012 23.6311C105.604 23.0565 105.033 22.6138 104.372 22.3585C103.711 22.1032 102.989 22.0467 102.296 22.1962C101.603 22.3455 100.969 22.6942 100.475 23.1983C99.9813 23.7024 99.6485 24.3397 99.5188 25.0302C99.389 25.7207 99.4679 26.4338 99.7457 27.08C100.023 27.7264 100.488 28.2771 101.08 28.6634C101.673 29.0495 102.368 29.254 103.077 29.2512C103.56 29.2606 104.039 29.1712 104.485 28.9888C104.931 28.8064 105.335 28.5349 105.67 28.1912C106.005 27.8475 106.265 27.4389 106.434 26.9913C106.603 26.5435 106.676 26.0661 106.65 25.589H106.666Z" fill="white"/>
<path d="M113.543 13.6944C113.543 13.1434 113.708 12.6048 114.017 12.1467C114.326 11.6885 114.766 11.3314 115.28 11.1206C115.794 10.9097 116.36 10.8546 116.906 10.9621C117.452 11.0695 117.953 11.3349 118.347 11.7245C118.74 12.1141 119.008 12.6105 119.117 13.1508C119.226 13.6912 119.17 14.2514 118.957 14.7605C118.744 15.2694 118.383 15.7045 117.92 16.0107C117.458 16.3168 116.914 16.4802 116.357 16.4802C115.613 16.472 114.902 16.1759 114.376 15.6552C113.85 15.1345 113.551 14.4307 113.543 13.6944ZM114.001 17.8418H118.744V33.336H114.001V17.8418Z" fill="white"/>
<path d="M139.043 25.5888C139.096 26.6193 138.943 27.65 138.592 28.6216C138.242 29.5932 137.7 30.4866 137 31.2502C136.299 32.0139 135.452 32.6327 134.509 33.0713C133.565 33.5098 132.543 33.7593 131.502 33.8054C130.619 33.8637 129.733 33.7236 128.912 33.3957C128.091 33.0677 127.355 32.5604 126.759 31.9117V39.5649H122.017V17.8417H126.759V19.2973C127.356 18.6504 128.092 18.1455 128.913 17.8203C129.735 17.4949 130.62 17.3578 131.502 17.4192C132.539 17.4653 133.557 17.7134 134.497 18.149C135.437 18.5845 136.282 19.1993 136.982 19.9579C137.682 20.7165 138.225 21.6042 138.578 22.5704C138.932 23.5366 139.09 24.5621 139.043 25.5888ZM134.301 25.5888C134.282 24.8619 134.047 24.1566 133.625 23.5614C133.203 22.9662 132.613 22.5074 131.929 22.2427C131.245 21.9779 130.497 21.9191 129.779 22.0732C129.062 22.2274 128.406 22.588 127.894 23.1096C127.382 23.6312 127.038 24.2908 126.903 25.0057C126.768 25.7205 126.85 26.4587 127.137 27.1279C127.425 27.797 127.905 28.3673 128.518 28.7673C129.132 29.1674 129.851 29.3791 130.585 29.3763C131.088 29.3974 131.59 29.3131 132.058 29.1287C132.526 28.9443 132.949 28.6642 133.3 28.3066C133.651 27.949 133.921 27.5219 134.094 27.0536C134.266 26.5852 134.337 26.0861 134.301 25.5888Z" fill="white"/>
<path d="M153.477 28.6878C153.477 32.2562 150.315 33.7743 146.964 33.7743C145.597 33.8961 144.224 33.6092 143.024 32.9508C141.823 32.2923 140.85 31.2926 140.229 30.0807L144.308 27.7957C144.469 28.3541 144.82 28.8407 145.3 29.1741C145.781 29.5074 146.363 29.6672 146.948 29.6269C148.07 29.6269 148.64 29.2825 148.64 28.6565C148.64 26.9506 140.94 27.8583 140.94 22.4901C140.94 19.1096 143.818 17.4193 147.074 17.4193C148.312 17.3644 149.542 17.6425 150.633 18.2239C151.724 18.8053 152.636 19.6685 153.272 20.7216L149.193 22.8501C149.013 22.4463 148.718 22.1029 148.345 21.8613C147.972 21.6197 147.536 21.4902 147.09 21.4885C146.268 21.4885 145.778 21.8015 145.778 22.3493C145.778 24.1335 153.477 22.9597 153.477 28.6878Z" fill="white"/>
<path d="M170.662 17.8417V33.3359H165.919V31.8804C165.38 32.5247 164.696 33.0345 163.923 33.3689C163.148 33.7034 162.305 33.8528 161.461 33.8054C158.299 33.8054 155.596 31.5674 155.596 27.3886V17.8417H160.339V26.6844C160.301 27.054 160.345 27.4273 160.468 27.7785C160.592 28.1295 160.789 28.4501 161.048 28.718C161.309 28.9858 161.625 29.1946 161.975 29.3299C162.324 29.4652 162.699 29.5237 163.074 29.5015C164.781 29.5015 165.982 28.4998 165.982 26.3713V17.8417H170.662Z" fill="white"/>
<path d="M197.538 23.8203V33.3359H192.795V24.2272C192.795 22.6621 192.052 21.6918 190.55 21.6918C189.048 21.6918 188.1 22.7717 188.1 24.6028V33.3359H183.357V24.2272C183.357 22.6621 182.614 21.6918 181.112 21.6918C179.61 21.6918 178.662 22.7717 178.662 24.6028V33.3359H173.919V17.8417H178.662V19.2659C179.153 18.6367 179.794 18.1384 180.529 17.816C181.262 17.4936 182.067 17.3571 182.867 17.4191C183.668 17.3776 184.468 17.5435 185.186 17.9002C185.904 18.2569 186.516 18.7923 186.962 19.4537C187.483 18.7626 188.173 18.2136 188.966 17.8578C189.758 17.5019 190.631 17.351 191.499 17.4191C195.198 17.4191 197.538 19.9545 197.538 23.8203Z" fill="white"/>
<path d="M201.522 17.748C203.443 17.748 205 16.2064 205 14.3049C205 12.4033 203.443 10.8617 201.522 10.8617C199.601 10.8617 198.044 12.4033 198.044 14.3049C198.044 16.2064 199.601 17.748 201.522 17.748Z" fill="white"/>
</svg>
