<svg width="23" height="28" viewBox="0 0 23 28" fill="none" xmlns="http://www.w3.org/2000/svg">
<path d="M10.8345 0.292815C9.62417 3.53809 5.83092 12.835 0.130419 18.6765C0.0620082 18.7451 0.0177507 18.8341 0.00431666 18.93C-0.00911736 19.026 0.00900032 19.1237 0.0559381 19.2085L4.7669 28H17.74L22.4483 19.2085C22.4957 19.1238 22.514 19.026 22.5006 18.9299C22.4871 18.8339 22.4426 18.7449 22.3738 18.6765C16.676 12.8244 12.8827 3.53809 11.6698 0.292815C11.6386 0.20702 11.5819 0.132888 11.5072 0.0804966C11.4324 0.0281056 11.3434 0 11.2521 0C11.1609 0 11.0718 0.0281056 10.9971 0.0804966C10.9224 0.132888 10.8656 0.20702 10.8345 0.292815Z" fill="#FFBEB3"/>
</svg>
