<svg width="86" height="46" viewBox="0 0 86 46" fill="none" xmlns="http://www.w3.org/2000/svg">
<path d="M82.4434 45.3578C82.3914 45.3561 82.3402 45.3445 82.2926 45.3235L0.188496 4.13528C0.119232 4.10143 0.0637114 4.04479 0.0312466 3.97487C-0.00121821 3.90495 -0.00864955 3.82599 0.0101921 3.75124L0.311941 2.44824C0.308962 2.4186 0.308962 2.38874 0.311941 2.3591C0.997742 1.11783 1.78642 0 3.8301 0H70.9494C71.8345 0.00356125 72.6948 0.292383 73.4027 0.823598C74.1105 1.35481 74.6283 2.10011 74.879 2.94887L85.797 40.4818C86.1037 41.3676 86.0616 42.3369 85.6795 43.1929C85.2974 44.0488 84.6038 44.7272 83.7396 45.0903L82.512 45.3852L82.4434 45.3578ZM0.757712 3.65523L82.512 44.6514L83.575 44.4045C85.2278 43.7599 85.5707 41.9974 85.1798 40.6396L74.2687 3.15461C74.0595 2.44829 73.6284 1.82812 73.0392 1.38594C72.45 0.94375 71.7341 0.703059 70.9974 0.699503H3.85753C2.34191 0.699503 1.6904 1.38529 0.963455 2.66085L0.757712 3.65523Z" fill="#231F20"/>
</svg>
