<svg width="32" height="48" viewBox="0 0 32 48" fill="none" xmlns="http://www.w3.org/2000/svg">
<path d="M20.2853 48C15.5447 48 12.2442 44.3137 12.2029 44.2586C12.1518 44.2016 12.1225 44.1284 12.1202 44.0519L11.4312 32.5521C9.97731 32.6968 4.79573 32.8346 2.61147 27.9081C0.151595 22.3959 0.0068904 8.84278 0 8.27089C0.000601811 8.18768 0.0307171 8.10739 0.0849735 8.0443C0.13923 7.98122 0.214112 7.93943 0.296293 7.92638C7.05308 7.00515 13.4419 4.29843 18.8039 0.0852903C18.8512 0.0438584 18.909 0.0161735 18.971 0.00524189C19.0329 -0.00568971 19.0967 0.00054907 19.1553 0.0232781C19.2131 0.0456885 19.264 0.0829885 19.3027 0.131393C19.3414 0.179797 19.3666 0.237581 19.3758 0.298886C20.1889 6.61034 22.2422 9.97967 23.8201 11.7022C24.6727 12.7312 25.7937 13.5039 27.0586 13.9347C27.1219 13.9513 27.1793 13.9852 27.2244 14.0327C27.2694 14.0802 27.3003 14.1393 27.3136 14.2034L31.9026 36.5002C31.9026 36.6173 32.1093 42.853 25.0122 46.7253C23.57 47.5439 21.9435 47.9825 20.2853 48ZM12.7955 43.8659C13.4845 44.6169 18.418 49.5365 24.709 46.0983C31.4065 42.4327 31.2411 36.6104 31.2411 36.5553L26.7003 14.5066C25.5565 14.1276 20.3749 11.84 18.797 0.953459C13.5002 4.95434 7.28312 7.56052 0.716608 8.53272C0.716608 10.5998 1.06113 22.6301 3.25917 27.598C5.58123 32.8208 11.4656 31.8355 11.7137 31.7942C11.7614 31.7849 11.8106 31.7856 11.858 31.7962C11.9054 31.8069 11.9502 31.8273 11.9893 31.8562C12.0269 31.8879 12.0578 31.9268 12.0803 31.9705C12.1028 32.0143 12.1163 32.0621 12.1202 32.1111L12.7955 43.8659Z" fill="#231F20"/>
</svg>
