<svg width="63" height="25" viewBox="0 0 63 25" fill="none" xmlns="http://www.w3.org/2000/svg">
<path d="M59.3864 0L55.2322 17.6637C55.0123 18.6091 54.4785 19.4521 53.7177 20.0549C52.957 20.6578 52.0143 20.9849 51.0437 20.9829H7.81073C7.16179 20.9826 6.52132 20.8356 5.93721 20.5529C5.35311 20.2702 4.84047 19.859 4.43766 19.3503C4.03485 18.8415 3.75228 18.2482 3.61107 17.6149C3.46987 16.9815 3.47369 16.3244 3.62226 15.6927L7.28375 0H3.70439L0.200304 14.8851C-0.0641933 16.0313 -0.0667754 17.2224 0.192749 18.3698C0.452273 19.5171 0.967222 20.5911 1.69927 21.5119C2.43131 22.4327 3.36161 23.1765 4.42091 23.6881C5.4802 24.1996 6.64123 24.4656 7.81757 24.4664H51.0779C52.8309 24.4652 54.5323 23.8737 55.908 22.7874C57.2837 21.701 58.2535 20.183 58.661 18.4781L63 0H59.3864Z" fill="white"/>
</svg>
