<svg width="3" height="3" viewBox="0 0 3 3" fill="none" xmlns="http://www.w3.org/2000/svg">
<path d="M1.70184 2.99997C1.63948 3.00042 1.57777 2.98716 1.5211 2.96112C1.46442 2.93508 1.41417 2.89689 1.37389 2.84927L0.124101 1.51975C0.0434925 1.4296 -0.000734443 1.31272 9.22835e-06 1.1918C0.00686152 1.0699 0.0609047 0.955453 0.150691 0.872713L0.957294 0.119322C1.00527 0.0758622 1.06186 0.0429844 1.12338 0.0228509C1.1849 0.00271746 1.24998 -0.00422019 1.31437 0.00246928C1.37875 0.00915876 1.44102 0.0293295 1.49709 0.0616802C1.55316 0.094031 1.60179 0.137824 1.63981 0.190219L2.65913 1.60839C2.72388 1.68874 2.75919 1.78883 2.75919 1.89203C2.75919 1.99522 2.72388 2.0953 2.65913 2.17565L2.07412 2.84042C2.03334 2.89034 1.98195 2.93055 1.92369 2.95815C1.86544 2.98574 1.80177 3.00004 1.73731 2.99997H1.70184ZM1.10798 1.22726L1.69299 1.85656L1.18775 1.15635L1.10798 1.22726Z" fill="#231F20"/>
</svg>
