<svg width="4" height="2" viewBox="0 0 4 2" fill="none" xmlns="http://www.w3.org/2000/svg">
<path d="M0.418977 1.79956C0.344533 1.80114 0.271182 1.7814 0.207597 1.74265C0.112798 1.68661 0.0436109 1.59578 0.0147626 1.4895C-0.0140857 1.38322 -0.000319899 1.26987 0.053131 1.17359C0.435226 0.515099 1.67908 -0.517345 3.71963 0.303733C3.82743 0.344698 3.91454 0.42681 3.96181 0.532006C4.00907 0.637201 4.01261 0.756863 3.97164 0.864666C3.93068 0.97247 3.84857 1.05959 3.74337 1.10685C3.63817 1.15411 3.5185 1.15765 3.41069 1.11668C1.58965 0.385028 0.857977 1.49877 0.78481 1.62884C0.74241 1.68501 0.686897 1.72994 0.623124 1.7597C0.559351 1.78946 0.489261 1.80314 0.418977 1.79956Z" fill="#231F20"/>
</svg>
