<svg width="19" height="18" viewBox="0 0 19 18" fill="none" xmlns="http://www.w3.org/2000/svg">
<path d="M0.35548 18C0.302015 17.9991 0.249621 17.9848 0.203131 17.9584C0.160665 17.9392 0.122534 17.9115 0.0910193 17.8771C0.0595048 17.8427 0.0352583 17.8024 0.019737 17.7584C0.00421576 17.7144 -0.00225911 17.6677 0.000696037 17.6212C0.00365118 17.5747 0.0159701 17.5292 0.0369289 17.4875C5.06442 7.10041 17.9725 0.113337 18.1041 0.044089C18.1448 0.0213107 18.1897 0.00699106 18.236 0.0019927C18.2824 -0.00300567 18.3293 0.00142357 18.3739 0.0150051C18.4186 0.0285867 18.46 0.0510413 18.4957 0.0810289C18.5314 0.111016 18.5608 0.147915 18.5819 0.189508C18.6048 0.230739 18.6192 0.276148 18.6243 0.323046C18.6294 0.369943 18.625 0.417381 18.6115 0.462563C18.5979 0.507746 18.5754 0.549754 18.5454 0.58611C18.5153 0.622466 18.4783 0.652437 18.4364 0.674244C18.3118 0.743492 5.60457 7.59899 0.680952 17.7992C0.650401 17.8593 0.603858 17.9099 0.546439 17.9453C0.489021 17.9807 0.422948 17.9997 0.35548 18Z" fill="#231F20"/>
</svg>
