<svg width="14" height="18" viewBox="0 0 14 18" fill="none" xmlns="http://www.w3.org/2000/svg">
<path d="M13.5148 17.9922C13.4652 18.0025 13.414 18.0025 13.3645 17.9922C1.45773 12.5243 0.0155338 0.508463 0.00186363 0.392269C-0.00772375 0.298987 0.019941 0.2057 0.0788335 0.132726C0.137726 0.0597523 0.223068 0.0130068 0.316272 0.00267825C0.362101 -0.00303504 0.408613 0.000412871 0.453097 0.0128259C0.497581 0.025239 0.539155 0.0463677 0.575404 0.0749844C0.611652 0.103601 0.641844 0.139135 0.664242 0.179522C0.686641 0.21991 0.700798 0.264346 0.705877 0.310248C0.705877 0.426442 2.12758 12.0527 13.6925 17.2882C13.7771 17.327 13.8431 17.3974 13.8763 17.4843C13.9095 17.5712 13.9074 17.6677 13.8703 17.753C13.8442 17.8255 13.7956 17.8877 13.7317 17.9308C13.6678 17.9738 13.5918 17.9953 13.5148 17.9922Z" fill="#231F20"/>
</svg>
