<svg width="15" height="12" viewBox="0 0 15 12" fill="none" xmlns="http://www.w3.org/2000/svg">
<path d="M3.7312 11.9931C3.66634 11.9938 3.60253 11.9766 3.54691 11.9432C3.49129 11.9098 3.44603 11.8617 3.4162 11.8041L0.0282968 5.5044C-0.00943228 5.41246 -0.00943228 5.30936 0.0282968 5.21742C0.0608787 5.12338 0.128606 5.04561 0.217284 5.00043L10.717 0.0376852C10.7596 0.0163717 10.8061 0.00381053 10.8537 0.000740986C10.9012 -0.00232856 10.9489 0.0041595 10.9939 0.0198165C11.0389 0.0354735 11.0804 0.0599836 11.1157 0.0919052C11.1511 0.123827 11.1798 0.162514 11.2 0.20568C11.2411 0.292103 11.2465 0.391241 11.2151 0.481635C11.1836 0.572029 11.1179 0.646401 11.032 0.688651L0.854269 5.4904L3.92019 11.1741L14.2309 8.02427C14.2769 8.01048 14.3251 8.00588 14.3728 8.01073C14.4206 8.01558 14.4669 8.02979 14.5091 8.05254C14.5514 8.07529 14.5887 8.10613 14.6191 8.14332C14.6494 8.1805 14.6721 8.2233 14.6859 8.26926C14.6997 8.31522 14.7043 8.36344 14.6994 8.41118C14.6946 8.45892 14.6804 8.50524 14.6576 8.54749C14.6349 8.58973 14.604 8.62709 14.5668 8.65742C14.5297 8.68774 14.4868 8.71044 14.4409 8.72423L3.83619 12.0001L3.7312 11.9931Z" fill="#231F20"/>
</svg>
