<svg width="186" height="42" viewBox="0 0 186 42" fill="none" xmlns="http://www.w3.org/2000/svg">
<path d="M185.656 41.7944H0.337118C0.278361 41.7941 0.22064 41.7789 0.169333 41.7503C0.118026 41.7216 0.0748035 41.6805 0.0436974 41.6306C0.0150276 41.5784 0 41.5197 0 41.4601C0 41.4004 0.0150276 41.3418 0.0436974 41.2895L22.562 0.177446C22.5909 0.123112 22.6342 0.0777976 22.6872 0.0464953C22.7402 0.0151929 22.8007 -0.000880117 22.8623 3.71779e-05H163.138C163.199 -0.000880117 163.26 0.0151929 163.313 0.0464953C163.366 0.0777976 163.409 0.123112 163.438 0.177446L185.956 41.2895C185.985 41.3418 186 41.4004 186 41.4601C186 41.5197 185.985 41.5784 185.956 41.6306C185.925 41.6815 185.88 41.7232 185.828 41.7519C185.775 41.7806 185.716 41.7953 185.656 41.7944ZM0.917134 41.112H185.076L162.94 0.682394H23.0533L0.917134 41.112Z" fill="#D1D3D4"/>
</svg>
