<svg width="5" height="9" viewBox="0 0 5 9" fill="none" xmlns="http://www.w3.org/2000/svg">
<path d="M1.73067 8.99767C1.27854 9.0184 0.831269 8.89711 0.451557 8.6508C-0.907058 7.71136 1.17422 1.97352 1.79572 0.231929C1.82975 0.143191 1.89738 0.0714383 1.98395 0.0322121C2.07052 -0.0070141 2.16906 -0.0105551 2.25822 0.0223597C2.30302 0.0391782 2.34404 0.0647266 2.37888 0.0975236C2.41373 0.130321 2.4417 0.169716 2.4612 0.213415C2.4807 0.257114 2.49132 0.30425 2.49245 0.352087C2.49358 0.399925 2.4852 0.447511 2.46779 0.492083C1.21035 3.80905 0.299791 7.64632 0.863471 8.051C1.72345 8.64357 3.64574 7.87756 4.3106 7.53069C4.39613 7.48695 4.49537 7.47834 4.58716 7.50669C4.67894 7.53503 4.75603 7.5981 4.80201 7.68245C4.84486 7.76778 4.85221 7.86661 4.82242 7.95734C4.79263 8.04806 4.72813 8.12331 4.64303 8.16663C3.74284 8.64871 2.74971 8.9321 1.73067 8.99767Z" fill="#231F20"/>
</svg>
