<svg width="9" height="12" viewBox="0 0 9 12" fill="none" xmlns="http://www.w3.org/2000/svg">
<path d="M1.8662 11.9999C1.53238 11.9987 1.1991 11.9728 0.869056 11.9227C0.776247 11.9072 0.693275 11.8557 0.638084 11.7795C0.582894 11.7033 0.559921 11.6084 0.574127 11.5154C0.580927 11.47 0.596756 11.4263 0.620694 11.3871C0.644632 11.3479 0.676188 11.3138 0.713496 11.287C0.750805 11.2602 0.793122 11.2411 0.837929 11.2309C0.882737 11.2207 0.92913 11.2195 0.974384 11.2275C2.53005 11.4565 4.11308 11.0601 5.37728 10.1251C6.23765 9.44057 6.90731 8.5461 7.32178 7.52779C7.73625 6.50948 7.88156 5.40162 7.74374 4.31086C7.71566 3.50523 7.50177 2.71698 7.11877 2.00765C6.93766 1.67894 6.68873 1.3925 6.38848 1.16733C6.08824 0.942151 5.74355 0.783386 5.37728 0.70156C4.50653 0.547076 3.63578 0.947328 2.66673 1.44589C2.00081 1.7698 1.47989 2.33077 1.20612 3.01882C1.05865 3.28565 0.897142 3.5876 0.679455 3.91763C0.664846 3.94614 0.645893 3.97219 0.623276 3.99487C0.566773 4.06472 0.485196 4.1097 0.395969 4.12019C0.306742 4.13069 0.216947 4.10587 0.145775 4.05105C0.0715448 3.99869 0.0210234 3.91911 0.00523754 3.82966C-0.0105483 3.74021 0.00967503 3.64815 0.0615018 3.57355C0.0615018 3.57355 0.0615069 3.48227 0.110662 3.43311C0.151845 3.306 0.210959 3.1854 0.286216 3.07499C0.322567 3.03243 0.368218 2.99879 0.419639 2.97668L0.553061 2.72389C0.899984 1.90931 1.52797 1.24645 2.32264 0.856042C3.15125 0.427701 4.29587 -0.162146 5.46857 0.0414915C5.94534 0.136101 6.3958 0.333337 6.78869 0.619507C7.18157 0.905676 7.50746 1.27392 7.74374 1.69868C8.1743 2.50181 8.41455 3.39313 8.44596 4.30384C8.59433 5.51272 8.42793 6.73943 7.96288 7.86511C7.49784 8.99078 6.74992 9.97726 5.79158 10.729C4.65142 11.559 3.27648 12.0041 1.8662 11.9999Z" fill="#231F20"/>
</svg>
