<svg width="13" height="12" viewBox="0 0 13 12" fill="none" xmlns="http://www.w3.org/2000/svg">
<path d="M10.9753 11.5811C10.7776 11.5803 10.58 11.569 10.3835 11.5471C5.27466 11.0641 2.09101 9.56756 0.642042 6.9554C0.200695 6.20828 -0.0212559 5.35195 0.00160349 4.48452C0.0244629 3.61709 0.29121 2.77363 0.771294 2.05079C1.60567 1.04057 2.78235 0.372353 4.0774 0.173302L4.49916 0.0984742C6.03138 -0.130148 7.59667 0.0409026 9.04334 0.595054C9.72361 0.846747 10.8324 1.43857 10.9209 2.54738C10.9551 2.81863 10.888 3.09297 10.7323 3.31772C10.5766 3.54246 10.3433 3.70176 10.0773 3.76502C9.8838 3.77786 9.68962 3.75244 9.50592 3.6902L9.01612 3.54054C7.34267 3.03035 5.76446 2.55418 4.13862 3.32966C3.71726 3.50799 3.35932 3.80902 3.11141 4.19358C3.02285 4.33378 2.96546 4.49137 2.94316 4.65569C2.92086 4.82001 2.93416 4.9872 2.98216 5.14593C3.35545 5.94972 4.00824 6.5904 4.81889 6.9486C6.50809 7.68372 8.29974 8.15629 10.1318 8.34991L10.9005 8.47235C11.323 8.51876 11.7346 8.63605 12.1181 8.81929C12.3914 8.92201 12.6245 9.10991 12.7827 9.35524C12.941 9.60057 13.0162 9.89031 12.9971 10.1816C12.978 10.473 12.8658 10.7505 12.6769 10.9731C12.4879 11.1957 12.2324 11.3516 11.9481 11.4178C11.6365 11.5311 11.3068 11.5864 10.9753 11.5811ZM4.6012 0.771926L4.21344 0.839945C3.08388 1.00805 2.05395 1.58103 1.31551 2.45214C0.914138 3.07186 0.69439 3.7916 0.681164 4.52982C0.667939 5.26803 0.861764 5.99519 1.24068 6.62888C2.5672 9.02336 5.58078 10.4111 10.4447 10.8668C10.8627 10.9357 11.2909 10.9078 11.6964 10.7852C11.8542 10.7319 11.9927 10.633 12.0944 10.501C12.1961 10.3691 12.2564 10.2099 12.2678 10.0437C12.2458 9.90838 12.1909 9.78052 12.1078 9.67139C12.0248 9.56226 11.9162 9.47521 11.7916 9.4179C11.4753 9.27343 11.1375 9.18152 10.7916 9.14581L10.0229 9.02336C8.12135 8.82103 6.26259 8.32539 4.51276 7.55402C3.53315 7.11732 2.75366 6.32813 2.32911 5.34321C2.25453 5.09396 2.23355 4.83175 2.26755 4.57382C2.30155 4.31588 2.38976 4.06806 2.52638 3.84665C2.84148 3.34503 3.30177 2.95118 3.84609 2.71744C5.71002 1.82631 7.49233 2.36371 9.21341 2.8875L9.7032 3.03716C9.79464 3.07068 9.89155 3.08682 9.98892 3.08477C10.1522 3.08477 10.2542 2.80588 10.2406 2.6018C10.1862 1.83992 9.21342 1.39096 8.79845 1.2413C7.46191 0.730716 6.01619 0.573721 4.6012 0.785523V0.771926Z" fill="#231F20"/>
</svg>
