<svg width="10" height="12" viewBox="0 0 10 12" fill="none" xmlns="http://www.w3.org/2000/svg">
<path d="M0.737809 11.9639C0.646345 11.964 0.558397 11.9287 0.492389 11.8654C0.426381 11.802 0.387439 11.7156 0.383706 11.6243L0.00068865 5.12033C-0.00224534 5.07287 0.00421452 5.02529 0.0197105 4.98032C0.0352064 4.93536 0.0594228 4.89389 0.0909789 4.85831C0.122535 4.82272 0.160809 4.79372 0.203599 4.77296C0.24639 4.7522 0.292855 4.74009 0.340336 4.73733C5.52192 4.4049 8.89681 0.184583 8.93294 0.141224C8.97218 0.0901411 9.02436 0.0504761 9.08408 0.026335C9.1438 0.00219382 9.20888 -0.00554204 9.2726 0.00392283C9.3356 0.0147213 9.39471 0.0417151 9.44413 0.0822578C9.49354 0.1228 9.53155 0.175498 9.55444 0.235173C9.5978 0.350798 10.6023 3.16916 7.98624 7.52679C7.24159 8.80847 6.19274 9.88704 4.93234 10.6672C3.67194 11.4474 2.23878 11.9051 0.759489 12L0.737809 11.9639ZM0.737809 5.38772L1.07747 11.2196C2.36825 11.0605 3.60543 10.6079 4.69406 9.89632C5.78269 9.18479 6.69382 8.23329 7.35751 7.11487C9.08471 4.22424 9.12807 2.11408 8.99799 1.10236C6.83414 3.4576 3.90944 4.97492 0.737809 5.38772Z" fill="#231F20"/>
</svg>
