<svg width="10" height="8" viewBox="0 0 10 8" fill="none" xmlns="http://www.w3.org/2000/svg">
<path d="M4.22451 7.99886C3.55831 8.01626 2.90337 7.82463 2.35162 7.45088C0.166577 5.85549 0.00703425 2.33176 9.76011e-05 2.17915C-0.00182773 2.09717 0.0247832 2.01706 0.0753956 1.95253C0.126008 1.888 0.197473 1.84306 0.277559 1.82539C9.25358 -0.137633 9.35069 -0.0682663 9.51023 0.0496539C9.54985 0.0795515 9.58312 0.11702 9.60813 0.159889C9.63314 0.202757 9.64938 0.25017 9.65591 0.299368C9.79479 1.69786 9.6023 3.10939 9.09404 4.41964C8.78839 5.22287 8.30426 5.94618 7.67821 6.53497C7.05215 7.12377 6.30052 7.56265 5.48004 7.81851C5.07191 7.9365 4.64936 7.9972 4.22451 7.99886ZM0.721504 2.44968C0.804744 3.28899 1.17932 5.7445 2.747 6.88208C3.12026 7.11119 3.5396 7.25488 3.97493 7.30285C4.41026 7.35082 4.85082 7.30188 5.26501 7.15955C5.98808 6.93446 6.65079 6.54856 7.20342 6.03078C7.75605 5.51301 8.18423 4.87681 8.45586 4.16992C8.88521 3.06687 9.06524 1.88249 8.98305 0.701685C7.78995 0.916715 3.5794 1.81845 0.721504 2.44274V2.44968Z" fill="#231F20"/>
</svg>
