<svg width="10" height="36" viewBox="0 0 10 36" fill="none" xmlns="http://www.w3.org/2000/svg">
<path d="M0.341229 36C0.249469 35.9964 0.162681 35.9574 0.0990577 35.8911C0.0354347 35.8249 -7.05331e-05 35.7366 1.052e-07 35.6448C1.052e-07 34.844 0.508373 15.965 2.59061 9.42598C4.67284 2.88694 8.57964 0.164086 8.73981 0.0596288C8.81646 0.00791496 8.91053 -0.0112326 9.0013 0.00639802C9.09207 0.0240286 9.1721 0.0769894 9.22381 0.153637C9.27553 0.230284 9.29468 0.324339 9.27705 0.415104C9.25942 0.505869 9.20646 0.585909 9.12981 0.637623C9.08803 0.637623 5.27872 3.27692 3.2522 9.6349C1.22567 15.9929 0.703364 35.4637 0.6964 35.6587C0.695494 35.7045 0.685582 35.7496 0.667242 35.7915C0.648901 35.8334 0.622503 35.8712 0.589521 35.9029C0.556539 35.9346 0.517634 35.9595 0.475035 35.9761C0.432435 35.9928 0.386958 36.0009 0.341229 36Z" fill="white"/>
</svg>
