<svg width="44" height="33" viewBox="0 0 44 33" fill="none" xmlns="http://www.w3.org/2000/svg">
<path d="M34.9527 2.85871C33.5898 2.80419 32.7175 3.39706 31.5453 3.81956C29.2624 4.62368 28.1993 2.7156 26.2367 1.70023C23.1466 0.093812 19.5959 -0.393656 16.1872 0.3206C12.7786 1.03486 9.72221 2.90681 7.53708 5.6186C6.1773 7.22904 5.29663 9.18865 4.99519 11.2747C4.70897 13.6325 5.37 16.0449 4.96112 18.3755C4.71119 19.7139 4.12462 20.9668 3.25668 22.0159C2.38873 23.0651 1.26798 23.876 0 24.3723C2.1817 24.5407 4.37611 24.3332 6.48761 23.759C5.88069 24.4803 5.12636 25.0633 4.27533 25.4688C3.4243 25.8744 2.49631 26.093 1.55376 26.11C3.72695 27.781 6.39726 28.6759 9.13853 28.6518L4.33416 29.7762C8.423 32.3998 13.4045 33.1835 18.2226 32.9654C27.8177 32.468 43.8868 28.5428 43.6074 16.113C43.4507 11.3496 40.8338 3.13129 34.9527 2.85871Z" fill="white"/>
</svg>
