<svg width="5" height="5" viewBox="0 0 5 5" fill="none" xmlns="http://www.w3.org/2000/svg">
<path d="M3.95942 4.67386C4.15368 4.19482 4.20048 3.66868 4.09382 3.16286C3.98716 2.65705 3.7319 2.1946 3.36074 1.83479C2.98958 1.47497 2.51944 1.23418 2.01056 1.14326C1.50168 1.05235 0.977247 1.11545 0.504459 1.32448C0.325526 1.4024 0.15624 1.50082 0 1.61777C0.150754 1.24709 0.385176 0.916279 0.684951 0.651192C0.984725 0.386105 1.34173 0.193922 1.72808 0.0896554C2.11443 -0.0146113 2.51965 -0.028135 2.91209 0.050139C3.30453 0.128413 3.67356 0.296368 3.99034 0.540877C4.30712 0.785386 4.56308 1.09983 4.73822 1.45964C4.91335 1.81945 5.00292 2.21488 4.99993 2.61504C4.99694 3.0152 4.90146 3.40925 4.72096 3.7664C4.54046 4.12355 4.27982 4.43412 3.95942 4.67386Z" fill="#13183F"/>
</svg>
