<svg width="11" height="6" viewBox="0 0 11 6" fill="none" xmlns="http://www.w3.org/2000/svg">
<path d="M6.33434 6C5.18248 5.98848 4.03434 5.86698 2.90558 5.63714C1.06901 5.27428 0.121099 4.68185 0.0100162 3.81543C-0.204744 2.14182 3.09813 0.445995 3.76462 0.112754C3.84148 0.086795 3.92473 0.086795 4.00159 0.112754H4.24598C5.28275 -0.0131365 8.43751 -0.413029 10.2296 1.73452C11.0294 2.68241 11.1998 3.65251 10.7258 4.4671C10.1112 5.4372 8.51897 6 6.33434 6ZM4.00901 0.81626C2.56493 1.55679 0.661706 2.86014 0.765383 3.68213C0.765383 3.95613 1.15047 4.4745 3.05369 4.85217C7.3563 5.69638 9.51871 4.91142 10.0667 3.98575C10.1976 3.67158 10.2273 3.32443 10.1516 2.9926C10.076 2.66078 9.89873 2.3608 9.6446 2.13441C8.11906 0.312696 5.37162 0.653342 4.34225 0.786638C4.20155 0.816259 4.09787 0.81626 4.00901 0.81626Z" fill="#231F20"/>
</svg>
