<svg width="83" height="43" viewBox="0 0 83 43" fill="none" xmlns="http://www.w3.org/2000/svg">
<path d="M81.817 42.3228H13.5755C13.1119 42.3176 12.6622 42.1634 12.293 41.8828C11.9238 41.6022 11.6547 41.2102 11.5256 40.7649L0.0393044 1.29825C-0.00403005 1.14685 -0.0116523 0.987453 0.0170389 0.83261C0.04573 0.677766 0.10995 0.531692 0.204651 0.405868C0.299353 0.280044 0.421955 0.177908 0.562813 0.107483C0.70367 0.0370574 0.858945 0.000262089 1.01643 0H71.0823L82.9513 40.8127C83.0036 40.9887 83.014 41.1745 82.9815 41.3552C82.949 41.536 82.8747 41.7066 82.7644 41.8534C82.6542 42.0002 82.511 42.1191 82.3465 42.2006C82.182 42.2821 82.0006 42.324 81.817 42.3228Z" fill="#231F20"/>
</svg>
