<svg width="23" height="20" viewBox="0 0 23 20" fill="none" xmlns="http://www.w3.org/2000/svg">
<path d="M11.5742 19.9985C9.79383 19.9838 8.03086 19.6469 6.37059 19.0041C5.0629 18.5001 3.57811 17.6828 3.41465 17.0766C3.16265 16.1299 0.138593 1.05089 0.00918503 0.403869C-0.003188 0.352785 -0.00305751 0.299476 0.00955916 0.248451C0.0221758 0.197426 0.0469088 0.150194 0.0816634 0.110762C0.116418 0.0713296 0.160165 0.040854 0.209202 0.0219275C0.258239 0.00300101 0.311131 -0.00382067 0.363367 0.00203646L22.5738 1.65024C22.6257 1.65267 22.6762 1.66717 22.7215 1.69256C22.7667 1.71795 22.8054 1.75355 22.8345 1.79652C22.8636 1.8395 22.8823 1.88867 22.8891 1.94013C22.8958 1.99158 22.8905 2.0439 22.8735 2.09294L17.6904 18.1459C17.6649 18.2199 17.6143 18.2826 17.5473 18.323C15.7624 19.4524 13.6861 20.0348 11.5742 19.9985ZM0.765209 0.710352C1.27603 3.26439 3.85055 16.0618 4.07531 16.8996C4.17067 17.1243 5.39664 18.037 7.56933 18.6976C9.61261 19.3174 13.5221 20.0189 17.1046 17.785L22.1175 2.26321L0.765209 0.710352Z" fill="#231F20"/>
</svg>
