<svg width="84" height="43" viewBox="0 0 84 43" fill="none" xmlns="http://www.w3.org/2000/svg">
<path d="M82.1833 43H13.9407C13.3992 42.9975 12.8729 42.8207 12.4397 42.4958C12.0066 42.1709 11.6895 41.7152 11.5354 41.1961L0.0488753 1.7288C-0.0065988 1.52699 -0.0149765 1.31512 0.0243885 1.10956C0.0637535 0.903998 0.149805 0.710223 0.275914 0.543182C0.402023 0.376141 0.56482 0.240297 0.75174 0.146128C0.938661 0.0519582 1.14471 0.0019779 1.354 4.46867e-05H71.4485C71.5209 -0.00115065 71.5917 0.0216644 71.6498 0.0649276C71.7079 0.108191 71.75 0.169472 71.7696 0.239203L83.6456 41.0526C83.7113 41.2795 83.7233 41.5185 83.6808 41.7508C83.6382 41.9831 83.5423 42.2024 83.4005 42.3912C83.2586 42.5801 83.0749 42.7334 82.8636 42.839C82.6524 42.9447 82.4195 42.9998 82.1833 43ZM1.354 0.676514C1.25003 0.678134 1.14779 0.703462 1.05508 0.750572C0.962373 0.797683 0.881644 0.865337 0.819038 0.94837C0.756433 1.0314 0.713603 1.12762 0.693815 1.22971C0.674028 1.3318 0.677807 1.43706 0.704857 1.53747L12.1845 41.0048C12.2976 41.3831 12.5294 41.7149 12.8456 41.9512C13.1619 42.1875 13.5459 42.3156 13.9407 42.3167H82.1833C82.3154 42.3175 82.4458 42.2877 82.5644 42.2296C82.6829 42.1715 82.7864 42.0867 82.8667 41.9819C82.9439 41.8773 82.9958 41.7563 83.0184 41.6282C83.0409 41.5002 83.0334 41.3686 82.9965 41.244L71.1751 0.676514H1.354Z" fill="#231F20"/>
</svg>
