<svg width="13" height="9" viewBox="0 0 13 9" fill="none" xmlns="http://www.w3.org/2000/svg">
<path d="M2.75629 8.99996C2.29045 8.99981 1.83866 8.84041 1.47587 8.5482C1.11308 8.25599 0.861085 7.84854 0.761705 7.39343L0.0469176 4.14634C-0.0684591 3.61737 0.0309382 3.06423 0.323264 2.60852C0.615589 2.15281 1.07692 1.83182 1.60584 1.71613L9.19617 0.0483365C9.45858 -0.00979162 9.72988 -0.0155535 9.99451 0.0313821C10.2592 0.0783176 10.5119 0.177027 10.7383 0.321851C10.9647 0.466674 11.1603 0.654762 11.3139 0.875332C11.4675 1.0959 11.576 1.34461 11.6332 1.60721L12.314 4.8543C12.4242 5.37645 12.3256 5.92099 12.0393 6.37136C11.753 6.82174 11.3019 7.14217 10.7823 7.26409L3.19197 8.92508C3.05015 8.96691 2.90394 8.99204 2.75629 8.99996ZM9.63865 0.708644C9.54134 0.69858 9.44325 0.69858 9.34594 0.708644L1.76241 2.36963C1.41622 2.44945 1.11494 2.66143 0.922886 2.96031C0.730833 3.25919 0.663223 3.62131 0.73448 3.96935L1.44926 7.26409C1.5306 7.60759 1.74218 7.90607 2.03936 8.09657C2.33655 8.28707 2.69612 8.35469 3.04221 8.28519L10.6325 6.58336C10.9761 6.50202 11.2745 6.29044 11.465 5.99326C11.6556 5.69608 11.7232 5.33653 11.6537 4.99045L10.9729 1.74336C10.9044 1.44665 10.7385 1.18147 10.5015 0.990201C10.2646 0.798927 9.97037 0.692603 9.66589 0.688223L9.63865 0.708644Z" fill="#231F20"/>
</svg>
