<svg width="37" height="12" viewBox="0 0 37 12" fill="none" xmlns="http://www.w3.org/2000/svg">
<path d="M36.6568 11.4065H0.343164C0.252152 11.4065 0.164871 11.3703 0.100516 11.306C0.0361597 11.2416 0 11.1544 0 11.0634V0.343156C0.00175705 0.252696 0.0384845 0.166428 0.102463 0.10245C0.166442 0.0384731 0.252702 0.00175701 0.343164 0H36.6568C36.7478 0 36.8351 0.0361483 36.8995 0.100503C36.9638 0.164857 37 0.252145 37 0.343156V11.0839C36.9947 11.1713 36.9563 11.2534 36.8925 11.3134C36.8287 11.3734 36.7444 11.4067 36.6568 11.4065ZM0.686329 10.7202H36.3137V0.686312H0.686329V10.7202Z" fill="white"/>
</svg>
