<svg width="56" height="47" viewBox="0 0 56 47" fill="none" xmlns="http://www.w3.org/2000/svg">
<path d="M3.33716 47C3.16831 47 2.99718 47 2.82376 47C2.18592 46.9682 1.5766 46.7259 1.0911 46.311C0.605595 45.8961 0.271276 45.332 0.140407 44.7069C-0.633112 41.6745 1.84489 35.8904 6.20534 32.8511L5.46605 29.8461C5.45402 29.8012 5.45146 29.7543 5.45853 29.7083C5.4656 29.6624 5.48214 29.6184 5.50712 29.5792C5.53294 29.5389 5.56706 29.5047 5.60721 29.4787C5.64735 29.4527 5.69257 29.4356 5.73986 29.4286L36.2357 24.5343L32.197 5.36792C32.188 5.32388 32.1877 5.27849 32.1963 5.23436C32.2048 5.19022 32.222 5.14819 32.2468 5.11069C32.2716 5.07318 32.3035 5.04094 32.3408 5.01578C32.378 4.99062 32.4199 4.97304 32.4639 4.96406C32.5076 4.95403 32.5528 4.95283 32.5969 4.96054C32.641 4.96825 32.6831 4.98471 32.7207 5.00896C32.7583 5.0332 32.7907 5.06473 32.816 5.1017C32.8413 5.13866 32.8589 5.1803 32.8678 5.22417L36.975 24.7534C36.985 24.7992 36.9854 24.8467 36.9759 24.8926C36.9665 24.9386 36.9475 24.9821 36.9202 25.0203C36.8945 25.0585 36.8611 25.091 36.8222 25.1157C36.7834 25.1404 36.7398 25.1569 36.6943 25.1641L6.21219 30.0583L6.89672 32.9333C6.91427 33.0005 6.91053 33.0715 6.88601 33.1365C6.86149 33.2015 6.81739 33.2572 6.75981 33.2961C2.57049 36.1026 0.0582586 41.7498 0.777015 44.5563C0.869219 45.0401 1.12227 45.4785 1.49507 45.8004C1.86787 46.1222 2.33853 46.3086 2.83061 46.3292C7.51964 46.7673 13.0986 40.1686 13.1396 40.0933C13.1729 40.0533 13.2149 40.0214 13.2623 40.0001C13.3098 39.9787 13.3614 39.9685 13.4134 39.9701C13.7626 39.9701 48.3245 40.9763 53.1573 34.2612C57.9901 27.5462 52.062 0.720077 52.0004 0.425736C51.9905 0.38079 51.9896 0.334342 51.9976 0.289034C52.0057 0.243725 52.0226 0.200443 52.0474 0.161669C52.0722 0.122896 52.1044 0.0893843 52.1421 0.0630489C52.1799 0.0367135 52.2224 0.0180702 52.2674 0.00818214C52.3123 -0.00170594 52.3588 -0.00263993 52.4041 0.0054247C52.4494 0.0134893 52.4927 0.0303944 52.5314 0.055184C52.5702 0.0799735 52.6037 0.112157 52.6301 0.149898C52.6564 0.187638 52.6751 0.230196 52.6849 0.275142C52.9382 1.3909 58.7773 27.6557 53.7323 34.6651C48.8037 41.5102 16.5007 40.7436 13.5777 40.6546C12.8042 41.5582 7.92351 47 3.33716 47Z" fill="#231F20"/>
</svg>
