<svg width="7" height="5" viewBox="0 0 7 5" fill="none" xmlns="http://www.w3.org/2000/svg">
<path d="M2.03952 4.50458C1.36533 4.52334 0.702028 4.33173 0.141705 3.95634C0.083719 3.91412 0.0403581 3.85486 0.0176766 3.78681C-0.00500503 3.71877 -0.00588122 3.64534 0.0151775 3.57678C0.493148 1.86175 1.31554 0.765258 2.44721 0.336501C3.85415 -0.141688 5.38454 -0.109336 6.77002 0.427879C6.81494 0.444313 6.85612 0.469568 6.89113 0.502161C6.92614 0.534754 6.95427 0.574022 6.97387 0.617654C7.00871 0.705708 7.00871 0.803724 6.97387 0.891777C6.66236 1.70387 6.17109 2.43493 5.53688 3.03017C4.90267 3.62541 4.14197 4.0694 3.31177 4.32886C2.89781 4.44578 2.46968 4.50491 2.03952 4.50458ZM0.760247 3.51352C1.49108 3.8588 2.32687 3.90915 3.09387 3.6541C3.76701 3.44823 4.38915 3.10268 4.91965 2.64002C5.45015 2.17735 5.87709 1.60798 6.17256 0.969095C5.04545 0.594421 3.82736 0.594421 2.70025 0.969095C1.83569 1.32053 1.20307 2.17805 0.760247 3.51352Z" fill="#231F20"/>
</svg>
