<svg width="13" height="46" viewBox="0 0 13 46" fill="none" xmlns="http://www.w3.org/2000/svg">
<path opacity="0.09" d="M12.8701 18.6753C7.16929 12.8228 3.37582 3.53599 2.16542 0.28786C2.13318 0.203204 2.07597 0.130344 2.00139 0.0789367C1.9268 0.0275291 1.83835 0 1.74777 0C1.65718 0 1.56873 0.0275291 1.49414 0.0789367C1.41955 0.130344 1.36235 0.203204 1.33011 0.28786C1.03482 1.08593 0.585248 2.22982 0 3.59983C1.78767 7.83756 5.10496 14.6344 9.61935 19.2632C9.6859 19.3302 9.72909 19.4168 9.74251 19.5102C9.75593 19.6037 9.73886 19.699 9.69384 19.7819L4.98525 27.9861H5.11028C5.25139 27.9861 5.38672 28.0421 5.48649 28.1419C5.58627 28.2417 5.64233 28.377 5.64233 28.5181L5.5705 30.069C5.5705 30.2101 5.51444 30.3454 5.41466 30.4452C5.31489 30.545 5.17957 30.601 5.03846 30.601H4.05151L5.14752 45.5222H8.44354L7.37945 30.6037H8.36639C8.50749 30.6037 8.64282 30.5477 8.7426 30.4479C8.84238 30.3481 8.89843 30.2128 8.89843 30.0717V28.5208C8.89843 28.3797 8.84238 28.2443 8.7426 28.1445C8.64282 28.0448 8.50749 27.9887 8.36639 27.9887H8.2387L12.9499 19.194C12.9935 19.1103 13.0092 19.0149 12.9948 18.9216C12.9805 18.8283 12.9368 18.7421 12.8701 18.6753Z" fill="black"/>
</svg>
