<svg width="45" height="34" viewBox="0 0 45 34" fill="none" xmlns="http://www.w3.org/2000/svg">
<path d="M17.0883 34C13.3827 34 8.6391 33.3126 4.52795 30.6865C4.47155 30.6489 4.42725 30.5958 4.40041 30.5335C4.37357 30.4713 4.36534 30.4027 4.37671 30.3358C4.39081 30.2704 4.42264 30.2102 4.46872 30.1617C4.5148 30.1132 4.57335 30.0783 4.63795 30.0609L7.33288 29.4353C5.28149 29.0858 3.34638 28.241 1.69552 26.9741C1.6378 26.9308 1.59517 26.8705 1.57365 26.8016C1.55214 26.7328 1.55284 26.6589 1.57566 26.5904C1.59847 26.522 1.64225 26.4625 1.70077 26.4203C1.7593 26.3781 1.82962 26.3554 1.90177 26.3554C3.31335 26.3323 4.67633 25.836 5.7723 24.9461C3.97816 25.3181 2.14032 25.4339 0.31368 25.2898C0.23629 25.2828 0.163575 25.2497 0.107391 25.196C0.0512071 25.1423 0.0148734 25.0712 0.00431442 24.9942C-0.00826396 24.9164 0.00686205 24.8366 0.0470619 24.7688C0.0872617 24.7009 0.149982 24.6493 0.224304 24.623C1.45325 24.1502 2.54069 23.3706 3.38307 22.3586C4.22546 21.3465 4.79473 20.1357 5.03669 18.8414C5.20204 17.6057 5.21589 16.3544 5.07794 15.1153C4.9705 13.9721 4.9705 12.8212 5.07794 11.678C5.39064 9.50825 6.30521 7.46958 7.71787 5.79327C9.97221 2.99578 13.1257 1.06516 16.6424 0.32951C20.1591 -0.406144 23.822 0.0985531 27.0087 1.75783C27.5944 2.07766 28.1511 2.44801 28.6724 2.86465C29.7861 3.71024 30.6661 4.37708 32.1098 3.87523C32.4192 3.76524 32.7079 3.64149 32.9898 3.52462C33.8288 3.09851 34.7575 2.87929 35.6985 2.88528C41.6521 3.14651 44.6358 11.2174 44.732 16.5934C44.8558 22.2925 41.7415 26.7816 35.4716 29.9234C29.2017 33.0651 21.7219 33.7938 18.8001 33.9451C18.2226 33.9863 17.6658 34 17.0883 34ZM5.6073 30.5627C10.0484 33.1407 15.1427 33.4844 18.7107 33.3126C21.5707 33.1613 28.8855 32.4807 35.1072 29.3596C41.1227 26.3485 44.1064 22.0794 43.9895 16.6621C43.8727 11.5474 41.1296 3.86836 35.616 3.60024C34.7773 3.6061 33.9513 3.80611 33.2029 4.18459C32.9073 4.30834 32.6048 4.43895 32.2817 4.54895C30.5011 5.17454 29.3874 4.32896 28.2118 3.43525C27.7232 3.04386 27.201 2.69648 26.6512 2.39718C23.606 0.808495 20.1042 0.324553 16.7422 1.02777C13.3802 1.73098 10.366 3.57786 8.21286 6.25387C6.88632 7.81974 6.02218 9.72416 5.7173 11.7536C5.61422 12.8488 5.61422 13.9513 5.7173 15.0466C5.85704 16.341 5.83857 17.6477 5.6623 18.9376C5.44511 20.1153 4.97885 21.2329 4.29474 22.2158C3.61063 23.1987 2.72445 24.0241 1.69552 24.6367C3.4098 24.6345 5.1161 24.4033 6.76915 23.9493C6.84031 23.9286 6.91623 23.9315 6.98561 23.9576C7.05498 23.9836 7.1141 24.0313 7.15414 24.0936C7.19617 24.1529 7.21875 24.2238 7.21875 24.2964C7.21875 24.3691 7.19617 24.44 7.15414 24.4992C6.06605 25.7937 4.54796 26.6528 2.87799 26.9191C4.86631 28.2155 7.19368 28.8948 9.56721 28.8715C9.65208 28.8694 9.73464 28.8993 9.79838 28.9554C9.86211 29.0115 9.90231 29.0896 9.91095 29.174C9.92175 29.2582 9.90104 29.3434 9.85281 29.4132C9.80458 29.483 9.73225 29.5325 9.64971 29.5521L5.6073 30.5627Z" fill="#231F20"/>
</svg>
