<svg width="9" height="4" viewBox="0 0 9 4" fill="none" xmlns="http://www.w3.org/2000/svg">
<path d="M0.262519 3.97912C0.18689 3.95751 0.12036 3.91186 0.0729937 3.84907C0.025627 3.78628 0 3.70977 0 3.63112C0 3.55246 0.025627 3.47595 0.0729937 3.41316C0.12036 3.35037 0.18689 3.30472 0.262519 3.28312C5.51048 3.12304 8.0579 0.158083 8.08574 0.130244C8.11536 0.0940218 8.15185 0.0640152 8.19311 0.041948C8.23437 0.0198809 8.27959 0.00619385 8.32616 0.00166598C8.37273 -0.00286188 8.41975 0.00186177 8.46449 0.0155677C8.50923 0.0292736 8.55082 0.0516917 8.58687 0.0815291C8.66048 0.142597 8.70692 0.230313 8.71604 0.325515C8.72517 0.420718 8.69624 0.515663 8.63559 0.589605C8.52422 0.721845 5.85152 3.83296 0.283399 4L0.262519 3.97912Z" fill="#231F20"/>
</svg>
