<svg width="13" height="9" viewBox="0 0 13 9" fill="none" xmlns="http://www.w3.org/2000/svg">
<path d="M2.7234 8.99995C2.33208 8.99894 1.94929 8.88553 1.62058 8.67321C1.16569 8.38141 0.845016 7.92121 0.728802 7.39343L0.0480539 4.14634C-0.0686904 3.6177 0.0292581 3.06434 0.320359 2.60789C0.464969 2.38067 0.653091 2.18431 0.873903 2.03009C1.09472 1.87588 1.34386 1.76686 1.60697 1.70932L9.1905 0.0483365C9.45291 -0.00979162 9.72421 -0.0155535 9.98885 0.0313821C10.2535 0.0783176 10.5063 0.177027 10.7327 0.321851C10.9591 0.466674 11.1547 0.654764 11.3082 0.875334C11.4618 1.0959 11.5703 1.34462 11.6276 1.60721L12.3083 4.8543C12.4267 5.37949 12.3329 5.93017 12.0473 6.38656C11.7618 6.84294 11.3075 7.16811 10.7835 7.29132L3.19992 8.9523C3.04296 8.98333 2.88339 8.99928 2.7234 8.99995ZM9.60576 0.695032C9.50727 0.696264 9.40917 0.707669 9.31303 0.729068L1.7295 2.39686C1.55683 2.43311 1.39316 2.50359 1.24818 2.60414C1.1032 2.70469 0.979842 2.83327 0.885381 2.98229C0.69354 3.28323 0.627533 3.64746 0.701576 3.99658L1.41636 7.24367C1.4977 7.58717 1.70927 7.88565 2.00646 8.07615C2.30365 8.26665 2.66322 8.33428 3.00931 8.26477L10.5996 6.60378C10.9467 6.52635 11.2496 6.31623 11.4438 6.01835C11.6333 5.71646 11.6968 5.35229 11.6208 5.00406L10.94 1.75697C10.8718 1.45449 10.7024 1.18434 10.4597 0.991239C10.2171 0.798135 9.91585 0.693637 9.60576 0.695032Z" fill="#231F20"/>
</svg>
