<svg width="20" height="18" viewBox="0 0 20 18" fill="none" xmlns="http://www.w3.org/2000/svg">
<path d="M8.24605 18C7.87022 17.997 7.4948 17.9741 7.12139 17.9314C2.53358 17.4102 1.23747 12.4454 0.188239 8.47485L0.00994213 7.7891C-0.00663789 7.72175 -0.00240647 7.65096 0.0220804 7.58607C0.0465673 7.52119 0.0901562 7.46525 0.147094 7.42565C0.256818 7.32279 0.75743 6.73989 1.12089 6.31472C2.18383 5.09408 2.19755 5.08722 2.30727 5.03922C6.10312 3.57177 9.99911 2.3778 13.9654 1.46644C15.7141 1.02755 17.5177 0.574952 19.5201 0.0126332C19.579 -0.00380649 19.6412 -0.00420762 19.7003 0.0114665C19.7594 0.0271407 19.8132 0.0583236 19.8562 0.101785C19.8973 0.146208 19.9264 0.200359 19.9408 0.259144C19.9552 0.31793 19.9544 0.379414 19.9385 0.437803C19.6779 1.30871 19.4241 2.33735 19.1498 3.4277C17.7303 9.29776 15.5564 17.9931 8.24605 18ZM0.702568 7.83024L0.826012 8.30341C1.87524 12.2808 3.05477 16.7862 7.17625 17.2182C14.8089 18.0891 16.9416 9.51034 18.5052 3.24254C18.7178 2.38535 18.9235 1.56244 19.1293 0.821824C17.3531 1.30871 15.7004 1.72016 14.1437 2.1179C10.2135 3.01005 6.3538 4.18812 2.5953 5.64268C2.45815 5.77983 1.9781 6.32844 1.6215 6.74675C1.14146 7.36393 0.87401 7.66566 0.72314 7.83024H0.702568Z" fill="#231F20"/>
</svg>
