<svg width="64" height="26" viewBox="0 0 64 26" fill="none" xmlns="http://www.w3.org/2000/svg">
<path d="M51.6202 25.2952H8.19814C6.96189 25.2948 5.74171 25.015 4.62887 24.4765C3.51603 23.9381 2.53934 23.1551 1.77182 22.1859C1.00431 21.2168 0.465843 20.0867 0.1967 18.8801C-0.0724436 17.6736 -0.0652995 16.4218 0.217598 15.2184L3.73014 0.261207C3.7487 0.186121 3.79204 0.11949 3.85316 0.072091C3.91428 0.0246915 3.98961 -0.000698257 4.06695 1.46119e-05H7.69635C7.74788 0.000737716 7.79863 0.0128183 7.84496 0.035392C7.8913 0.0579657 7.93209 0.0904789 7.96443 0.130616C7.99599 0.170879 8.01796 0.217793 8.02868 0.267815C8.0394 0.317837 8.03858 0.369651 8.02629 0.41931L4.32129 16.1807C4.18468 16.7651 4.18181 17.3729 4.3129 17.9587C4.44398 18.5444 4.70564 19.093 5.07835 19.5635C5.45106 20.034 5.92519 20.4142 6.46539 20.6759C7.00559 20.9376 7.5979 21.0739 8.19814 21.0747H51.6477C52.5462 21.0763 53.4186 20.7734 54.1227 20.2154C54.8268 19.6574 55.321 18.8772 55.5246 18.0022L59.697 0.261207C59.7142 0.186678 59.7562 0.120213 59.8162 0.0727412C59.8762 0.0252691 59.9505 -0.00037639 60.027 1.46119e-05H63.6564C63.7076 0.00102827 63.7581 0.0132796 63.8041 0.0359059C63.8501 0.0585323 63.8906 0.0909787 63.9227 0.130962C63.9549 0.170946 63.9778 0.217491 63.99 0.267312C64.0022 0.317133 64.0032 0.369021 63.9932 0.41931L59.6283 18.9783C59.2086 20.7837 58.1871 22.3927 56.7318 23.5407C55.2765 24.6887 53.4738 25.3074 51.6202 25.2952ZM4.30754 0.687383L0.870612 15.3764C0.60988 16.4804 0.602739 17.629 0.849718 18.7361C1.0967 19.8432 1.59138 20.8799 2.29659 21.7683C3.0018 22.6567 3.89919 23.3738 4.92134 23.8656C5.9435 24.3574 7.06383 24.6112 8.19814 24.6078H51.6477C53.3428 24.6127 54.9894 24.0422 56.318 22.9895C57.6466 21.9369 58.5786 20.4645 58.9615 18.8133L63.2233 0.687383H60.3019L56.1776 18.1603C55.9419 19.1874 55.3635 20.1036 54.5377 20.7583C53.7119 21.4129 52.6878 21.7669 51.634 21.7621H8.19814C7.49394 21.7623 6.79884 21.6031 6.16489 21.2965C5.53094 20.9899 4.9746 20.5438 4.53752 19.9917C4.10044 19.4396 3.79396 18.7957 3.64104 18.1084C3.48812 17.421 3.49273 16.7079 3.65452 16.0226L7.25642 0.687383H4.30754Z" fill="#231F20"/>
</svg>
