<svg width="427" height="351" viewBox="0 0 427 351" fill="none" xmlns="http://www.w3.org/2000/svg">
<path d="M412.2 0.709222H55.9385C48.156 0.709222 41.847 7.02136 41.847 14.8078V245.529C41.847 253.316 48.156 259.628 55.9385 259.628H412.2C419.982 259.628 426.291 253.316 426.291 245.529V14.8078C426.291 7.02136 419.982 0.709222 412.2 0.709222Z" fill="white"/>
<path d="M412.2 260.351H55.9244C52.0013 260.343 48.2411 258.781 45.4671 256.006C42.6931 253.23 41.1315 249.468 41.1241 245.543V14.7381C41.1498 10.8252 42.7195 7.08092 45.4915 4.32053C48.2636 1.56014 52.0133 0.00725041 55.9244 0H412.2C416.124 0.0036813 419.886 1.56495 422.661 4.34113C425.436 7.11731 426.996 10.8816 427 14.8077V245.613C426.978 249.527 425.409 253.273 422.636 256.034C419.864 258.795 416.112 260.347 412.2 260.351ZM55.9244 1.4321C52.381 1.43945 48.9848 2.85102 46.4793 5.35783C43.9737 7.86464 42.5629 11.2625 42.5555 14.8077V245.613C42.5629 249.158 43.9737 252.556 46.4793 255.062C48.9848 257.569 52.381 258.981 55.9244 258.988H412.2C415.744 258.984 419.142 257.574 421.649 255.066C424.155 252.559 425.565 249.159 425.568 245.613V14.8077C425.565 11.2614 424.155 7.86139 421.649 5.35378C419.142 2.84617 415.744 1.43578 412.2 1.4321H55.9244Z" fill="#231F20"/>
<path d="M254.441 259.628H203.968V311.309H254.441V259.628Z" fill="#2945FF"/>
<path d="M254.414 312.004H203.968C203.784 312.004 203.607 311.93 203.477 311.8C203.346 311.67 203.273 311.493 203.273 311.308V259.628C203.273 259.537 203.291 259.447 203.326 259.364C203.361 259.28 203.413 259.204 203.478 259.141C203.542 259.077 203.619 259.028 203.703 258.994C203.787 258.961 203.877 258.944 203.968 258.946H254.414C254.594 258.946 254.768 259.018 254.895 259.146C255.023 259.274 255.095 259.447 255.095 259.628V311.336C255.088 311.513 255.013 311.681 254.887 311.805C254.76 311.929 254.591 312 254.414 312.004ZM204.635 310.613H253.719V260.323H204.663L204.635 310.613Z" fill="#231F20"/>
<path d="M280.637 311.309H177.772C174.97 311.309 172.699 313.581 172.699 316.384V316.397C172.699 319.2 174.97 321.472 177.772 321.472H280.637C283.438 321.472 285.709 319.2 285.709 316.397V316.384C285.709 313.581 283.438 311.309 280.637 311.309Z" fill="#2945FF"/>
<path d="M280.624 322.154H177.787C176.257 322.154 174.79 321.546 173.709 320.464C172.627 319.381 172.02 317.914 172.02 316.384C172.02 314.853 172.627 313.386 173.709 312.303C174.79 311.221 176.257 310.613 177.787 310.613H280.624C282.153 310.613 283.62 311.221 284.702 312.303C285.784 313.386 286.391 314.853 286.391 316.384C286.391 317.914 285.784 319.381 284.702 320.464C283.62 321.546 282.153 322.154 280.624 322.154ZM177.787 312.004C176.667 312.067 175.613 312.557 174.842 313.372C174.072 314.188 173.642 315.268 173.642 316.39C173.642 317.513 174.072 318.593 174.842 319.409C175.613 320.224 176.667 320.714 177.787 320.777H280.624C281.22 320.811 281.818 320.722 282.379 320.517C282.94 320.312 283.453 319.994 283.888 319.583C284.322 319.173 284.668 318.678 284.904 318.129C285.14 317.58 285.262 316.988 285.262 316.39C285.262 315.793 285.14 315.201 284.904 314.652C284.668 314.103 284.322 313.608 283.888 313.198C283.453 312.787 282.94 312.469 282.379 312.264C281.818 312.059 281.22 311.97 280.624 312.004H177.787Z" fill="#231F20"/>
<path d="M426.291 13.167H41.847V222.935H426.291V13.167Z" fill="white"/>
<path d="M426.291 223.644H41.7913C41.6971 223.646 41.6034 223.629 41.5158 223.595C41.4282 223.56 41.3484 223.508 41.2812 223.442C41.2139 223.376 41.1604 223.297 41.1239 223.21C41.0874 223.123 41.0687 223.03 41.0687 222.935V13.1671C41.063 13.0687 41.0775 12.9702 41.1112 12.8776C41.145 12.785 41.1973 12.7003 41.265 12.6286C41.3327 12.557 41.4143 12.5 41.5048 12.4611C41.5953 12.4222 41.6928 12.4022 41.7913 12.4024H426.291C426.385 12.4023 426.479 12.4211 426.566 12.4576C426.653 12.4941 426.731 12.5476 426.797 12.6149C426.863 12.6823 426.915 12.7621 426.95 12.8497C426.985 12.9374 427.002 13.0311 427 13.1254V222.935C427 223.028 426.982 223.121 426.946 223.207C426.91 223.293 426.858 223.371 426.792 223.437C426.726 223.503 426.648 223.555 426.562 223.59C426.476 223.626 426.384 223.644 426.291 223.644ZM42.5556 222.254H425.568V13.8762H42.5556V222.254Z" fill="#231F20"/>
<path d="M247.465 183.073H68.3756C68.1913 183.073 68.0145 183 67.8842 182.869C67.7539 182.739 67.6807 182.562 67.6807 182.378V41.6005C67.6807 41.4161 67.7539 41.2393 67.8842 41.1089C68.0145 40.9786 68.1913 40.9053 68.3756 40.9053H247.465C247.649 40.9053 247.826 40.9786 247.956 41.1089C248.087 41.2393 248.16 41.4161 248.16 41.6005V182.378C248.16 182.562 248.087 182.739 247.956 182.869C247.826 183 247.649 183.073 247.465 183.073ZM69.0565 181.682H246.784V42.2818H69.0704L69.0565 181.682Z" fill="#D1D3D4"/>
<path d="M203.468 72.495H112.54C112.356 72.495 112.179 72.4218 112.049 72.2914C111.918 72.161 111.845 71.9842 111.845 71.7998C111.845 71.6155 111.918 71.4386 112.049 71.3083C112.179 71.1779 112.356 71.1046 112.54 71.1046H203.468C203.652 71.1046 203.829 71.1779 203.959 71.3083C204.089 71.4386 204.162 71.6155 204.162 71.7998C204.162 71.9842 204.089 72.161 203.959 72.2914C203.829 72.4218 203.652 72.495 203.468 72.495Z" fill="#D1D3D4"/>
<path d="M98.6024 72.495H91.1676C90.9833 72.495 90.8065 72.4218 90.6762 72.2914C90.5459 72.161 90.4727 71.9842 90.4727 71.7998C90.4727 71.6155 90.5459 71.4386 90.6762 71.3083C90.8065 71.1779 90.9833 71.1046 91.1676 71.1046H98.6024C98.7867 71.1046 98.9634 71.1779 99.0937 71.3083C99.224 71.4386 99.2972 71.6155 99.2972 71.7998C99.2972 71.9842 99.224 72.161 99.0937 72.2914C98.9634 72.4218 98.7867 72.495 98.6024 72.495Z" fill="#D1D3D4"/>
<path d="M227.83 92.6695H167.1C166.916 92.6695 166.739 92.5963 166.609 92.4659C166.479 92.3355 166.405 92.1587 166.405 91.9743C166.405 91.7899 166.479 91.6131 166.609 91.4827C166.739 91.3524 166.916 91.2791 167.1 91.2791H227.83C228.014 91.2791 228.191 91.3524 228.321 91.4827C228.451 91.6131 228.525 91.7899 228.525 91.9743C228.525 92.1587 228.451 92.3355 228.321 92.4659C228.191 92.5963 228.014 92.6695 227.83 92.6695Z" fill="#D1D3D4"/>
<path d="M149.548 92.6695H112.54C112.356 92.6695 112.179 92.5963 112.049 92.4659C111.918 92.3355 111.845 92.1587 111.845 91.9743C111.845 91.7899 111.918 91.6131 112.049 91.4827C112.179 91.3524 112.356 91.2791 112.54 91.2791H149.548C149.732 91.2791 149.909 91.3524 150.039 91.4827C150.169 91.6131 150.242 91.7899 150.242 91.9743C150.242 92.1587 150.169 92.3355 150.039 92.4659C149.909 92.5963 149.732 92.6695 149.548 92.6695Z" fill="#D1D3D4"/>
<path d="M98.6024 92.6695H91.1676C90.9833 92.6695 90.8065 92.5963 90.6762 92.4659C90.5459 92.3355 90.4727 92.1587 90.4727 91.9743C90.4727 91.7899 90.5459 91.6131 90.6762 91.4827C90.8065 91.3524 90.9833 91.2791 91.1676 91.2791H98.6024C98.7867 91.2791 98.9634 91.3524 99.0937 91.4827C99.224 91.6131 99.2972 91.7899 99.2972 91.9743C99.2972 92.1587 99.224 92.3355 99.0937 92.4659C98.9634 92.5963 98.7867 92.6695 98.6024 92.6695Z" fill="#D1D3D4"/>
<path d="M199.16 112.844H112.54C112.356 112.844 112.179 112.771 112.049 112.641C111.918 112.51 111.845 112.333 111.845 112.149C111.845 111.965 111.918 111.788 112.049 111.657C112.179 111.527 112.356 111.454 112.54 111.454H199.16C199.343 111.457 199.517 111.532 199.647 111.661C199.776 111.791 199.851 111.966 199.854 112.149C199.854 112.333 199.781 112.51 199.651 112.641C199.521 112.771 199.344 112.844 199.16 112.844Z" fill="#D1D3D4"/>
<path d="M98.6024 112.844H91.1676C90.9833 112.844 90.8065 112.771 90.6762 112.641C90.5459 112.51 90.4727 112.333 90.4727 112.149C90.4763 111.966 90.5506 111.791 90.6802 111.661C90.8097 111.532 90.9844 111.457 91.1676 111.454H98.6024C98.7867 111.454 98.9634 111.527 99.0937 111.657C99.224 111.788 99.2972 111.965 99.2972 112.149C99.2972 112.333 99.224 112.51 99.0937 112.641C98.9634 112.771 98.7867 112.844 98.6024 112.844Z" fill="#D1D3D4"/>
<path d="M192.517 133.019H150.826C150.642 133.019 150.465 132.945 150.335 132.815C150.205 132.685 150.131 132.508 150.131 132.324C150.131 132.139 150.205 131.962 150.335 131.832C150.465 131.702 150.642 131.628 150.826 131.628H192.517C192.7 131.632 192.875 131.706 193.004 131.836C193.134 131.966 193.208 132.14 193.212 132.324C193.212 132.508 193.139 132.685 193.008 132.815C192.878 132.945 192.701 133.019 192.517 133.019Z" fill="#D1D3D4"/>
<path d="M167.099 133.019H112.54C112.356 133.019 112.179 132.945 112.049 132.815C111.918 132.685 111.845 132.508 111.845 132.324C111.845 132.139 111.918 131.962 112.049 131.832C112.179 131.702 112.356 131.628 112.54 131.628H167.099C167.284 131.628 167.46 131.702 167.591 131.832C167.721 131.962 167.794 132.139 167.794 132.324C167.794 132.508 167.721 132.685 167.591 132.815C167.46 132.945 167.284 133.019 167.099 133.019Z" fill="#D1D3D4"/>
<path d="M98.6024 133.019H91.1676C90.9833 133.019 90.8065 132.945 90.6762 132.815C90.5459 132.685 90.4727 132.508 90.4727 132.324C90.4763 132.14 90.5506 131.966 90.6802 131.836C90.8097 131.706 90.9844 131.632 91.1676 131.628H98.6024C98.7867 131.628 98.9634 131.702 99.0937 131.832C99.224 131.962 99.2972 132.139 99.2972 132.324C99.2972 132.508 99.224 132.685 99.0937 132.815C98.9634 132.945 98.7867 133.019 98.6024 133.019Z" fill="#D1D3D4"/>
<path d="M171.671 152.637H112.54C112.356 152.637 112.179 152.564 112.049 152.434C111.918 152.303 111.845 152.126 111.845 151.942C111.845 151.758 111.918 151.581 112.049 151.45C112.179 151.32 112.356 151.247 112.54 151.247H171.671C171.856 151.247 172.032 151.32 172.163 151.45C172.293 151.581 172.366 151.758 172.366 151.942C172.366 152.126 172.293 152.303 172.163 152.434C172.032 152.564 171.856 152.637 171.671 152.637Z" fill="#D1D3D4"/>
<path d="M98.6024 152.637H91.1676C90.9833 152.637 90.8065 152.564 90.6762 152.434C90.5459 152.303 90.4727 152.126 90.4727 151.942C90.4727 151.758 90.5459 151.581 90.6762 151.45C90.8065 151.32 90.9833 151.247 91.1676 151.247H98.6024C98.7867 151.247 98.9634 151.32 99.0937 151.45C99.224 151.581 99.2972 151.758 99.2972 151.942C99.2972 152.126 99.224 152.303 99.0937 152.434C98.9634 152.564 98.7867 152.637 98.6024 152.637Z" fill="#D1D3D4"/>
<path d="M387.172 134.882L392.23 120.436C392.23 120.436 389.103 113.053 389.701 108.923C390.299 104.794 392.23 97.3413 393.87 98.0643C395.51 98.7873 394.593 102.152 395.788 107.686C395.788 107.686 405.418 90.1113 408.059 90.5979C410.699 91.0845 410.227 93.1145 409.449 94.3798C409.449 94.3798 412.339 91.9188 413.298 93.6012C413.571 94.1225 413.713 94.7021 413.713 95.2905C413.713 95.8789 413.571 96.4585 413.298 96.9798C413.298 96.9798 415.341 94.6857 416.077 96.2568C416.24 96.8467 416.27 97.4652 416.167 98.0683C416.064 98.6714 415.829 99.2444 415.48 99.7467C415.48 99.7467 417.884 97.4525 418.12 99.4964C418.356 101.54 399.721 141.611 399.721 141.611" fill="white"/>
<path d="M399.804 142.334C399.703 142.354 399.599 142.354 399.498 142.334C399.325 142.253 399.191 142.106 399.126 141.927C399.061 141.747 399.07 141.548 399.151 141.375C406.474 125.65 417.397 101.554 417.481 99.6633C417.497 99.5948 417.497 99.5233 417.481 99.4548C416.965 99.6799 416.495 99.9954 416.091 100.386C415.959 100.504 415.788 100.568 415.611 100.568C415.435 100.568 415.264 100.504 415.132 100.386C414.997 100.273 414.91 100.113 414.887 99.9378C414.864 99.763 414.907 99.5858 415.007 99.4409C415.296 99.0455 415.494 98.5915 415.588 98.1109C415.681 97.6303 415.668 97.135 415.549 96.6601C415.535 96.6068 415.506 96.5586 415.466 96.521C414.875 96.7083 414.353 97.0663 413.965 97.5499C413.849 97.6825 413.688 97.7672 413.514 97.7878C413.339 97.8083 413.163 97.7632 413.02 97.6612C412.874 97.5573 412.772 97.4031 412.734 97.2285C412.695 97.0539 412.723 96.8712 412.811 96.7157C413.024 96.3056 413.136 95.8501 413.136 95.3879C413.136 94.9256 413.024 94.4702 412.811 94.0601C412.784 94.0025 412.743 93.9523 412.692 93.9137C412.641 93.875 412.582 93.8489 412.519 93.8376C411.594 93.9717 410.732 94.3838 410.046 95.0194C409.919 95.1309 409.756 95.1923 409.587 95.1923C409.418 95.1923 409.255 95.1309 409.129 95.0194C409 94.9115 408.914 94.7623 408.883 94.5975C408.853 94.4326 408.881 94.2623 408.962 94.1157C409.165 93.8339 409.303 93.5112 409.368 93.1701C409.433 92.829 409.422 92.4778 409.337 92.1413C409.17 91.7659 408.726 91.5156 408.017 91.3905C406.544 91.3905 400.888 100.108 396.51 108.075C396.442 108.206 396.333 108.311 396.201 108.376C396.068 108.441 395.919 108.462 395.774 108.437C395.63 108.415 395.495 108.35 395.389 108.251C395.282 108.152 395.208 108.023 395.176 107.881C394.773 105.943 394.526 103.976 394.439 101.999C394.314 100.094 394.217 98.9959 393.675 98.7596C392.911 99.0376 391.202 103.946 390.451 109.076C389.881 112.955 392.897 120.199 392.925 120.199C392.987 120.365 392.987 120.548 392.925 120.714L387.825 135.118C387.793 135.207 387.745 135.29 387.682 135.36C387.619 135.43 387.542 135.487 387.457 135.527C387.371 135.567 387.279 135.59 387.184 135.594C387.09 135.597 386.996 135.582 386.907 135.549C386.819 135.52 386.737 135.473 386.667 135.411C386.597 135.349 386.54 135.273 386.5 135.189C386.46 135.105 386.437 135.013 386.433 134.92C386.429 134.826 386.444 134.733 386.477 134.646L391.438 120.464C390.868 119.073 388.394 112.705 388.964 108.826C389.339 106.254 390.882 98.6483 392.966 97.4804C393.145 97.3721 393.346 97.308 393.554 97.2935C393.762 97.279 393.97 97.3145 394.162 97.397C395.551 97.9949 395.648 99.6216 395.801 101.86C395.871 102.917 395.94 104.168 396.149 105.586C399.498 99.6077 405.613 89.4579 408.197 89.8889C408.69 89.9355 409.164 90.1017 409.578 90.3731C409.992 90.6444 410.334 91.0128 410.574 91.4461C410.756 91.8368 410.832 92.2681 410.796 92.6975C411.381 92.3919 412.044 92.2661 412.7 92.336C412.97 92.3825 413.227 92.4891 413.45 92.6479C413.674 92.8068 413.859 93.0137 413.992 93.2536C414.327 93.8481 414.504 94.5181 414.507 95.2002C414.848 95.0354 415.228 94.968 415.604 95.0055C415.865 95.0521 416.109 95.163 416.315 95.3281C416.521 95.4932 416.683 95.7073 416.786 95.951C417.059 96.6007 417.131 97.3174 416.994 98.0088C417.302 97.9108 417.632 97.9108 417.939 98.0088C418.218 98.1181 418.458 98.3094 418.627 98.5576C418.795 98.8057 418.885 99.0991 418.884 99.3992C419.134 101.485 404.82 132.463 400.429 141.903C400.375 142.026 400.288 142.132 400.178 142.208C400.067 142.284 399.938 142.328 399.804 142.334Z" fill="#231F20"/>
<path d="M294.187 191.165C294.187 191.165 281.68 213.244 280.471 222.935H365.464C365.464 222.935 357.932 204.958 353.652 192.75L294.187 191.165Z" fill="#231F20"/>
<path d="M365.464 223.617H280.471C280.375 223.616 280.279 223.597 280.191 223.558C280.103 223.52 280.023 223.464 279.957 223.394C279.891 223.321 279.842 223.235 279.811 223.142C279.779 223.048 279.768 222.95 279.776 222.852C280.971 213.119 293.075 191.721 293.59 190.873C293.645 190.76 293.733 190.667 293.842 190.605C293.951 190.543 294.076 190.515 294.201 190.525L353.666 192.11C353.808 192.116 353.944 192.164 354.058 192.249C354.172 192.333 354.258 192.449 354.305 192.583C358.474 204.624 366.034 222.532 366.104 222.713C366.148 222.819 366.165 222.934 366.153 223.049C366.141 223.163 366.1 223.272 366.034 223.366C365.967 223.451 365.88 223.518 365.78 223.562C365.681 223.606 365.573 223.624 365.464 223.617ZM281.277 222.226H364.422C362.838 218.389 356.848 203.859 353.152 193.417L294.59 191.846C293.006 194.683 282.833 213.147 281.277 222.24V222.226Z" fill="#231F20"/>
<path d="M224.59 154.584C224.383 154.567 224.179 154.53 223.979 154.472C220.658 153.638 216.433 148.758 213.89 146.519C207.558 141.109 202.048 134.805 197.533 127.805C196.838 126.885 196.388 125.804 196.227 124.662C196.251 123.683 196.524 122.727 197.019 121.882C199.02 118.058 202.828 113.539 207.261 115.569C208.901 116.32 219.268 124.885 219.268 126.373C218.942 123.747 218.914 121.093 219.185 118.461C219.608 118.258 220.085 118.195 220.547 118.28C221.009 118.365 221.432 118.594 221.756 118.934C222.385 119.627 222.859 120.447 223.145 121.339C223.951 123.369 234.263 149.648 235.124 149.147C232.178 150.941 228.343 155.029 224.59 154.584Z" fill="white"/>
<path d="M225.23 155.335C225.013 155.348 224.795 155.348 224.577 155.335C224.343 155.306 224.111 155.265 223.882 155.209C221.172 154.528 218.06 151.511 215.544 149.078C214.766 148.327 214.057 147.687 213.46 147.104C207.07 141.653 201.513 135.297 196.964 128.236C196.211 127.205 195.733 125.999 195.574 124.732C195.58 123.621 195.882 122.531 196.45 121.576C197.603 119.351 201.828 112.302 207.567 114.93C211.425 117.577 215.026 120.579 218.324 123.898C218.233 122.043 218.284 120.184 218.476 118.336C218.491 118.226 218.529 118.12 218.589 118.026C218.649 117.932 218.729 117.853 218.824 117.794C219.381 117.515 220.012 117.421 220.626 117.523C221.24 117.625 221.806 117.92 222.243 118.364C222.95 119.13 223.481 120.041 223.799 121.034L224.091 121.771C232.818 143.933 234.903 147.757 235.375 148.383C235.498 148.433 235.604 148.516 235.682 148.623C235.761 148.73 235.808 148.856 235.819 148.988C235.831 149.12 235.806 149.253 235.747 149.372C235.688 149.491 235.598 149.591 235.486 149.662C234.736 150.135 233.93 150.76 233.068 151.414C230.678 153.263 228.01 155.335 225.23 155.335ZM205.108 115.764C201.397 115.764 198.59 120.533 197.728 122.188C197.292 122.926 197.048 123.763 197.02 124.621C197.18 125.63 197.586 126.585 198.201 127.402C202.681 134.337 208.144 140.585 214.419 145.949C215.058 146.506 215.808 147.215 216.559 147.979C218.935 150.287 221.895 153.166 224.23 153.75C224.398 153.797 224.57 153.829 224.744 153.847C227.231 154.139 229.9 152.081 232.262 150.26C232.901 149.773 233.513 149.3 234.11 148.869C233.013 147.117 230.372 141.403 222.826 122.271L222.534 121.534C222.288 120.738 221.876 120.004 221.325 119.379C221.145 119.2 220.926 119.063 220.686 118.978C220.445 118.894 220.189 118.865 219.936 118.892C219.709 121.332 219.746 123.789 220.047 126.22V126.414C220.026 126.578 219.948 126.729 219.827 126.842C219.707 126.954 219.551 127.021 219.386 127.031C219.222 127.041 219.059 126.993 218.926 126.896C218.793 126.798 218.698 126.658 218.657 126.498C218.649 126.461 218.649 126.423 218.657 126.387C218.129 124.899 208.679 117.002 207.081 116.265C206.446 115.948 205.748 115.777 205.038 115.764H205.108Z" fill="#231F20"/>
<path d="M361.336 108.492C361.336 108.492 368.549 115.444 370.467 118.225C372.384 121.006 374.163 156.252 374.163 156.252L385.086 129.835L403.43 136.995C403.43 136.995 392.229 194.21 380.445 195.392C368.66 196.573 345.8 174.313 345.8 174.313L361.336 108.492Z" fill="#2945FF"/>
<path d="M307.792 102.778C307.792 102.778 286.669 106.949 281.513 113.358C276.357 119.768 291.991 177.97 292.297 194.001C292.297 194.001 328.763 200.369 353.652 192.792C353.652 192.792 362.296 162.106 364.547 144.462C366.799 126.817 363.908 111.412 361.337 108.534C358.766 105.656 348.913 103.737 348.913 103.737C348.913 103.737 312.614 103.709 307.792 102.778Z" fill="#2945FF"/>
<path d="M366.103 102.249C366.563 100.195 366.81 98.0979 366.839 95.9925C366.881 94.7349 366.688 93.4805 366.269 92.294C364.713 88.4287 359.529 86.7325 358.682 82.5613C357.973 79.127 359.265 76.1238 358.362 72.8286C357.459 69.5333 356.583 68.1708 356.972 64.3611C357.541 57.6263 356.444 50.855 353.776 44.6453C351.303 38.8057 347.787 36.1222 343.52 31.7008C342.514 30.7217 341.31 29.9681 339.99 29.4901C328.706 25.0547 316.366 28.5724 310.668 39.7234C307.499 45.9245 306.124 52.9738 302.455 58.8968C299.87 63.068 296.146 66.7247 295.159 71.5355C294.297 75.7067 295.868 79.8083 294.881 84.049C294.585 85.4841 294.035 86.8545 293.255 88.0951C292.353 89.3224 291.302 90.4338 290.128 91.4042C287.477 93.6328 285.14 96.2098 283.18 99.0652C282.551 100.056 282.016 101.104 281.582 102.194L366.103 102.249Z" fill="white"/>
<path d="M366.103 102.972H281.512C281.394 102.973 281.277 102.945 281.173 102.889C281.068 102.833 280.98 102.752 280.915 102.653C280.863 102.549 280.836 102.435 280.836 102.319C280.836 102.203 280.863 102.089 280.915 101.985C281.37 100.856 281.928 99.7719 282.582 98.7457C284.588 95.8339 286.971 93.2016 289.67 90.9178L289.822 90.7926C290.895 89.9013 291.856 88.8836 292.685 87.7616C293.417 86.5927 293.935 85.3026 294.214 83.9519C294.557 81.9012 294.585 79.81 294.297 77.7507C294.041 75.6512 294.084 73.5261 294.422 71.4384C295.131 67.9068 297.271 64.987 299.328 62.1506C300.176 60.9826 301.051 59.7869 301.802 58.5633C303.721 55.1997 305.295 51.6499 306.499 47.9686C307.486 45.0431 308.655 42.1825 310.001 39.4038C315.56 28.3919 328.067 24.0399 340.213 28.8368C341.636 29.3422 342.931 30.1538 344.007 31.2144C344.826 32.0625 345.619 32.855 346.383 33.6058C349.579 36.7898 352.359 39.5428 354.415 44.3814C357.125 50.7015 358.237 57.5923 357.653 64.4447C357.438 66.552 357.719 68.6805 358.473 70.6598C358.668 71.2715 358.876 71.9111 359.071 72.648C359.464 74.3809 359.544 76.1703 359.307 77.9315C359.124 79.4393 359.157 80.9656 359.404 82.4642C359.807 84.4246 361.378 85.8289 363.059 87.3166C364.701 88.5676 366.033 90.1805 366.95 92.0301C367.4 93.301 367.608 94.6452 367.562 95.9927C367.54 98.1491 367.293 100.297 366.825 102.402C366.79 102.567 366.698 102.713 366.566 102.817C366.434 102.921 366.27 102.976 366.103 102.972ZM282.61 101.582H365.588C365.974 99.753 366.174 97.8897 366.186 96.0205C366.23 94.8537 366.055 93.689 365.672 92.5862C364.834 90.9452 363.631 89.5183 362.156 88.415C360.391 86.83 358.557 85.2032 357.987 82.784C357.711 81.1576 357.669 79.5003 357.862 77.862C358.08 76.26 358.019 74.6323 357.681 73.0512C357.487 72.3421 357.278 71.6608 357.097 71.1186C356.279 68.9613 355.975 66.6429 356.208 64.3474C356.777 57.7186 355.703 51.0519 353.081 44.9375C351.136 40.3631 348.579 37.8326 345.355 34.6347C344.59 33.87 343.784 33.0775 342.964 32.2154C342.031 31.3051 340.913 30.6078 339.685 30.1716C328.22 25.6667 316.532 29.7266 311.265 40.0572C309.957 42.7656 308.815 45.5516 307.847 48.3996C306.621 52.1817 305.015 55.8294 303.052 59.2864C302.274 60.5377 301.385 61.7612 300.523 62.9431C298.452 65.7239 296.507 68.5046 295.854 71.6886C295.543 73.6439 295.51 75.6333 295.756 77.5978C296.037 79.8191 295.971 82.0705 295.562 84.2717C295.253 85.7923 294.669 87.2437 293.839 88.5541C292.942 89.7772 291.901 90.8882 290.74 91.8632L290.587 91.9884C287.988 94.1852 285.689 96.7142 283.749 99.5104C283.321 100.158 282.94 100.837 282.61 101.54V101.582Z" fill="#231F20"/>
<path d="M339.185 99.6077C339.185 99.6077 341.964 140.277 327.79 137.551C308.862 133.519 317.464 104.947 317.464 104.947L317.784 99.6077L318.493 87.1915L319.173 75.5817L339.074 75.3592L339.838 84.8417L340.074 87.9145L339.185 99.6077Z" fill="white"/>
<path d="M329.082 138.4C328.588 138.395 328.094 138.344 327.609 138.247C325.545 137.876 323.586 137.063 321.866 135.863C320.146 134.663 318.706 133.104 317.645 131.295C311.961 121.673 316.255 106.268 316.714 104.877L318.423 75.5956C318.434 75.4148 318.513 75.245 318.645 75.1209C318.777 74.9968 318.951 74.9279 319.132 74.9282L339.032 74.7057C339.213 74.7049 339.387 74.7714 339.52 74.8923C339.654 75.0132 339.738 75.1797 339.755 75.3592L340.756 87.8727L339.852 99.6215C339.977 101.443 341.742 129.39 333.585 136.648C332.356 137.775 330.749 138.4 329.082 138.4ZM319.813 76.3603L318.145 105.058C318.152 105.113 318.152 105.169 318.145 105.225C318.145 105.392 313.393 121.326 318.91 130.655C319.874 132.286 321.18 133.689 322.736 134.769C324.293 135.849 326.064 136.58 327.929 136.912C328.761 137.1 329.626 137.081 330.45 136.858C331.273 136.635 332.03 136.215 332.654 135.633C340.394 128.764 338.477 100.011 338.449 99.7328V99.6215L339.352 87.9283L338.407 76.1517L319.813 76.3603Z" fill="#231F20"/>
<path d="M340.032 87.9145C338.484 90.6293 336.281 92.9139 333.626 94.5606C329.373 97.3413 323.37 99.7884 318.158 98.9403L318.506 87.1915C322.314 87.7126 326.176 87.7126 329.985 87.1915C333.383 87.0037 336.722 86.2225 339.852 84.8834L340.032 87.9145Z" fill="#231F20"/>
<path d="M320.215 99.8022C319.471 99.7996 318.727 99.7392 317.992 99.6215C317.826 99.5918 317.677 99.5042 317.57 99.3743C317.463 99.2444 317.406 99.0807 317.408 98.9124L317.77 87.1636C317.772 87.0668 317.795 86.9717 317.838 86.8852C317.882 86.7986 317.944 86.7227 318.02 86.6631C318.091 86.596 318.178 86.5471 318.272 86.5204C318.366 86.4938 318.466 86.4903 318.562 86.5101C322.305 87.0258 326.102 87.0258 329.846 86.5101C333.167 86.325 336.431 85.5628 339.49 84.2577C339.591 84.2029 339.703 84.1742 339.817 84.1742C339.931 84.1742 340.043 84.2029 340.144 84.2577C340.241 84.3133 340.323 84.3917 340.384 84.4861C340.444 84.5805 340.481 84.6882 340.491 84.7999L340.727 87.8727C340.743 88.0037 340.713 88.136 340.644 88.2481C339.038 91.0977 336.733 93.4905 333.946 95.2001C329.887 97.9843 325.131 99.5783 320.215 99.8022ZM318.826 98.4119C322.995 98.8707 328.276 97.2578 333.209 94.046C335.736 92.511 337.846 90.3763 339.351 87.831L339.185 85.8844C336.234 86.9621 333.146 87.6175 330.013 87.831C326.406 88.3353 322.751 88.3867 319.131 87.9839L318.826 98.4119Z" fill="#231F20"/>
<path d="M329.916 89.986H327.874C323.236 90.0342 318.768 88.2379 315.454 84.9919C312.139 81.7459 310.248 77.3159 310.197 72.6756C310.388 67.2976 310.894 61.9355 311.712 56.6166C311.712 56.6166 319.73 53.7524 326.109 51.3331C336.754 47.3149 339.616 41.6004 339.616 41.6004C339.95 45.4032 340.791 49.1442 342.118 52.7235C343.486 55.2875 345.072 57.7296 346.857 60.0231C346.857 60.0231 347.176 68.6435 347.204 72.2585C347.235 74.559 346.813 76.843 345.96 78.9798C345.108 81.1166 343.842 83.0642 342.237 84.7109C340.631 86.3576 338.716 87.6712 336.602 88.5764C334.488 89.4816 332.216 89.9606 329.916 89.986Z" fill="white"/>
<path d="M327.678 90.723C322.875 90.7195 318.267 88.8184 314.858 85.4334C311.449 82.0484 309.513 77.4533 309.473 72.6479C309.664 67.2324 310.175 61.833 311.002 56.4776C311.016 56.3488 311.067 56.2267 311.148 56.1258C311.229 56.0248 311.337 55.9491 311.46 55.9076C311.544 55.9076 319.604 52.9738 325.857 50.6102C336.058 46.7588 338.948 41.2389 338.976 41.1833C339.016 41.002 339.125 40.8436 339.281 40.7422C339.436 40.6407 339.625 40.6043 339.807 40.6407C339.989 40.6771 340.15 40.7834 340.254 40.9369C340.358 41.0904 340.399 41.2787 340.366 41.4614C340.693 45.2011 341.516 48.8807 342.812 52.4038C344.144 54.9525 345.687 57.3849 347.425 59.6755C347.516 59.7964 347.57 59.9415 347.578 60.0926C347.578 60.1761 347.884 68.7687 347.926 72.342C347.949 74.7387 347.501 77.1167 346.606 79.34C345.711 81.5632 344.386 83.5882 342.708 85.2991C341.031 87.01 339.032 88.3733 336.828 89.3111C334.623 90.2489 332.255 90.7429 329.86 90.7647H327.622L327.678 90.723ZM312.391 57.1867C311.622 62.3224 311.158 67.4991 311.002 72.6896C311.056 77.09 312.833 81.2936 315.951 84.3976C319.069 87.5016 323.279 89.2584 327.678 89.2909H327.859H329.901C334.349 89.2395 338.594 87.4244 341.705 84.244C344.816 81.0636 346.539 76.7779 346.494 72.3281C346.494 69.1024 346.202 61.7333 346.147 60.3429C344.371 58.0615 342.799 55.6282 341.45 53.0712C340.312 50.0185 339.524 46.8467 339.101 43.6165C337.433 45.6882 333.709 49.2754 326.372 52.0562C320.91 54.114 314.073 56.561 312.35 57.1867H312.391Z" fill="#231F20"/>
<path d="M327.776 72.5227C327.015 72.5204 326.254 72.4786 325.497 72.3976C325.286 72.3724 325.083 72.2992 324.905 72.1835C324.727 72.0678 324.577 71.9127 324.468 71.7302C323.079 69.5473 326.164 60.9269 327.123 58.3269C327.194 58.1505 327.331 58.0087 327.504 57.9309C327.678 57.8532 327.875 57.8456 328.054 57.9097C328.229 57.9783 328.371 58.1125 328.449 58.2839C328.526 58.4553 328.534 58.6502 328.471 58.8274C326.331 64.6114 325.038 70.2981 325.691 70.9933C327.306 71.1412 328.933 71.1133 330.541 70.9099C330.702 70.9265 330.853 70.9964 330.969 71.1086C331.085 71.2208 331.161 71.3688 331.183 71.5288C331.205 71.6889 331.174 71.8519 331.093 71.9917C331.012 72.1316 330.886 72.2402 330.736 72.3003C329.755 72.4383 328.766 72.5126 327.776 72.5227Z" fill="#231F20"/>
<path d="M336.728 64.5748C337.395 64.5674 337.922 63.2294 337.904 61.5862C337.886 59.943 337.33 58.6169 336.662 58.6243C335.995 58.6316 335.468 59.9696 335.486 61.6128C335.504 63.256 336.06 64.5821 336.728 64.5748Z" fill="#231F20"/>
<path d="M320.785 64.194C321.452 64.1867 321.979 62.8487 321.961 61.2055C321.943 59.5623 321.387 58.2362 320.719 58.2435C320.052 58.2509 319.525 59.5889 319.543 61.2321C319.561 62.8753 320.117 64.2014 320.785 64.194Z" fill="#231F20"/>
<path d="M318.118 99.6075C314.338 97.5776 308.39 100.609 307.792 102.722C307.195 104.835 309.557 138.163 318.118 143.294C321.828 145.532 328.499 137.551 328.499 137.551C328.499 137.551 318.951 133.366 318.118 99.6075Z" fill="white"/>
<path d="M319.591 144.406C318.942 144.416 318.302 144.248 317.742 143.919C308.709 138.497 306.472 104.863 307.097 102.541C307.486 101.151 309.363 99.8441 310.988 99.1489C312.144 98.5759 313.411 98.2628 314.7 98.2316C315.989 98.2003 317.269 98.4517 318.451 98.9681C318.565 99.0274 318.661 99.1173 318.727 99.2277C318.794 99.3382 318.828 99.465 318.826 99.5938C319.632 132.226 328.707 136.856 328.79 136.898C328.891 136.942 328.979 137.009 329.049 137.094C329.119 137.178 329.168 137.278 329.193 137.385C329.217 137.493 329.217 137.605 329.193 137.713C329.169 137.821 329.121 137.922 329.054 138.01C328.429 138.747 323.565 144.406 319.591 144.406ZM315.213 99.6633C313.953 99.6807 312.709 99.9551 311.558 100.47C310.265 100.874 309.17 101.747 308.487 102.917C308.251 103.793 308.626 112.413 310.238 121.798C312.211 133.255 315.144 140.68 318.479 142.654C320.841 144.045 325.427 139.873 327.415 137.677C325.024 135.855 318.173 128.194 317.409 100.039C316.71 99.7666 315.963 99.6389 315.213 99.6633Z" fill="#231F20"/>
<path d="M339.186 99.6075C342.952 97.5776 348.913 100.609 349.497 102.722C350.081 104.835 347.732 138.163 339.186 143.294C335.475 145.532 328.805 137.551 328.805 137.551C328.805 137.551 338.31 133.366 339.186 99.6075Z" fill="white"/>
<path d="M337.657 144.406C333.696 144.406 328.832 138.747 328.207 138.01C328.138 137.923 328.089 137.822 328.063 137.714C328.037 137.606 328.034 137.494 328.054 137.385C328.08 137.276 328.131 137.175 328.203 137.09C328.276 137.006 328.368 136.94 328.471 136.898C328.554 136.898 337.615 132.226 338.421 99.5938C338.425 99.4662 338.462 99.3418 338.528 99.2323C338.593 99.1228 338.686 99.0319 338.796 98.9681C339.978 98.4517 341.259 98.2003 342.548 98.2316C343.837 98.2628 345.104 98.5759 346.259 99.1489C347.885 99.8441 349.761 101.109 350.15 102.541C350.79 104.863 348.552 138.497 339.505 143.919C338.947 144.251 338.306 144.42 337.657 144.406ZM329.847 137.704C331.931 140.012 336.392 144.114 338.769 142.682C342.118 140.68 345.05 133.255 347.01 121.826C348.18 115.6 348.77 109.28 348.774 102.945C348.079 101.78 346.982 100.909 345.689 100.498C343.869 99.5932 341.765 99.4482 339.839 100.094C339.074 128.222 332.237 135.883 329.847 137.704Z" fill="#231F20"/>
<path d="M319.132 75.5817L339.033 75.3592C339.033 75.3592 336.003 85.8706 328.388 84.8417C320.772 83.8128 319.132 75.5817 319.132 75.5817Z" fill="white"/>
<path d="M329.457 85.6342C329.071 85.6336 328.686 85.6057 328.304 85.5508C320.271 84.4663 318.451 75.818 318.437 75.7207C318.416 75.6178 318.419 75.5117 318.444 75.4099C318.47 75.3081 318.517 75.2133 318.584 75.1322C318.65 75.051 318.734 74.9857 318.829 74.9408C318.923 74.8959 319.027 74.8726 319.132 74.8726L339.032 74.6501C339.143 74.6455 339.253 74.6686 339.352 74.7171C339.452 74.7656 339.537 74.8382 339.602 74.9282C339.669 75.0185 339.716 75.123 339.737 75.2337C339.759 75.3444 339.756 75.4586 339.727 75.5678C339.602 75.9988 336.725 85.6342 329.457 85.6342ZM320.063 76.3603C320.702 78.4042 322.842 83.4374 328.484 84.2021C334.126 84.9668 337.1 78.6405 338.032 76.1656L320.063 76.3603Z" fill="#231F20"/>
<path d="M281.513 113.303L255.845 155.015L230.65 140.402L215.669 149.592C215.669 149.592 251.898 197.964 269.645 189.774C277.885 185.979 304.276 145.379 304.276 145.379L281.513 113.303Z" fill="#2945FF"/>
<path d="M355.139 188.009H354.931C354.841 187.982 354.758 187.937 354.685 187.878C354.613 187.818 354.553 187.745 354.509 187.662C354.465 187.58 354.438 187.489 354.429 187.396C354.421 187.302 354.431 187.208 354.458 187.119C354.611 186.59 370.218 133.992 363.033 114.971C362.967 114.787 362.976 114.584 363.06 114.407C363.143 114.229 363.293 114.092 363.478 114.026C363.662 113.96 363.865 113.969 364.042 114.053C364.219 114.136 364.356 114.287 364.423 114.471C371.788 133.936 356.543 185.381 355.89 187.522C355.837 187.676 355.735 187.807 355.599 187.895C355.463 187.984 355.301 188.024 355.139 188.009Z" fill="#231F20"/>
<path d="M291.936 190.497C291.761 190.499 291.593 190.436 291.462 190.32C291.331 190.205 291.247 190.045 291.227 189.872C291.157 189.413 284.779 143.057 282.639 132.616C282.605 132.43 282.644 132.238 282.747 132.081C282.851 131.923 283.011 131.811 283.194 131.767C283.38 131.73 283.574 131.768 283.732 131.872C283.891 131.976 284.002 132.138 284.042 132.324C286.196 142.821 292.575 189.218 292.644 189.677C292.668 189.865 292.618 190.055 292.503 190.205C292.389 190.356 292.22 190.456 292.033 190.484L291.936 190.497Z" fill="#231F20"/>
<path d="M368.897 169.767C368.805 169.786 368.71 169.786 368.619 169.767C368.445 169.693 368.308 169.554 368.235 169.38C368.162 169.206 368.16 169.011 368.23 168.835L383.336 132.254C383.409 132.08 383.548 131.943 383.722 131.87C383.896 131.797 384.091 131.795 384.267 131.865C384.354 131.9 384.433 131.952 384.5 132.018C384.567 132.084 384.62 132.162 384.656 132.249C384.692 132.336 384.711 132.429 384.711 132.523C384.711 132.617 384.692 132.71 384.656 132.796L369.564 169.377C369.5 169.498 369.403 169.598 369.285 169.667C369.168 169.735 369.033 169.77 368.897 169.767Z" fill="#231F20"/>
<path d="M403.43 115.416C403.286 115.413 403.146 115.368 403.028 115.287C402.909 115.205 402.817 115.091 402.763 114.958C401.012 110.536 395.62 108.381 395.578 108.353C395.487 108.319 395.403 108.268 395.332 108.202C395.26 108.136 395.203 108.056 395.162 107.968C395.121 107.879 395.099 107.784 395.095 107.686C395.091 107.589 395.107 107.492 395.14 107.401C395.174 107.309 395.226 107.226 395.292 107.154C395.358 107.083 395.437 107.025 395.526 106.984C395.614 106.944 395.71 106.921 395.807 106.917C395.904 106.914 396.001 106.929 396.092 106.963C396.342 107.06 402.11 109.368 404.097 114.374C404.135 114.461 404.154 114.555 404.155 114.65C404.155 114.745 404.135 114.839 404.097 114.927C404.06 115.014 404.004 115.093 403.935 115.158C403.865 115.223 403.783 115.273 403.694 115.305C403.617 115.364 403.526 115.402 403.43 115.416Z" fill="#231F20"/>
<path d="M403.43 105.628C403.32 105.627 403.211 105.603 403.11 105.558C402.947 105.46 402.829 105.301 402.782 105.116C402.735 104.932 402.763 104.736 402.86 104.571L408.961 94.0321C409.062 93.8714 409.22 93.7556 409.404 93.709C409.588 93.6624 409.783 93.6885 409.948 93.7819C410.11 93.8777 410.228 94.0331 410.277 94.2148C410.327 94.3966 410.303 94.5905 410.212 94.7551L404.097 105.294C404.026 105.404 403.926 105.493 403.809 105.552C403.692 105.611 403.561 105.637 403.43 105.628Z" fill="#231F20"/>
<path d="M408.67 107.241C408.569 107.26 408.465 107.26 408.364 107.241C408.278 107.199 408.201 107.141 408.137 107.07C408.074 106.998 408.025 106.915 407.994 106.824C407.963 106.733 407.95 106.638 407.957 106.542C407.963 106.447 407.988 106.353 408.031 106.268L412.728 96.7295C412.811 96.5599 412.958 96.4302 413.136 96.3689C413.315 96.3076 413.51 96.3198 413.68 96.4028C413.849 96.4858 413.979 96.6327 414.04 96.8113C414.101 96.9899 414.089 97.1856 414.006 97.3552L409.323 106.907C409.253 107.015 409.156 107.103 409.041 107.161C408.926 107.22 408.798 107.247 408.67 107.241Z" fill="#231F20"/>
<path d="M411.046 110.689C410.949 110.709 410.85 110.709 410.754 110.689C410.667 110.651 410.589 110.597 410.524 110.529C410.459 110.461 410.408 110.38 410.375 110.292C410.341 110.204 410.325 110.11 410.328 110.016C410.331 109.922 410.353 109.829 410.392 109.744L414.895 99.5104C414.974 99.3384 415.117 99.2041 415.294 99.1366C415.471 99.069 415.667 99.0734 415.84 99.1489C416.015 99.2252 416.152 99.3674 416.222 99.5444C416.292 99.7214 416.29 99.9191 416.215 100.094L411.699 110.314C411.638 110.432 411.543 110.531 411.428 110.598C411.312 110.664 411.179 110.696 411.046 110.689Z" fill="#231F20"/>
<path d="M217.074 138.997C216.933 138.995 216.796 138.954 216.678 138.877C216.56 138.801 216.466 138.693 216.406 138.566C212.626 129.835 218.824 125.775 218.88 125.733C219.041 125.634 219.234 125.601 219.419 125.643C219.603 125.684 219.764 125.797 219.867 125.956C219.918 126.034 219.954 126.122 219.972 126.214C219.989 126.306 219.988 126.401 219.969 126.493C219.949 126.585 219.912 126.672 219.859 126.749C219.805 126.826 219.737 126.892 219.658 126.943C219.422 127.096 214.447 130.433 217.727 137.982C217.801 138.158 217.804 138.355 217.733 138.532C217.663 138.709 217.526 138.852 217.351 138.928C217.265 138.972 217.17 138.996 217.074 138.997Z" fill="#231F20"/>
<path d="M55.5355 335.654C55.5355 335.654 53.979 343.274 56.3832 344.956C58.7874 346.638 79.5216 339.617 78.924 337.253C78.3264 334.89 66.5697 333.68 66.5697 333.68C66.5697 333.68 57.3282 336.363 55.5355 335.654Z" fill="#2945FF"/>
<path d="M57.7035 345.874C57.108 345.919 56.5117 345.799 55.9803 345.526C53.2843 343.635 54.6879 336.336 54.8546 335.515C54.8732 335.412 54.9155 335.314 54.9782 335.23C55.0409 335.145 55.1223 335.076 55.216 335.029C55.3093 334.984 55.4114 334.961 55.5147 334.961C55.6181 334.961 55.7202 334.984 55.8135 335.029C56.7724 335.446 61.9421 334.334 66.3752 333.027C66.462 333.006 66.5524 333.006 66.6392 333.027C69.5159 333.319 78.938 334.486 79.605 337.114C79.8274 338.018 78.9102 338.755 78.2153 339.242C74.5604 341.73 62.5396 345.874 57.7035 345.874ZM56.0915 336.447C55.6051 339.228 55.4244 343.399 56.7863 344.386C57.3561 344.789 61.1082 344.386 67.6398 342.273C74.1713 340.159 78.0069 338.004 78.257 337.309C77.993 336.391 72.6983 335.015 66.6392 334.389C64.9994 334.862 58.7875 336.628 56.0915 336.447Z" fill="#231F20"/>
<path d="M25.4481 335.654C25.4481 335.654 25.1979 344.469 26.1568 345.554C27.1157 346.638 48.3919 344.358 47.3913 341.48C46.3907 338.602 37.7885 335.654 37.7885 335.654H25.4481Z" fill="#2945FF"/>
<path d="M28.6304 346.499C27.6083 346.636 26.5687 346.466 25.6426 346.013C24.6142 344.859 24.6837 338.366 24.7532 335.626C24.7604 335.447 24.8368 335.277 24.9663 335.153C25.0958 335.028 25.2685 334.959 25.4481 334.959H37.7885H38.0248C38.9281 335.279 46.8771 338.101 48.0444 341.202C48.1973 341.619 48.2668 342.439 46.9883 343.218C44.3062 344.859 33.8974 346.499 28.6304 346.499ZM26.6432 345.026C28.3386 345.526 41.0682 344.33 45.5569 342.412C46.613 341.953 46.7381 341.661 46.7381 341.661C46.0433 339.867 40.8597 337.49 37.6773 336.349H26.129C26.0595 340.076 26.2263 344.191 26.6432 345.026Z" fill="#231F20"/>
<path d="M24.4897 306.567L25.4485 335.654C25.4485 335.654 34.551 339.241 37.789 335.654L40.3182 303.675L24.4897 306.567Z" fill="white"/>
<path d="M33.134 337.934C30.4211 337.847 27.7407 337.316 25.1989 336.363C25.0715 336.314 24.9615 336.229 24.8824 336.118C24.8033 336.006 24.7587 335.874 24.7542 335.738L23.7258 306.581C23.7232 306.413 23.7804 306.249 23.8874 306.119C23.9943 305.989 24.1439 305.902 24.3095 305.872L40.1937 302.994C40.2972 302.979 40.4028 302.986 40.5035 303.014C40.6041 303.043 40.6975 303.093 40.7773 303.161C40.8581 303.23 40.9206 303.319 40.9593 303.418C40.9981 303.518 41.0119 303.625 40.9997 303.731L38.4843 335.71C38.4735 335.863 38.4152 336.009 38.3176 336.127C37.6277 336.774 36.81 337.269 35.9172 337.58C35.0244 337.891 34.0763 338.012 33.134 337.934ZM26.1856 335.154C28.826 336.099 34.8017 337.615 37.178 335.334L39.61 304.509L25.1989 307.165L26.1856 335.154Z" fill="#231F20"/>
<path d="M66.5696 302.48V333.68C64.989 334.801 63.1805 335.56 61.2731 335.901C59.3657 336.243 57.4065 336.158 55.5354 335.654L48.6842 298.114L66.5696 302.48Z" fill="white"/>
<path d="M58.9815 336.808C57.7562 336.808 56.5365 336.644 55.3544 336.322C55.2277 336.289 55.1132 336.22 55.0245 336.124C54.9358 336.028 54.8766 335.908 54.8541 335.779L48.0029 298.239C47.9844 298.125 47.9937 298.009 48.03 297.9C48.0663 297.791 48.1285 297.693 48.2114 297.613C48.295 297.533 48.3976 297.476 48.5094 297.447C48.6212 297.418 48.7387 297.418 48.8506 297.446L66.8054 301.812C66.9573 301.844 67.0932 301.929 67.1896 302.051C67.286 302.172 67.3369 302.324 67.3335 302.48V333.68C67.3319 333.783 67.3089 333.884 67.2658 333.978C67.2227 334.071 67.1606 334.154 67.0834 334.222C64.7192 335.91 61.8858 336.814 58.9815 336.808ZM56.1326 335.084C57.7893 335.462 59.5052 335.5 61.177 335.197C62.8488 334.893 64.4419 334.254 65.8604 333.318V302.994L49.5455 299.045L56.1326 335.084Z" fill="#231F20"/>
<path d="M19.7651 225.452L17.5694 311.239C17.5694 311.239 52.0615 320.972 74.3661 306.567L58.468 233.85L19.7651 225.452Z" fill="#231F20"/>
<path d="M42.861 315.09C34.2679 315.064 25.7098 313.995 17.374 311.906C17.2249 311.868 17.0935 311.779 17.0023 311.655C16.9111 311.531 16.8657 311.379 16.8738 311.225L19.0695 225.438C19.0689 225.335 19.0925 225.234 19.1384 225.142C19.1843 225.05 19.2511 224.971 19.3335 224.91C19.4131 224.847 19.5051 224.802 19.6033 224.778C19.7016 224.754 19.8039 224.752 19.9033 224.771L58.6479 233.113C58.7778 233.14 58.897 233.204 58.9908 233.298C59.0846 233.392 59.149 233.511 59.176 233.641L75.0462 306.359C75.0771 306.498 75.0643 306.644 75.0096 306.775C74.9549 306.907 74.8609 307.019 74.7405 307.096C65.1655 313.325 53.3115 315.09 42.861 315.09ZM18.2773 310.711C22.6271 311.823 53.2837 318.984 73.5871 306.234L57.9113 234.434L20.3897 226.314L18.2773 310.711Z" fill="#231F20"/>
<path d="M61.5392 209.407C61.5392 209.407 67.4732 187.911 70.3498 185.867C73.2265 183.824 78.813 181.307 78.813 184.185C78.813 187.063 74.644 210.116 68.1958 209.393C61.7476 208.67 61.5392 209.407 61.5392 209.407Z" fill="white"/>
<path d="M68.5011 210.102H68.112C63.4565 209.588 62.2614 209.852 62.0251 209.935C61.9387 210.02 61.8314 210.08 61.7142 210.109C61.597 210.138 61.4741 210.136 61.3581 210.102C61.1822 210.056 61.0313 209.943 60.9378 209.787C60.8442 209.631 60.8155 209.445 60.8578 209.268V209.143C61.5943 206.487 66.9585 187.425 69.9047 185.325C71.4472 184.227 76.3251 181.363 78.493 182.544C78.8051 182.71 79.063 182.962 79.2355 183.27C79.4081 183.578 79.488 183.93 79.4657 184.282C79.4657 186.896 76.3945 204.387 71.2388 208.99C70.4926 209.682 69.5188 210.078 68.5011 210.102ZM63.665 208.447C65.203 208.469 66.7387 208.575 68.2648 208.767C68.6519 208.787 69.0387 208.723 69.3985 208.579C69.7584 208.435 70.0828 208.214 70.3494 207.933C74.8937 203.873 78.1177 187.077 78.1177 184.296C78.1177 183.907 77.9788 183.824 77.8954 183.796C76.9226 183.281 73.4484 184.63 70.7524 186.577C68.8902 187.967 64.874 200.286 62.5393 208.559C62.845 208.484 63.2203 208.447 63.665 208.447Z" fill="#231F20"/>
<path d="M92.6538 204.276C92.1118 204.276 69.029 200.689 69.029 200.689L82.0921 167.125L107.635 169.697L92.6538 204.276Z" fill="white"/>
<path d="M92.6537 205.027C92.1118 205.027 74.2959 202.246 68.8483 201.426C68.7453 201.411 68.6468 201.374 68.5602 201.316C68.4736 201.258 68.4011 201.182 68.348 201.092C68.3068 200.995 68.2855 200.891 68.2855 200.786C68.2855 200.681 68.3068 200.577 68.348 200.48L81.4389 166.861C81.4916 166.717 81.5922 166.595 81.7238 166.517C81.8554 166.438 82.01 166.408 82.1616 166.43L107.704 169.002C107.813 169.016 107.917 169.055 108.008 169.115C108.1 169.175 108.176 169.255 108.232 169.35C108.283 169.446 108.31 169.553 108.31 169.662C108.31 169.771 108.283 169.879 108.232 169.975L93.3069 204.61C93.2502 204.735 93.1583 204.842 93.0423 204.916C92.9264 204.99 92.7913 205.028 92.6537 205.027ZM69.9184 200.188C78.2565 201.468 89.7354 203.247 92.2229 203.581L106.578 170.295L82.4951 167.862L69.9184 200.188Z" fill="#231F20"/>
<path d="M15.7622 148.897C13.4755 148.933 11.2202 149.435 9.13335 150.371C5.50625 151.886 1.97644 154.542 0.975862 158.31C0.183738 161.397 1.19821 164.664 2.56011 167.542C3.92201 170.42 5.61743 173.215 6.31228 176.329C7.00712 179.444 6.39566 183.115 3.86642 185.047C7.21923 183.96 10.3732 182.336 13.2051 180.237C14.884 179.009 16.036 177.191 16.4292 175.148C16.5084 173.455 16.1846 171.768 15.4842 170.226C14.4623 167.924 13.8418 165.465 13.6498 162.954C13.5673 161.695 13.829 160.437 14.4067 159.315C14.9845 158.193 15.8566 157.25 16.9295 156.586C18.8751 155.571 25.0731 156.002 24.281 152.415C23.7251 149.704 17.9718 148.939 15.7622 148.897Z" fill="white"/>
<path d="M3.86646 185.742C3.74285 185.744 3.62102 185.713 3.51353 185.652C3.40605 185.591 3.3168 185.502 3.255 185.395C3.17532 185.247 3.14976 185.075 3.18274 184.91C3.21572 184.745 3.30516 184.597 3.43566 184.491C5.93711 182.586 6.21504 178.929 5.63137 176.468C5.03106 174.238 4.15824 172.09 3.03265 170.073C2.65743 169.336 2.28222 168.599 1.9209 167.848C0.100404 163.969 -0.399885 160.896 0.308858 158.115C1.53179 153.402 6.20115 150.83 8.86936 149.773C11.0556 148.79 13.4211 148.269 15.8178 148.244C18.1247 148.244 24.281 149.078 25.0176 152.415C25.1119 152.78 25.131 153.161 25.0737 153.534C25.0164 153.906 24.8838 154.264 24.684 154.584C23.7668 155.974 21.585 156.363 19.6673 156.711C18.859 156.809 18.0656 157.005 17.3048 157.295C16.3514 157.905 15.5791 158.759 15.0682 159.769C14.5573 160.779 14.3267 161.908 14.4003 163.037C14.5799 165.363 15.1483 167.643 16.0819 169.781L16.193 170.073C16.9358 171.721 17.2741 173.523 17.1797 175.328C16.769 177.556 15.527 179.544 13.7055 180.89C10.8117 183.031 7.5929 184.693 4.1722 185.812C4.06668 185.809 3.96273 185.786 3.86646 185.742ZM15.5955 149.592C13.4581 149.643 11.3518 150.115 9.39744 150.983C6.96548 151.998 2.72692 154.32 1.65685 158.449C1.03149 160.868 1.51789 163.649 3.18552 167.222C3.53294 167.959 3.89426 168.696 4.26948 169.419C5.47468 171.537 6.40849 173.798 7.04886 176.149C7.6262 178.575 7.34121 181.126 6.24284 183.365C8.61288 182.479 10.8341 181.236 12.83 179.68C14.327 178.55 15.3638 176.915 15.7483 175.078C15.813 173.493 15.4985 171.915 14.8311 170.476L14.72 170.17C13.722 167.889 13.1249 165.452 12.955 162.968C12.8789 161.587 13.1785 160.211 13.8222 158.986C14.4658 157.762 15.4292 156.736 16.6099 156.016C17.4997 155.651 18.4346 155.408 19.3893 155.293C20.9458 155.015 22.8913 154.653 23.475 153.763C23.5787 153.605 23.6451 153.425 23.6691 153.237C23.6932 153.049 23.6744 152.858 23.614 152.679C23.1276 150.482 18.0552 149.69 15.7622 149.648H15.6094L15.5955 149.592Z" fill="#231F20"/>
<path d="M18.4862 149.829C17.6662 151.092 17.2987 152.597 17.444 154.097C17.4675 155.092 17.7815 156.059 18.3473 156.878C18.7218 157.362 19.205 157.752 19.7579 158.015C20.3107 158.279 20.9176 158.408 21.5297 158.393C22.0751 158.418 22.6086 158.228 23.0166 157.865C23.326 157.532 23.5334 157.117 23.6142 156.669C24.448 153.527 22.6831 143.947 18.4862 149.829Z" fill="#231F20"/>
<path d="M21.4317 159.047C20.7342 159.053 20.0444 158.901 19.4139 158.602C18.7834 158.303 18.2285 157.866 17.7907 157.323C17.137 156.388 16.7743 155.28 16.7485 154.139C16.5904 152.479 17.0074 150.815 17.9297 149.425C19.5973 147.062 20.987 147.062 21.8347 147.465C24.1972 148.563 24.9338 154.417 24.2945 156.808C24.1756 157.377 23.9014 157.902 23.5024 158.324C22.968 158.811 22.2652 159.07 21.5429 159.047H21.4317ZM20.9453 148.661C20.2783 148.661 19.5557 149.606 19.0415 150.232C18.3156 151.362 17.9925 152.705 18.1243 154.042C18.1353 154.908 18.3959 155.753 18.8747 156.475C19.1858 156.868 19.5868 157.181 20.0439 157.386C20.501 157.592 21.0008 157.685 21.5012 157.657C21.8702 157.669 22.2326 157.556 22.5296 157.337C22.7348 157.078 22.8732 156.772 22.9326 156.447C23.4746 154.417 22.738 149.495 21.2372 148.716C21.1448 148.678 21.0454 148.659 20.9453 148.661Z" fill="#231F20"/>
<path d="M37.7331 171.31C37.125 171.902 36.3732 172.325 35.5519 172.537C34.7306 172.749 33.8682 172.743 33.0498 172.52C31.1567 172.155 29.3845 171.324 27.8941 170.101C24.9686 167.799 22.7425 164.727 21.4659 161.229C20.1894 157.732 19.9129 153.947 20.6677 150.301C22.3075 142.918 30.1176 135.911 37.9415 139.178C39.2619 139.74 40.4436 140.583 41.4038 141.649C42.3641 142.716 43.0796 143.979 43.5003 145.352C44.0513 145.196 44.6357 145.205 45.1815 145.378C45.7272 145.551 46.2105 145.88 46.5715 146.325C48.531 148.48 48.3225 150.677 47.0857 153.096C45.0568 157.059 42.6248 160.813 40.7765 164.859C39.6786 167.236 39.1645 169.809 37.7331 171.31Z" fill="white"/>
<path d="M34.3843 173.326C33.9185 173.321 33.4539 173.279 32.9946 173.201C30.9856 172.824 29.1031 171.949 27.5192 170.657C24.4759 168.283 22.1601 165.103 20.8358 161.477C19.5115 157.851 19.2318 153.926 20.0288 150.148C20.5713 147.806 21.6018 145.604 23.053 143.687C24.5042 141.771 26.3434 140.182 28.4503 139.025C29.9415 138.206 31.5983 137.734 33.2971 137.645C34.996 137.556 36.693 137.852 38.2615 138.511C39.5648 139.069 40.7407 139.888 41.7179 140.915C42.695 141.943 43.4529 143.159 43.9454 144.489C44.5329 144.455 45.1205 144.556 45.6628 144.785C46.205 145.014 46.6872 145.365 47.0722 145.81C49.6431 148.661 48.6564 151.483 47.6975 153.374C46.8498 155.015 45.9326 156.628 45.0432 158.199C43.7786 160.437 42.4723 162.745 41.3883 165.151C41.0409 165.915 40.7491 166.708 40.4712 167.473C40.0298 169.05 39.2734 170.521 38.2476 171.797C37.747 172.309 37.1443 172.709 36.4787 172.973C35.8131 173.236 35.0995 173.357 34.3843 173.326ZM33.8979 139.053C32.2013 139.072 30.5337 139.497 29.034 140.29C27.1112 141.348 25.4322 142.798 24.1058 144.546C22.7795 146.295 21.8355 148.303 21.3351 150.44C20.6185 153.958 20.8883 157.606 22.1146 160.98C23.3409 164.354 25.4759 167.323 28.2836 169.558C29.6881 170.706 31.354 171.489 33.1336 171.838C35.5794 172.214 36.6356 171.449 37.2054 170.837C38.0894 169.694 38.7453 168.391 39.137 167C39.4289 166.207 39.7346 165.387 40.0959 164.581C41.2077 162.161 42.5279 159.825 43.8064 157.629C44.6958 156.071 45.5991 154.459 46.4329 152.846C47.6975 150.371 47.5725 148.577 46.016 146.853C45.7477 146.514 45.3871 146.261 44.9777 146.122C44.5683 145.984 44.1277 145.968 43.7091 146.074C43.5304 146.144 43.332 146.144 43.1533 146.074C42.9842 145.98 42.8556 145.826 42.7919 145.643C42.4145 144.35 41.7551 143.157 40.8612 142.15C39.9672 141.142 38.861 140.346 37.6223 139.818C36.4438 139.318 35.1778 139.058 33.8979 139.053Z" fill="#231F20"/>
<path d="M44.5707 154.459C44.5707 154.459 49.1844 158.824 48.7397 160.02C48.295 161.216 45.7658 161.091 45.7658 161.091" fill="white"/>
<path d="M46.0855 161.841H45.7242C45.6329 161.836 45.5435 161.813 45.4612 161.773C45.3789 161.733 45.3053 161.677 45.2446 161.609C45.184 161.54 45.1374 161.46 45.1076 161.374C45.0778 161.287 45.0654 161.196 45.071 161.105C45.0852 160.921 45.17 160.751 45.3074 160.629C45.4448 160.507 45.6241 160.443 45.8075 160.451C46.6691 160.451 47.906 160.326 48.0866 159.839C48.2673 159.353 46.2383 157.058 44.0982 154.973C43.97 154.841 43.8983 154.664 43.8983 154.479C43.8983 154.295 43.97 154.118 44.0982 153.986C44.1628 153.921 44.2397 153.869 44.3243 153.834C44.409 153.798 44.4998 153.78 44.5916 153.78C44.6833 153.78 44.7741 153.798 44.8588 153.834C44.9435 153.869 45.0203 153.921 45.0849 153.986C47.3501 156.127 49.9349 158.963 49.4207 160.354C48.9065 161.744 46.9193 161.841 46.0855 161.841Z" fill="#231F20"/>
<path d="M45.7791 182.378C40.3176 182.517 31.3263 176.552 31.2707 176.343C30.4635 172.767 29.8374 169.152 29.3946 165.512C30.6562 165.095 31.7798 164.341 32.6443 163.331C33.5089 162.322 34.0814 161.095 34.3002 159.784C35.4676 154.834 40.1091 154.306 42.2632 147.854C44.848 149.12 45.0425 153.013 45.6401 155.46C46.4183 158.908 47.0298 162.412 47.7246 165.832C48.1138 168.029 42.4855 169.391 41.346 168.974C42.416 172.214 42.416 172.214 45.7791 182.378Z" fill="white"/>
<path d="M45.6129 183.073C40.3877 183.073 30.8683 177.511 30.6043 176.524C29.7907 172.915 29.1599 169.268 28.7143 165.596C28.693 165.423 28.7368 165.25 28.8371 165.108C28.9373 164.967 29.0869 164.868 29.2563 164.831C29.3813 164.831 32.5776 163.997 33.6199 159.561C34.2365 157.375 35.5129 155.433 37.2748 154C39.257 152.281 40.7523 150.07 41.6106 147.59C41.6367 147.494 41.6858 147.406 41.7536 147.333C41.8214 147.261 41.9059 147.205 41.9997 147.173C42.0891 147.132 42.1863 147.11 42.2846 147.11C42.383 147.11 42.4802 147.132 42.5695 147.173C45.0293 148.382 45.599 151.455 46.0576 153.93C46.141 154.403 46.2244 154.848 46.3217 155.321C47.086 158.741 47.7114 162.272 48.4062 165.721C48.4618 166.139 48.4003 166.564 48.2286 166.95C48.0568 167.335 47.7816 167.665 47.4334 167.904C45.9276 168.97 44.1593 169.604 42.3194 169.739C43.1254 172.186 43.445 173.173 46.4884 182.252C46.5238 182.356 46.5346 182.466 46.5202 182.575C46.5057 182.684 46.4663 182.787 46.4051 182.878C46.3372 182.962 46.2529 183.031 46.1573 183.082C46.0617 183.132 45.9568 183.162 45.8492 183.17L45.6129 183.073ZM31.8967 175.968C33.064 176.872 40.0681 181.182 44.8069 181.641C41.7635 172.422 41.7218 172.325 40.6378 169.127C40.5974 169.004 40.5929 168.872 40.6249 168.746C40.6569 168.621 40.7241 168.507 40.8185 168.418C40.9124 168.327 41.03 168.265 41.1578 168.238C41.2856 168.21 41.4185 168.22 41.5411 168.265C43.3284 168.297 45.0797 167.761 46.544 166.736C46.9192 166.416 47.086 166.124 47.0304 165.86C46.419 162.384 45.7241 158.908 44.9598 155.515C44.8625 155.098 44.7791 154.639 44.6957 154.125C44.3483 152.248 43.9175 149.954 42.6112 148.8C41.6406 151.144 40.1482 153.237 38.2476 154.917C36.6782 156.179 35.5335 157.892 34.9679 159.825C34.7356 161.162 34.1744 162.42 33.335 163.486C32.4956 164.551 31.4043 165.391 30.1596 165.929C30.3958 167.709 31.1185 172.992 31.8967 175.968Z" fill="#231F20"/>
<path d="M47.0435 163.232C46.763 163.534 46.4206 163.771 46.0399 163.929C45.6591 164.086 45.249 164.159 44.8373 164.143C44.4257 164.127 44.0224 164.023 43.6548 163.837C43.2873 163.651 42.9642 163.388 42.7077 163.065" fill="white"/>
<path d="M44.8343 164.886H44.7092C44.2131 164.848 43.7309 164.704 43.2948 164.464C42.8587 164.224 42.4786 163.894 42.18 163.496C42.0982 163.435 42.0309 163.357 41.9826 163.267C41.9344 163.178 41.9065 163.078 41.9009 162.976C41.8953 162.875 41.9121 162.773 41.9502 162.678C41.9883 162.584 42.0468 162.499 42.1213 162.429C42.1959 162.36 42.2849 162.308 42.3819 162.277C42.4789 162.245 42.5815 162.236 42.6826 162.249C42.7837 162.262 42.8807 162.297 42.9667 162.351C43.0528 162.406 43.1258 162.479 43.1806 162.565C43.359 162.807 43.5857 163.01 43.8464 163.161C44.1071 163.312 44.3961 163.407 44.6953 163.441C45.3704 163.414 46.0127 163.142 46.5019 162.676C46.6318 162.548 46.8065 162.477 46.9883 162.477C47.1702 162.477 47.3448 162.548 47.4747 162.676C47.5398 162.74 47.5915 162.817 47.6268 162.902C47.6621 162.987 47.6803 163.078 47.6803 163.169C47.6803 163.261 47.6621 163.352 47.6268 163.437C47.5915 163.521 47.5398 163.598 47.4747 163.663C46.7644 164.367 45.8303 164.8 44.8343 164.886Z" fill="#231F20"/>
<path d="M41.3461 168.919C40.5171 169.06 39.6678 169.031 38.8505 168.833C38.0332 168.634 37.2651 168.271 36.5933 167.764C36.5933 167.764 37.983 172.978 42.833 173.451L41.3461 168.919Z" fill="#231F20"/>
<path d="M42.8327 174.147C37.5936 173.632 36.0511 168.182 35.9955 167.945C35.9551 167.8 35.963 167.645 36.0182 167.505C36.0733 167.364 36.1727 167.246 36.3012 167.167C36.431 167.09 36.5818 167.057 36.7318 167.072C36.8817 167.087 37.0229 167.149 37.135 167.25C37.7301 167.682 38.405 167.992 39.1207 168.162C39.8363 168.331 40.5785 168.357 41.3041 168.237C41.4672 168.209 41.6352 168.239 41.7779 168.323C41.9206 168.407 42.0285 168.539 42.0823 168.696L43.5693 173.243C43.6093 173.352 43.62 173.47 43.6005 173.584C43.581 173.699 43.5319 173.806 43.4581 173.896C43.3813 173.985 43.2845 174.054 43.1757 174.097C43.0669 174.141 42.9494 174.158 42.8327 174.147ZM38.0383 169.364C38.8241 170.876 40.1713 172.019 41.7905 172.548L40.8455 169.669C39.899 169.738 38.9479 169.634 38.0383 169.364Z" fill="#231F20"/>
<path d="M43.233 154.312C43.5058 154.268 43.6375 153.673 43.5272 152.983C43.4169 152.293 43.1062 151.769 42.8334 151.813C42.5606 151.857 42.4288 152.451 42.5392 153.141C42.6495 153.831 42.9601 154.355 43.233 154.312Z" fill="#231F20"/>
<path d="M37.9975 157.837C37.6964 157.003 37.1725 156.267 36.4827 155.71C36.0178 155.209 35.4788 154.782 34.8846 154.445C34.5844 154.275 34.2503 154.175 33.9066 154.151C33.5629 154.127 33.2181 154.18 32.8973 154.305C32.6263 154.446 32.3882 154.643 32.199 154.883C32.0097 155.122 31.8735 155.4 31.7995 155.696C31.6603 156.29 31.6603 156.909 31.7995 157.503C32.041 158.809 32.6232 160.028 33.4871 161.037C34.351 162.045 35.4659 162.807 36.719 163.246L36.4827 163.079" fill="white"/>
<path d="M36.6631 163.955C36.599 163.969 36.5326 163.969 36.4685 163.955C35.1032 163.466 33.8891 162.629 32.9459 161.527C32.0028 160.425 31.3632 159.095 31.0904 157.67C30.9277 156.98 30.9277 156.261 31.0904 155.571C31.1887 155.178 31.3714 154.812 31.6258 154.497C31.8803 154.183 32.2003 153.928 32.5635 153.75C32.9765 153.574 33.424 153.496 33.872 153.52C34.3199 153.544 34.7565 153.67 35.1483 153.889C35.8078 154.26 36.4075 154.729 36.9271 155.279C37.7061 155.929 38.2924 156.78 38.6225 157.74C38.6455 157.829 38.6508 157.921 38.6381 158.011C38.6253 158.102 38.5949 158.189 38.5484 158.268C38.5019 158.347 38.4403 158.416 38.3672 158.471C38.2941 158.525 38.2108 158.565 38.1222 158.588C37.9418 158.63 37.752 158.6 37.5935 158.504C37.4351 158.408 37.3206 158.253 37.2745 158.074C36.9911 157.356 36.5091 156.734 35.8848 156.28C35.4803 155.83 35.0121 155.441 34.4952 155.126C34.287 155.004 34.0545 154.93 33.8143 154.908C33.5741 154.887 33.332 154.918 33.1055 155.001C32.9275 155.102 32.7717 155.237 32.6475 155.4C32.5233 155.562 32.4333 155.748 32.3828 155.946C32.2768 156.437 32.2768 156.944 32.3828 157.434C32.5939 158.523 33.0623 159.545 33.7489 160.416C34.4355 161.287 35.3203 161.981 36.3295 162.439C36.4875 162.431 36.6437 162.475 36.7742 162.565L36.941 162.676C37.0814 162.774 37.1842 162.917 37.2322 163.081C37.2802 163.246 37.2707 163.421 37.205 163.58C37.1528 163.682 37.076 163.77 36.9814 163.836C36.8868 163.901 36.7774 163.942 36.6631 163.955Z" fill="#231F20"/>
<path d="M48.7391 177.706C48.7391 177.706 30.1033 170.17 24.2527 176.747C18.4021 183.323 14.2886 208.795 16.7762 241.817C37.4826 248.435 62.2886 234.253 62.2886 234.253C62.2886 234.253 57.7582 181.766 48.7391 177.706Z" fill="#2945FF"/>
<path d="M87.7755 199.271C87.7755 199.271 93.5566 186.521 94.6406 187.786C95.7246 189.052 93.7373 194.975 93.7373 194.975C93.7373 194.975 99.4906 187.063 100.755 187.689C102.02 188.315 101.117 194.641 98.226 199.271C95.3354 203.901 91.7639 209.393 91.7639 209.393L87.7755 199.271Z" fill="white"/>
<path d="M91.8203 210.088H91.737C91.6114 210.076 91.4916 210.029 91.391 209.953C91.2904 209.877 91.2129 209.775 91.1672 209.657L87.1927 199.535C87.155 199.452 87.1356 199.362 87.1356 199.271C87.1356 199.18 87.155 199.09 87.1927 199.007C89.6107 193.654 92.7514 187.244 94.3496 187.022C94.5085 186.998 94.6706 187.016 94.8212 187.071C94.9717 187.127 95.1058 187.22 95.2112 187.341C95.8782 188.134 95.7393 189.983 95.3779 191.721C99.6582 186.368 100.714 186.896 101.103 187.091C101.301 187.202 101.472 187.354 101.606 187.536C101.74 187.718 101.834 187.927 101.882 188.148C102.493 190.261 101.326 195.628 98.8661 199.646C96.0172 204.318 92.4179 209.741 92.3762 209.796C92.3115 209.884 92.2279 209.955 92.1316 210.006C92.0354 210.056 91.929 210.084 91.8203 210.088ZM88.5963 199.299L91.9732 207.891C93.1683 206.056 95.6281 202.33 97.6987 198.909C100.325 194.613 101.02 189.399 100.478 188.398C99.4914 188.843 96.5731 192.263 94.294 195.35C94.1965 195.483 94.0549 195.577 93.8945 195.615C93.7342 195.653 93.5654 195.633 93.4185 195.559C93.2726 195.482 93.1581 195.356 93.0947 195.204C93.0313 195.052 93.0229 194.882 93.0711 194.724C93.802 192.77 94.2012 190.707 94.2523 188.621C92.0221 191.995 90.1101 195.57 88.5407 199.299H88.5963Z" fill="#231F20"/>
<path d="M40.832 187.661C40.832 187.661 53.2558 224.381 66.2077 223.297C79.1597 222.212 94.5991 208.781 94.5991 208.781L87.1365 197.505C87.1365 197.505 68.195 209.393 64.415 204.818C59.5205 198.072 55.5654 190.691 52.6582 182.878C50.129 175.968 39.0115 175.912 40.832 187.661Z" fill="#2945FF"/>
<path d="M68.014 193.82C68.8846 191.975 70.038 190.277 71.4326 188.787C73.2254 187.174 78.6312 184.046 77.9086 186.868C77.186 189.691 72.9891 192.43 72.9891 192.43C72.9891 192.43 72.058 194.224 70.3904 196.754" fill="white"/>
<path d="M70.3912 197.408C70.256 197.407 70.1246 197.363 70.0159 197.283C69.939 197.233 69.8728 197.169 69.8212 197.094C69.7696 197.019 69.7337 196.934 69.7155 196.844C69.6974 196.755 69.6974 196.663 69.7156 196.573C69.7338 196.484 69.7697 196.399 69.8214 196.323C71.4334 193.862 72.3645 192.083 72.3784 192.069C72.434 191.962 72.5152 191.872 72.6147 191.805C72.6147 191.805 76.5892 189.218 77.2284 186.688C77.2561 186.578 77.2561 186.464 77.2284 186.354C76.6448 186.173 73.4485 187.87 71.8503 189.302C70.527 190.735 69.4304 192.362 68.5985 194.127C68.5636 194.215 68.5108 194.296 68.4433 194.364C68.3759 194.431 68.2953 194.484 68.2065 194.519C68.1177 194.554 68.0227 194.57 67.9273 194.567C67.8319 194.564 67.7383 194.541 67.6522 194.5C67.566 194.458 67.4893 194.4 67.4268 194.328C67.3643 194.256 67.3173 194.172 67.2887 194.08C67.2601 193.989 67.2506 193.893 67.2608 193.798C67.271 193.703 67.3005 193.612 67.3477 193.529C68.2687 191.594 69.4933 189.82 70.9748 188.273C72.0032 187.341 76.3946 184.227 78.0623 185.242C78.3819 185.437 78.8683 185.923 78.5764 187.036C77.8816 189.816 74.324 192.333 73.518 192.875C73.2539 193.362 72.3784 194.975 70.9748 197.046C70.9161 197.151 70.8317 197.239 70.7297 197.302C70.6276 197.366 70.5111 197.402 70.3912 197.408Z" fill="#231F20"/>
<path d="M66.4448 223.13C63.7096 223.135 61.0263 222.384 58.6903 220.961C50.5884 216.095 39.4153 191.012 38.9428 189.941C38.8985 189.857 38.872 189.765 38.8647 189.671C38.8574 189.576 38.8696 189.481 38.9004 189.391C38.9313 189.301 38.9801 189.219 39.0441 189.149C39.108 189.079 39.1856 189.022 39.2721 188.983C39.3585 188.944 39.4521 188.923 39.5469 188.922C39.6418 188.921 39.7359 188.939 39.8235 188.975C39.9112 189.011 39.9904 189.065 40.0564 189.133C40.1225 189.201 40.1738 189.282 40.2074 189.371C40.3186 189.635 51.6862 215.121 59.4129 219.765C67.1396 224.409 76.3394 219.89 84.9832 214.204C85.0585 214.152 85.1434 214.116 85.2328 214.098C85.3223 214.08 85.4144 214.08 85.5039 214.098C85.5934 214.116 85.6782 214.152 85.7535 214.203C85.8288 214.255 85.8929 214.321 85.9421 214.398C86.0427 214.552 86.0787 214.738 86.0422 214.918C86.0058 215.098 85.8999 215.256 85.7476 215.358C79.6607 219.418 72.9068 223.13 66.4448 223.13Z" fill="#231F20"/>
<path d="M108.496 336.78V347.487C108.496 347.487 132.997 345.345 132.441 344.247C131.885 343.149 119.6 338.491 119.6 338.491L108.496 336.78Z" fill="#2945FF"/>
<path d="M108.496 348.112C108.323 348.107 108.156 348.044 108.024 347.932C107.955 347.865 107.899 347.785 107.861 347.697C107.823 347.608 107.803 347.513 107.802 347.417V336.781C107.803 336.681 107.824 336.583 107.865 336.492C107.905 336.401 107.964 336.319 108.038 336.252C108.115 336.19 108.204 336.144 108.3 336.118C108.396 336.092 108.496 336.085 108.594 336.099L119.711 337.74C119.757 337.728 119.805 337.728 119.85 337.74C125.59 339.909 132.524 342.731 133.08 343.83C133.132 343.946 133.159 344.071 133.159 344.198C133.159 344.325 133.132 344.451 133.08 344.567C132.858 344.956 132.274 345.957 108.58 348.071L108.496 348.112ZM109.191 337.587V346.652C118.308 345.846 128.133 344.748 131.135 344.038C129.258 343.023 124.186 340.896 119.419 339.103L109.191 337.587Z" fill="#231F20"/>
<path d="M108.427 327.409V336.781L119.531 338.421L119.934 327.409H108.427Z" fill="white"/>
<path d="M119.53 339.144H119.419L108.302 337.49C108.136 337.469 107.983 337.388 107.873 337.263C107.763 337.137 107.703 336.975 107.704 336.808V327.437C107.704 327.253 107.777 327.076 107.908 326.945C108.038 326.815 108.215 326.742 108.399 326.742H119.906C119.999 326.742 120.092 326.761 120.178 326.797C120.264 326.834 120.342 326.888 120.407 326.955C120.472 327.023 120.522 327.103 120.556 327.19C120.589 327.278 120.604 327.371 120.6 327.465L120.197 338.477C120.192 338.575 120.167 338.671 120.124 338.759C120.081 338.848 120.021 338.926 119.947 338.991C119.827 339.083 119.682 339.136 119.53 339.144ZM109.122 336.21L118.849 337.601L119.197 328.077H109.108L109.122 336.21Z" fill="#231F20"/>
<path d="M141.209 327.729L142.446 340.229L153.619 339.825L153.036 327.729H141.209Z" fill="white"/>
<path d="M142.447 340.924C142.274 340.925 142.107 340.861 141.979 340.745C141.85 340.63 141.77 340.47 141.752 340.298L140.516 327.785C140.507 327.687 140.519 327.588 140.55 327.495C140.581 327.402 140.631 327.316 140.696 327.242C140.762 327.172 140.842 327.117 140.93 327.078C141.019 327.04 141.114 327.02 141.21 327.02H153.037C153.216 327.02 153.389 327.089 153.518 327.214C153.648 327.338 153.724 327.508 153.731 327.687L154.315 339.77C154.319 339.953 154.255 340.132 154.134 340.27C154.073 340.339 153.998 340.394 153.915 340.433C153.831 340.471 153.74 340.491 153.648 340.493L142.531 340.91L142.447 340.924ZM141.975 328.41L143.073 339.534L152.967 339.144L152.439 328.424L141.975 328.41Z" fill="#231F20"/>
<path d="M151.786 227.357L154.134 329.815H139.556L133.178 258.821L121.087 330.969L107.107 330.204L109.984 236.353L151.786 227.357Z" fill="#231F20"/>
<path d="M121.087 331.664L107.106 330.899C107.017 330.896 106.929 330.875 106.848 330.837C106.767 330.799 106.694 330.746 106.633 330.68C106.572 330.614 106.525 330.537 106.494 330.453C106.463 330.369 106.45 330.28 106.453 330.19L109.33 236.325C109.335 236.171 109.392 236.024 109.49 235.906C109.588 235.787 109.722 235.705 109.872 235.671L151.577 226.676C151.678 226.656 151.783 226.659 151.883 226.683C151.984 226.707 152.078 226.752 152.16 226.815C152.243 226.876 152.309 226.955 152.355 227.047C152.401 227.139 152.425 227.24 152.424 227.343L154.773 329.801C154.772 329.986 154.703 330.164 154.578 330.301C154.443 330.43 154.265 330.504 154.078 330.51H139.57C139.395 330.511 139.226 330.445 139.097 330.326C138.968 330.208 138.889 330.045 138.875 329.87L132.969 264.272L121.768 331.094C121.741 331.255 121.658 331.401 121.533 331.505C121.408 331.61 121.25 331.666 121.087 331.664ZM107.815 329.551L120.503 330.246L132.496 258.71C132.522 258.548 132.605 258.4 132.73 258.294C132.854 258.187 133.013 258.127 133.177 258.126C133.346 258.135 133.507 258.205 133.629 258.322C133.751 258.44 133.828 258.597 133.844 258.766L140.167 329.12H153.397L151.076 228.219L110.636 236.923L107.815 329.551Z" fill="#231F20"/>
<path d="M175.341 191.652C177.806 189.901 180.544 188.571 183.443 187.717C186.111 186.938 189.127 184.185 189.46 181.238C189.482 180.766 189.416 180.295 189.266 179.847C188.826 178.395 188.17 177.017 187.32 175.759C187.239 175.622 187.124 175.507 186.987 175.426C186.695 175.301 186.375 175.509 186.139 175.69L181.831 179.041C181.86 178.11 181.8 177.179 181.65 176.26C181.636 175.935 181.508 175.625 181.289 175.384C181.117 175.266 180.914 175.202 180.705 175.202C180.497 175.202 180.293 175.266 180.122 175.384C179.778 175.616 179.489 175.92 179.274 176.274C177.634 178.596 176.495 181.613 174.757 183.768C174.41 184.185 170.964 186.869 171.2 187.119L175.341 191.652Z" fill="white"/>
<path d="M175.341 192.347C175.243 192.346 175.147 192.324 175.058 192.283C174.97 192.243 174.891 192.184 174.826 192.11L170.657 187.466C170.541 187.316 170.482 187.128 170.491 186.938C170.491 186.451 170.894 186.076 173.131 184.157C173.576 183.782 174.118 183.323 174.229 183.198C175.189 181.947 176.018 180.6 176.702 179.18C177.298 177.999 177.967 176.857 178.704 175.759C178.975 175.323 179.341 174.952 179.774 174.675C180.074 174.487 180.425 174.396 180.778 174.416C181.132 174.436 181.47 174.565 181.747 174.786C182.085 175.138 182.296 175.593 182.345 176.079C182.414 176.566 182.484 177.08 182.511 177.581L185.708 175.092C185.91 174.897 186.162 174.76 186.436 174.696C186.71 174.632 186.996 174.644 187.264 174.73C187.524 174.861 187.741 175.064 187.889 175.314C188.792 176.623 189.477 178.069 189.918 179.597C190.11 180.141 190.19 180.718 190.155 181.293C189.779 184.588 186.486 187.536 183.637 188.37C180.823 189.21 178.163 190.496 175.757 192.18C175.642 192.282 175.495 192.341 175.341 192.347ZM172.075 186.952L175.452 190.72C177.848 189.106 180.477 187.868 183.248 187.049C185.68 186.34 188.473 183.796 188.807 181.154C188.826 180.762 188.769 180.37 188.64 180C188.225 178.613 187.597 177.3 186.778 176.107L186.611 176.232L182.317 179.569C182.207 179.64 182.079 179.677 181.949 179.677C181.818 179.677 181.69 179.64 181.58 179.569C181.461 179.511 181.361 179.419 181.292 179.306C181.223 179.193 181.188 179.062 181.191 178.929C181.219 178.041 181.163 177.152 181.024 176.274C181.01 176.107 180.957 175.945 180.872 175.801C180.817 175.776 180.758 175.763 180.698 175.763C180.638 175.763 180.579 175.776 180.524 175.801C180.272 175.989 180.059 176.226 179.899 176.496C179.193 177.542 178.557 178.634 177.995 179.764C177.254 181.271 176.365 182.701 175.341 184.032C174.942 184.428 174.52 184.8 174.076 185.144C173.464 185.701 172.533 186.493 172.075 186.952Z" fill="#231F20"/>
<path d="M136.04 166.221C136.04 166.221 153.605 191.095 155.94 191.109C158.275 191.123 173.728 182.544 173.728 182.544L176.508 192.666C176.508 192.666 161.304 207.822 153.619 205.667C145.934 203.512 121.504 188.37 121.504 188.37L136.04 166.221Z" fill="#2945FF"/>
<path d="M122.866 158.393C121.685 158.546 120.49 158.546 119.1 158.658C117.71 158.769 116.112 158.574 115.862 157.267C115.612 155.96 116.793 155.07 116.32 154.069C116.174 153.801 115.975 153.565 115.737 153.374C113.516 151.239 112.181 148.344 111.999 145.268C111.864 142.225 112.887 139.244 114.861 136.926C114.528 137.107 114.097 136.815 113.986 136.453C113.92 136.072 113.999 135.68 114.208 135.355C114.962 134.147 116.048 133.182 117.335 132.574C121.376 130.519 125.946 129.738 130.44 130.335C133.886 130.739 138.278 132.685 138.556 136.745C138.635 137.47 138.461 138.199 138.063 138.81C137.665 139.421 137.068 139.875 136.374 140.096C136.374 144.49 134.706 147.785 132.469 151.344C130.976 153.782 128.898 155.809 126.424 157.239C125.326 157.856 124.117 158.249 122.866 158.393Z" fill="white"/>
<path d="M118.489 159.395C116.654 159.395 115.431 158.685 115.181 157.448C115.099 156.824 115.191 156.189 115.445 155.613C115.654 155.07 115.765 154.709 115.654 154.459C115.549 154.29 115.418 154.14 115.264 154.014C112.889 151.757 111.462 148.679 111.276 145.407C111.126 142.516 111.97 139.66 113.666 137.315C113.486 137.137 113.352 136.918 113.277 136.676C113.159 136.122 113.258 135.544 113.555 135.063C114.379 133.744 115.566 132.692 116.974 132.032C121.142 129.92 125.848 129.111 130.482 129.71C134.651 130.196 138.931 132.574 139.209 136.773C139.279 137.568 139.109 138.366 138.719 139.063C138.33 139.759 137.741 140.323 137.027 140.68C136.916 145.199 134.984 148.647 133.011 151.803C131.459 154.337 129.3 156.445 126.729 157.935C125.548 158.592 124.25 159.012 122.908 159.172C122.199 159.255 121.518 159.297 120.74 159.325C120.226 159.325 119.684 159.325 119.114 159.436L118.489 159.395ZM114.861 136.217C114.966 136.216 115.069 136.24 115.163 136.285C115.257 136.331 115.339 136.398 115.403 136.481C115.51 136.605 115.569 136.762 115.569 136.926C115.569 137.089 115.51 137.247 115.403 137.371C113.521 139.57 112.556 142.409 112.709 145.3C112.862 148.191 114.12 150.913 116.223 152.901C116.523 153.154 116.773 153.461 116.96 153.805C117.091 154.168 117.145 154.555 117.119 154.941C117.093 155.326 116.986 155.702 116.807 156.044C116.637 156.4 116.552 156.79 116.557 157.184C116.71 157.907 117.947 158.074 119.058 157.976L120.726 157.879C121.449 157.879 122.116 157.879 122.783 157.712C123.951 157.587 125.082 157.222 126.104 156.642C128.475 155.277 130.464 153.335 131.885 150.997C134.317 147.117 135.721 144.045 135.693 140.124C135.69 139.965 135.742 139.81 135.841 139.685C135.94 139.561 136.079 139.475 136.235 139.442C136.767 139.254 137.22 138.889 137.518 138.409C137.816 137.929 137.942 137.362 137.875 136.801C137.611 132.921 133.039 131.35 130.37 131.044C126.021 130.463 121.597 131.215 117.682 133.2C116.535 133.736 115.569 134.596 114.903 135.674C114.722 136.008 114.722 136.175 114.75 136.245L114.861 136.217Z" fill="#231F20"/>
<path d="M138.611 146.116C138.611 146.116 142.53 150.607 142.002 151.678C141.474 152.748 139.153 152.401 139.153 152.401" fill="white"/>
<path d="M140.028 153.207C139.698 153.207 139.369 153.183 139.042 153.138C138.861 153.104 138.7 153.001 138.594 152.85C138.487 152.699 138.444 152.513 138.472 152.331C138.503 152.151 138.603 151.99 138.751 151.884C138.899 151.777 139.084 151.733 139.264 151.761C140.001 151.872 141.182 151.831 141.376 151.427C140.574 149.628 139.459 147.985 138.083 146.575C137.961 146.435 137.9 146.252 137.913 146.067C137.926 145.882 138.012 145.71 138.152 145.588C138.292 145.466 138.475 145.405 138.66 145.418C138.845 145.431 139.017 145.517 139.139 145.657C141.057 147.868 143.225 150.76 142.627 152.025C142.341 152.439 141.949 152.767 141.491 152.976C141.033 153.184 140.528 153.264 140.028 153.207Z" fill="#231F20"/>
<path d="M137.013 139.707C139.306 141.097 139.208 144.782 139.514 147.103C139.949 150.366 140.302 153.643 140.57 156.934C140.751 159.019 135.428 159.714 134.414 159.283L136.373 167.348L124.589 164.497L124.102 157.684C125.33 157.412 126.458 156.806 127.363 155.932C128.268 155.059 128.914 153.952 129.23 152.735C130.731 148.244 129.23 139.109 129.23 139.109C129.23 139.109 134.789 138.33 137.013 139.707Z" fill="white"/>
<path d="M136.374 168.043H136.29L124.492 165.192C124.349 165.157 124.221 165.078 124.126 164.966C124.031 164.853 123.974 164.714 123.964 164.567L123.491 157.74C123.479 157.564 123.534 157.39 123.645 157.254C123.756 157.117 123.914 157.027 124.089 157.003C125.187 156.75 126.194 156.197 126.999 155.407C127.803 154.617 128.373 153.62 128.647 152.526C130.037 148.244 128.55 139.331 128.536 139.234C128.507 139.048 128.552 138.859 128.661 138.705C128.778 138.556 128.946 138.457 129.133 138.427C129.731 138.344 135.067 137.663 137.471 139.136C139.876 140.61 139.945 143.433 140.154 145.783C140.154 146.227 140.237 146.645 140.293 147.034C140.709 150.287 141.071 153.61 141.349 156.892C141.369 157.293 141.277 157.691 141.083 158.042C140.889 158.394 140.601 158.684 140.251 158.88C138.777 159.715 137.109 160.146 135.415 160.131L137.138 167.195C137.163 167.298 137.165 167.405 137.143 167.509C137.12 167.612 137.074 167.709 137.009 167.793C136.943 167.876 136.859 167.943 136.763 167.989C136.668 168.034 136.563 168.058 136.457 168.057L136.374 168.043ZM125.256 163.941L135.443 166.402L133.747 159.45C133.718 159.324 133.724 159.192 133.766 159.069C133.808 158.946 133.883 158.837 133.983 158.755C134.085 158.671 134.209 158.619 134.339 158.604C134.47 158.589 134.602 158.613 134.72 158.671C136.341 158.854 137.979 158.524 139.403 157.726C139.751 157.49 139.917 157.239 139.903 157.017C139.626 153.749 139.264 150.454 138.833 147.215C138.833 146.811 138.75 146.367 138.708 145.908C138.514 143.864 138.278 141.319 136.665 140.346C135.276 139.456 131.815 139.568 129.967 139.762C130.315 142.042 131.204 149.092 129.898 152.999C129.558 154.226 128.919 155.349 128.039 156.269C127.158 157.189 126.064 157.876 124.853 158.268L125.256 163.941Z" fill="#231F20"/>
<path d="M140.153 154.514C139.867 154.769 139.529 154.959 139.163 155.071C138.796 155.182 138.41 155.213 138.03 155.16C137.651 155.107 137.287 154.972 136.965 154.764C136.643 154.557 136.37 154.282 136.165 153.958" fill="white"/>
<path d="M138.264 155.905C138.13 155.918 137.995 155.918 137.861 155.905C137.397 155.829 136.954 155.655 136.563 155.393C136.173 155.132 135.843 154.789 135.596 154.389C135.542 154.314 135.504 154.23 135.484 154.14C135.463 154.051 135.461 153.958 135.476 153.868C135.492 153.777 135.525 153.691 135.574 153.613C135.623 153.535 135.687 153.468 135.762 153.416C135.916 153.313 136.104 153.274 136.286 153.308C136.467 153.342 136.629 153.445 136.735 153.597C136.876 153.834 137.065 154.04 137.29 154.2C137.515 154.36 137.771 154.472 138.041 154.528C138.648 154.567 139.248 154.379 139.723 154C139.867 153.886 140.05 153.834 140.232 153.855C140.415 153.876 140.581 153.968 140.696 154.111C140.811 154.253 140.865 154.435 140.847 154.618C140.829 154.8 140.74 154.968 140.599 155.084C139.921 155.588 139.107 155.874 138.264 155.905Z" fill="#231F20"/>
<path d="M132.678 149.036C132.473 148.231 132.055 147.496 131.468 146.909C131.077 146.378 130.609 145.91 130.079 145.518C129.817 145.335 129.518 145.212 129.203 145.159C128.888 145.106 128.565 145.124 128.258 145.212C127.995 145.317 127.757 145.476 127.561 145.68C127.364 145.884 127.214 146.127 127.119 146.394C126.941 146.931 126.879 147.5 126.938 148.063C127.056 149.301 127.495 150.488 128.211 151.505C128.928 152.521 129.897 153.334 131.024 153.861L130.815 153.694" fill="white"/>
<path d="M131.023 154.625C130.927 154.644 130.827 154.644 130.731 154.625C129.492 154.05 128.427 153.159 127.641 152.041C126.856 150.923 126.378 149.618 126.256 148.257C126.17 147.591 126.247 146.914 126.479 146.283C126.606 145.923 126.81 145.595 127.076 145.321C127.342 145.048 127.665 144.835 128.021 144.698C128.428 144.57 128.859 144.537 129.281 144.602C129.703 144.667 130.104 144.828 130.453 145.073C131.034 145.457 131.554 145.926 131.996 146.464C132.677 147.14 133.157 147.992 133.385 148.925C133.399 149.015 133.395 149.107 133.373 149.196C133.351 149.285 133.312 149.369 133.258 149.442C133.204 149.516 133.135 149.578 133.057 149.625C132.979 149.672 132.892 149.704 132.802 149.717C132.712 149.733 132.62 149.731 132.532 149.711C132.443 149.69 132.359 149.653 132.285 149.599C132.212 149.546 132.149 149.479 132.102 149.401C132.054 149.324 132.023 149.237 132.01 149.147C131.82 148.468 131.45 147.853 130.94 147.368C130.596 146.908 130.183 146.505 129.717 146.172C129.543 146.045 129.343 145.957 129.132 145.916C128.92 145.876 128.702 145.882 128.494 145.935C128.165 146.092 127.91 146.372 127.785 146.714C127.635 147.161 127.587 147.636 127.646 148.104C127.749 149.133 128.094 150.122 128.655 150.99C129.216 151.858 129.975 152.58 130.87 153.096C131.018 153.101 131.159 153.155 131.273 153.249L131.481 153.416C131.608 153.526 131.691 153.677 131.716 153.842C131.741 154.008 131.708 154.177 131.62 154.319C131.556 154.418 131.467 154.498 131.362 154.551C131.257 154.605 131.14 154.63 131.023 154.625Z" fill="#231F20"/>
<path d="M137.535 144.851C137.784 144.802 137.884 144.244 137.759 143.603C137.633 142.962 137.33 142.482 137.082 142.531C136.833 142.58 136.733 143.138 136.858 143.779C136.983 144.42 137.286 144.899 137.535 144.851Z" fill="#231F20"/>
<path d="M122.615 166.819L123.06 163.079L137.485 162.036L139.792 167.181C134.167 168.844 128.165 168.718 122.615 166.819Z" fill="#231F20"/>
<path d="M131.926 169.03C128.685 169.03 125.466 168.504 122.393 167.473C122.24 167.425 122.109 167.325 122.023 167.19C121.936 167.055 121.9 166.895 121.92 166.736L122.379 162.996C122.398 162.835 122.472 162.686 122.589 162.575C122.705 162.463 122.857 162.396 123.018 162.384L137.443 161.341C137.584 161.331 137.725 161.364 137.847 161.436C137.968 161.508 138.065 161.616 138.124 161.744L140.417 166.889C140.455 166.977 140.474 167.071 140.474 167.167C140.474 167.262 140.455 167.357 140.417 167.445C140.339 167.623 140.194 167.763 140.014 167.834C137.399 168.662 134.669 169.066 131.926 169.03ZM123.366 166.333C128.384 167.899 133.74 168.039 138.833 166.736L137.054 162.759L123.685 163.732L123.366 166.333Z" fill="#231F20"/>
<path d="M139.792 167.181C131.232 164.9 122.81 160.229 111.998 173.521C101.187 186.813 107.968 239.62 107.968 239.62C110.583 241.729 113.665 243.18 116.956 243.853C120.246 244.525 123.65 244.399 126.882 243.485L154.481 236.533C154.481 236.533 147.769 169.308 139.792 167.181Z" fill="#2945FF"/>
<path d="M142.446 340.229V349.447C142.446 349.447 166.46 346.833 166.071 345.012C165.682 343.19 153.564 339.812 153.564 339.812L142.446 340.229Z" fill="#2945FF"/>
<path d="M142.447 350.142C142.273 350.14 142.105 350.076 141.974 349.961C141.905 349.895 141.849 349.815 141.811 349.727C141.773 349.638 141.753 349.543 141.752 349.447V340.229C141.752 340.049 141.821 339.876 141.945 339.747C142.07 339.617 142.239 339.541 142.419 339.533L153.536 339.116H153.745C158.456 340.437 166.405 342.926 166.766 344.859C166.786 344.99 166.779 345.125 166.746 345.254C166.712 345.383 166.653 345.504 166.572 345.609C165.182 347.5 147.769 349.53 142.46 350.1L142.447 350.142ZM143.141 340.91V348.668C152.98 347.57 163.403 345.888 165.293 344.956C164.223 343.941 158.581 341.925 153.536 340.521L143.141 340.91Z" fill="#231F20"/>
<path d="M129.36 274.208L163.967 268.159L159.459 242.341L124.852 248.391L129.36 274.208Z" fill="white"/>
<path d="M129.342 274.894C129.178 274.894 129.019 274.837 128.893 274.733C128.766 274.629 128.679 274.485 128.647 274.324L124.144 248.505C124.116 248.325 124.155 248.142 124.256 247.99C124.365 247.837 124.529 247.732 124.714 247.698L159.318 241.65C159.408 241.634 159.501 241.636 159.59 241.656C159.68 241.676 159.764 241.714 159.839 241.767C159.914 241.82 159.978 241.887 160.027 241.965C160.076 242.043 160.108 242.129 160.124 242.22L164.626 268.04C164.646 268.128 164.647 268.22 164.627 268.309C164.608 268.398 164.57 268.481 164.515 268.554C164.465 268.629 164.399 268.693 164.322 268.741C164.246 268.789 164.16 268.82 164.07 268.832L129.453 274.88L129.342 274.894ZM125.631 248.949L129.898 273.393L163.139 267.595L158.915 243.207L125.631 248.949Z" fill="#231F20"/>
<path d="M144.545 233.766C144.545 233.766 144.781 237.938 145.934 238.883C147.088 239.828 151.16 242.359 150.868 243.179C150.576 244 147.713 244.57 147.713 244.57C147.713 244.57 150.242 249.575 148.199 251.077C146.157 252.578 140.709 254.108 139.667 252.592C138.624 251.077 136.29 235.282 136.29 235.282" fill="white"/>
<path d="M141.502 253.913C141.224 253.936 140.945 253.936 140.668 253.913C140.346 253.881 140.035 253.776 139.758 253.608C139.482 253.44 139.247 253.211 139.07 252.94C137.986 251.383 135.971 238.007 135.582 235.338C135.554 235.153 135.601 234.965 135.711 234.815C135.822 234.666 135.988 234.566 136.172 234.538C136.356 234.51 136.544 234.557 136.694 234.668C136.844 234.779 136.944 234.945 136.971 235.129C138.097 242.818 139.626 251.285 140.223 252.147C140.398 252.321 140.63 252.425 140.876 252.439C143.337 252.499 145.758 251.816 147.825 250.479C148.992 249.603 147.825 246.308 147.13 244.917C147.085 244.819 147.062 244.713 147.062 244.605C147.062 244.497 147.085 244.39 147.13 244.292C147.177 244.196 147.245 244.112 147.329 244.047C147.414 243.982 147.512 243.937 147.616 243.916C148.503 243.761 149.361 243.47 150.159 243.054C149.134 242.071 148.022 241.183 146.838 240.399C146.31 240.009 145.837 239.69 145.546 239.453C144.156 238.383 143.934 234.587 143.892 233.892C143.884 233.708 143.948 233.529 144.07 233.391C144.192 233.254 144.362 233.169 144.545 233.155C144.637 233.147 144.729 233.158 144.816 233.187C144.904 233.216 144.984 233.263 145.053 233.324C145.122 233.385 145.177 233.459 145.217 233.543C145.256 233.626 145.278 233.716 145.282 233.808C145.379 235.671 145.851 237.979 146.421 238.424C146.685 238.647 147.13 238.953 147.644 239.314C150.646 241.455 151.924 242.484 151.563 243.485C151.285 244.292 149.909 244.876 148.784 245.126C149.478 246.753 150.66 250.256 148.7 251.716C146.536 253.071 144.053 253.829 141.502 253.913Z" fill="#231F20"/>
<path d="M133.72 175.078L146.505 235.393L135.596 239.564C135.596 239.564 118.725 185.673 117.168 181.599" fill="#2945FF"/>
<path d="M135.595 240.315C135.498 240.334 135.399 240.334 135.303 240.315C135.216 240.276 135.139 240.218 135.077 240.146C135.015 240.074 134.969 239.989 134.942 239.898C134.775 239.356 118.057 185.979 116.528 181.961C116.484 181.873 116.458 181.778 116.453 181.68C116.448 181.582 116.464 181.485 116.499 181.393C116.534 181.302 116.588 181.219 116.658 181.15C116.727 181.081 116.811 181.028 116.902 180.994C116.994 180.959 117.092 180.944 117.189 180.95C117.287 180.956 117.382 180.983 117.469 181.028C117.556 181.073 117.632 181.137 117.692 181.213C117.753 181.29 117.797 181.379 117.821 181.474C119.28 185.325 133.969 232.14 136.04 238.772L145.767 235.06L133.093 175.273C133.073 175.183 133.07 175.091 133.086 175C133.101 174.91 133.135 174.823 133.184 174.746C133.233 174.668 133.297 174.601 133.372 174.548C133.447 174.496 133.532 174.458 133.621 174.439C133.803 174.408 133.989 174.447 134.144 174.548C134.298 174.648 134.409 174.803 134.455 174.981L147.24 235.282C147.275 235.444 147.25 235.613 147.171 235.758C147.092 235.903 146.964 236.015 146.81 236.075L135.901 240.246C135.809 240.303 135.702 240.328 135.595 240.315Z" fill="#231F20"/>
<path d="M143.6 175.676C143.6 175.676 150.618 197.922 151.785 213.814L143.6 175.676Z" fill="#68E1FD"/>
<path d="M151.785 214.51C151.61 214.51 151.441 214.445 151.313 214.326C151.184 214.207 151.104 214.045 151.09 213.87C149.937 198.186 143.002 176.107 142.933 175.885C142.895 175.715 142.922 175.537 143.009 175.386C143.096 175.235 143.236 175.123 143.402 175.07C143.568 175.018 143.747 175.03 143.905 175.103C144.062 175.177 144.187 175.307 144.253 175.467C144.323 175.69 151.313 197.936 152.48 213.759C152.488 213.85 152.477 213.942 152.449 214.029C152.421 214.117 152.376 214.197 152.317 214.267C152.257 214.337 152.185 214.394 152.103 214.436C152.021 214.478 151.932 214.503 151.841 214.51H151.785Z" fill="#231F20"/>
<path d="M390.271 304.384C390.271 304.384 395.246 279.774 382.725 262.812C382.725 262.812 375.943 265.412 377.777 280.817C379.032 290.458 382.142 299.765 386.935 308.222L390.271 304.384Z" fill="white"/>
<path d="M386.935 308.875C386.822 308.863 386.713 308.826 386.617 308.766C386.521 308.705 386.439 308.624 386.379 308.528C381.546 299.974 378.399 290.572 377.11 280.831C375.248 265.05 382.224 262.186 382.53 262.075C382.676 262.021 382.835 262.015 382.985 262.057C383.135 262.1 383.267 262.189 383.363 262.311C395.871 279.344 391.076 304.204 391.034 304.454C391.007 304.577 390.95 304.692 390.868 304.788L387.532 308.625C387.459 308.71 387.366 308.776 387.263 308.82C387.159 308.863 387.047 308.882 386.935 308.875ZM382.516 263.688C381.126 264.633 377.04 268.512 378.486 280.664C379.713 289.87 382.62 298.773 387.06 306.929L389.603 303.995C390.006 301.743 393.689 279.357 382.516 263.688Z" fill="#231F20"/>
<path d="M385.253 300.853C385.253 300.853 379.444 260.865 358.516 246.628C359.219 256.466 361.325 266.153 364.769 275.395C370.259 289.229 380.292 302.09 380.292 302.09L385.253 300.853Z" fill="white"/>
<path d="M380.292 302.758C380.182 302.759 380.073 302.734 379.975 302.686C379.876 302.638 379.789 302.567 379.723 302.48C379.625 302.355 369.564 289.382 364.102 275.603C360.652 266.284 358.528 256.525 357.793 246.614C357.789 246.479 357.821 246.345 357.887 246.227C357.954 246.11 358.051 246.013 358.168 245.946C358.28 245.875 358.411 245.836 358.544 245.836C358.677 245.836 358.807 245.875 358.919 245.946C369.897 253.441 376.665 267.956 380.403 278.815C382.863 285.952 384.723 293.281 385.962 300.728C385.985 300.903 385.942 301.081 385.842 301.227C385.742 301.373 385.592 301.477 385.42 301.52L380.459 302.716L380.292 302.758ZM359.35 248.046C360.152 257.289 362.2 266.381 365.437 275.075C369.404 284.377 374.491 293.159 380.584 301.228L384.434 300.311C383.655 295.222 377.374 261.644 359.35 248.046Z" fill="#231F20"/>
<path d="M394.314 304.384C394.314 304.384 408.989 266.023 403.125 239.036C403.125 239.036 395.426 246.085 390.27 261.741C385.115 277.397 387.491 304.412 387.491 304.412L394.314 304.384Z" fill="white"/>
<path d="M394.314 305.024H387.476C387.295 305.028 387.12 304.963 386.985 304.841C386.851 304.72 386.768 304.551 386.754 304.371C386.754 304.106 384.461 277.035 389.533 261.421C394.606 245.807 402.263 238.702 402.582 238.41C402.673 238.323 402.786 238.263 402.908 238.236C403.031 238.209 403.159 238.216 403.277 238.257C403.399 238.293 403.508 238.361 403.594 238.454C403.68 238.547 403.738 238.662 403.764 238.786C409.614 265.69 395.078 304.134 394.925 304.565C394.879 304.693 394.797 304.805 394.688 304.886C394.58 304.968 394.449 305.016 394.314 305.024ZM388.13 303.634H393.813C395.412 299.282 407.405 265.273 402.694 240.454C400.512 242.846 394.939 249.798 390.951 261.908C386.351 275.868 387.824 299.379 388.13 303.592V303.634Z" fill="#231F20"/>
<path d="M402.736 300.005C403.32 300.005 418.384 276.368 418.773 255.776C411.983 260.538 406.474 266.905 402.736 274.31C396.857 286.309 395.885 302.035 395.885 302.035L402.736 300.005Z" fill="white"/>
<path d="M395.885 302.758C395.786 302.758 395.689 302.738 395.598 302.699C395.508 302.66 395.426 302.603 395.358 302.531C395.291 302.46 395.238 302.375 395.205 302.282C395.171 302.19 395.156 302.091 395.162 301.993C395.162 301.84 396.218 285.976 402.11 273.99C405.893 266.459 411.49 259.989 418.398 255.165C418.509 255.097 418.636 255.061 418.766 255.061C418.896 255.061 419.023 255.097 419.134 255.165C419.249 255.227 419.344 255.32 419.41 255.433C419.476 255.545 419.51 255.674 419.509 255.804C419.134 274.978 405.446 299.282 402.944 300.672L396.093 302.702L395.885 302.758ZM418.009 257.195C411.868 261.811 406.863 267.77 403.375 274.616C398.483 284.613 397.01 297.377 396.677 301.034L402.388 299.337C403.722 297.766 417.008 276.396 418.009 257.195Z" fill="#231F20"/>
<path d="M400.262 324.851H380.292L372.552 296.153H407.989L400.262 324.851Z" fill="#2945FF"/>
<path d="M400.332 325.546H380.293C380.14 325.548 379.991 325.498 379.87 325.405C379.749 325.311 379.663 325.18 379.626 325.032L371.885 296.334C371.857 296.232 371.853 296.124 371.875 296.02C371.897 295.916 371.943 295.819 372.01 295.736C372.073 295.652 372.155 295.583 372.249 295.535C372.343 295.486 372.447 295.46 372.552 295.458H407.989C408.096 295.459 408.201 295.485 408.296 295.532C408.392 295.579 408.475 295.648 408.541 295.732C408.606 295.816 408.652 295.914 408.674 296.018C408.697 296.122 408.695 296.23 408.67 296.334L400.93 325.032C400.894 325.168 400.817 325.29 400.711 325.382C400.604 325.474 400.472 325.531 400.332 325.546ZM380.876 324.156H399.79L407.155 296.849H373.455L380.876 324.156Z" fill="#231F20"/>
</svg>
