<svg width="190" height="162" viewBox="0 0 190 162" fill="none" xmlns="http://www.w3.org/2000/svg">
<path d="M106.59 0H15.6337V106.639H106.59V0Z" fill="#E6E6E6"/>
<path d="M178.922 6.6033H117.774V63.487H178.922V6.6033Z" fill="#E6E6E6"/>
<path d="M189.8 73.026H146.213V94.884H189.8V73.026Z" fill="#E6E6E6"/>
<path opacity="0.08" d="M92.1305 57.4864C92.1305 57.4864 87.4597 56.2746 86.2921 59.5795C85.1244 62.8845 74.2844 58.5816 72.9805 68.3927C72.2539 73.862 61.855 83.712 48.3293 86.7189C34.8036 89.7257 33.8954 106.646 33.8954 106.646H70.6581L95.0562 70.907L92.1305 57.4864Z" fill="black"/>
<path opacity="0.45" d="M99.538 162C139.726 162 172.304 154.674 172.304 145.637C172.304 136.601 139.726 129.275 99.538 129.275C59.3503 129.275 26.7718 136.601 26.7718 145.637C26.7718 154.674 59.3503 162 99.538 162Z" fill="#E6E6E6"/>
<path d="M88.4258 72.2031C88.4258 72.2031 56.5934 68.8333 57.7935 85.6561C58.9936 102.479 76.8397 138.302 76.8397 138.302H115.938C115.938 138.302 145.61 92.8427 131.176 78.2232C116.742 63.6037 113.44 76.156 88.4258 72.2031Z" fill="#2945FF"/>
<path d="M76.7814 143.771L100.576 150.187L121.685 139.481L124.89 133.778H103.612H69.7624L76.7814 143.771Z" fill="#24285B"/>
<path d="M73.071 90.4191C76.0486 80.459 70.4178 69.5786 59.7659 77.5493C52.4614 83.0122 43.8011 100.438 43.3534 116.554C42.3155 153.615 87.8228 113.748 93.4796 92.5252L87.8812 89.2203C87.8812 89.2203 78.4424 106.996 68.1603 110.845C60.739 113.625 68.6663 105.136 73.071 90.4191Z" fill="#68E1FD"/>
<path opacity="0.46" d="M73.071 90.4191C76.0486 80.459 70.4178 69.5786 59.7659 77.5493C52.4614 83.0122 43.8011 100.438 43.3534 116.554C42.3155 153.615 87.8228 113.748 93.4796 92.5252L87.8812 89.2203C87.8812 89.2203 78.4424 106.996 68.1603 110.845C60.739 113.625 68.6663 105.136 73.071 90.4191Z" fill="#2945FF"/>
<path d="M88.4258 72.2031C88.4258 72.2031 83.528 79.9016 88.3285 82.6558C93.129 85.4099 94.6665 82.2669 94.6665 82.2669C94.6665 82.2669 98.2409 86.4791 101.439 83.2131C104.637 79.947 104.183 73.4408 100.927 70.4405C97.67 67.4401 88.4258 72.2031 88.4258 72.2031Z" fill="white"/>
<path d="M89.5415 72.4363C89.7726 73.861 89.9221 75.2976 89.9892 76.7392C90.054 78.6833 90.6833 81.6318 93.7971 82.2021C98.5911 83.0899 99.8626 75.521 99.8626 75.521C99.8626 75.521 102.879 68.3927 97.6894 67.453C92.9927 66.5458 88.5879 65.9237 89.5415 72.4363Z" fill="#F4A28C"/>
<path opacity="0.08" d="M108.018 83.1158C108.018 83.1158 105.046 89.3498 112.559 102.135C116.859 109.458 103.606 121.673 103.606 121.673L70.6322 124.972L76.8403 138.302H115.938C115.938 138.302 133.116 110.385 134.44 96.0245C135.763 81.6642 108.018 83.1158 108.018 83.1158Z" fill="#2945FF"/>
<path d="M99.5388 75.7995C99.5388 75.7995 99.8112 73.4991 101.816 73.5963C103.82 73.6935 103.035 77.9899 99.5388 75.7995Z" fill="#F4A28C"/>
<path d="M90.6961 74.5165C90.6961 74.5165 91.3967 72.3132 89.5349 71.568C87.6731 70.8228 86.6027 75.0674 90.6961 74.5165Z" fill="#F4A28C"/>
<path d="M156.936 89.8942C160.222 89.8942 162.885 87.2337 162.885 83.9518C162.885 80.6699 160.222 78.0094 156.936 78.0094C153.651 78.0094 150.988 80.6699 150.988 83.9518C150.988 87.2337 153.651 89.8942 156.936 89.8942Z" fill="#C9C9C9"/>
<path d="M78.332 131.75L75.575 106.646H117.774L113.564 133.033L114.167 136.416L77.8844 136.701L78.332 131.75Z" fill="#FFD200"/>
<path opacity="0.08" d="M153.232 84.8719C153.232 84.8719 164.591 86.2198 166.855 94.8839H159.161L153.232 84.8719Z" fill="black"/>
<path d="M95.3154 143.771C95.3154 143.771 103.327 146.571 100.577 150.187C97.826 153.803 93.4796 147.795 93.4796 147.795L95.3154 143.771Z" fill="#68E1FD"/>
<path opacity="0.08" d="M117.773 106.646L109.411 117.662C104.529 124.101 97.9342 129.041 90.3782 131.919L77.884 136.682L111.345 136.416H114.167L113.563 133.033L117.773 106.646Z" fill="black"/>
<path d="M89.5419 72.4364C89.5419 72.4364 81.7573 71.3218 85.2474 65.6191C88.7375 59.9165 89.4835 64.187 91.1247 59.7869C92.766 55.3868 94.245 54.512 96.6453 56.3977C99.0455 58.2835 96.7231 62.23 100.356 61.1348C103.989 60.0396 106.48 58.9833 107.167 61.9902C107.855 64.997 107.167 66.4421 104.826 67.4725C102.484 68.5028 106.162 72.553 100.285 74.2055C94.4072 75.8579 91.3388 69.436 91.3388 69.436L89.5419 72.4364Z" fill="#24285B"/>
<path d="M95.562 142.378C95.562 142.378 63.1977 125.873 60.4407 134.653C57.6836 143.434 79.9864 148.534 94.3814 149.065L95.562 142.378Z" fill="#24285B"/>
<path d="M97.0929 123.773C99.0885 123.773 100.706 122.157 100.706 120.164C100.706 118.17 99.0885 116.554 97.0929 116.554C95.0973 116.554 93.4796 118.17 93.4796 120.164C93.4796 122.157 95.0973 123.773 97.0929 123.773Z" fill="white"/>
<path d="M103.431 143.667C103.431 143.667 129.243 118.116 134.569 125.646C139.895 133.176 120.168 144.808 106.616 149.681L103.431 143.667Z" fill="#24285B"/>
<path d="M104.443 145.598C104.443 145.598 96.7946 152.403 101.199 154.405C105.604 156.408 106.571 149.681 106.571 149.681L104.443 145.598Z" fill="#68E1FD"/>
<path d="M108.017 83.1158C107.73 80.244 108.592 77.3754 110.415 75.1366C112.239 72.8977 114.874 71.4703 117.748 71.1662C123.586 70.5182 131.254 70.9264 138.072 75.1904C151.305 83.4787 165.966 90.095 162.327 105.103C158.688 120.112 132.486 126.43 132.486 126.43L128.983 120.727C128.983 120.727 152.129 112.951 147.919 100.697C144.105 89.6997 110.508 108.084 108.017 83.1158Z" fill="#68E1FD"/>
<path opacity="0.46" d="M108.017 83.1158C107.73 80.244 108.592 77.3754 110.415 75.1366C112.239 72.8977 114.874 71.4703 117.748 71.1662C123.586 70.5182 131.254 70.9264 138.072 75.1904C151.305 83.4787 165.966 90.095 162.327 105.103C158.688 120.112 132.486 126.43 132.486 126.43L128.983 120.727C128.983 120.727 152.129 112.951 147.919 100.697C144.105 89.6997 110.508 108.084 108.017 83.1158Z" fill="#2945FF"/>
<path d="M129.561 121.673C129.561 121.673 122.256 126.605 124.91 127.966C127.563 129.327 132.046 125.711 132.046 125.711L129.561 121.673Z" fill="#F4A28C"/>
<path d="M88.8606 89.797C88.8606 89.797 91.4555 83.3945 95.0558 83.9129C98.6562 84.4313 93.0513 92.2724 93.0513 92.2724L88.8606 89.797Z" fill="#F4A28C"/>
<path d="M52.2209 12.7207H25.8247V48.8676H52.2209V12.7207Z" fill="#C9C9C9"/>
<path d="M145.039 13.5631H124.624V32.4271H145.039V13.5631Z" fill="#C9C9C9"/>
<path opacity="0.44" d="M145.039 37.6957H124.624V56.5597H145.039V37.6957Z" fill="#C9C9C9"/>
<path opacity="0.44" d="M172.142 37.6957H151.727V56.5597H172.142V37.6957Z" fill="#C9C9C9"/>
<path opacity="0.63" d="M126.149 28.876L130.139 22.7198L134.835 28.2086L139.318 20.3286L143.515 28.9927V31.17H126.149V28.876Z" fill="white"/>
<path d="M134.673 21.6182C135.798 21.6182 136.71 20.7072 136.71 19.5834C136.71 18.4596 135.798 17.5486 134.673 17.5486C133.548 17.5486 132.636 18.4596 132.636 19.5834C132.636 20.7072 133.548 21.6182 134.673 21.6182Z" fill="white"/>
<path d="M172.305 13.5631H151.89V32.4271H172.305V13.5631Z" fill="#C9C9C9"/>
<path opacity="0.63" d="M153.414 28.876L157.404 22.7198L162.094 28.2086L166.583 20.3286L170.78 28.9927V31.17H153.414V28.876Z" fill="white"/>
<path d="M161.932 21.6182C163.057 21.6182 163.969 20.7072 163.969 19.5834C163.969 18.4596 163.057 17.5486 161.932 17.5486C160.807 17.5486 159.895 18.4596 159.895 19.5834C159.895 20.7072 160.807 21.6182 161.932 21.6182Z" fill="white"/>
<path d="M39.3704 61.7375H0V84.3082H39.3704V61.7375Z" fill="#FFD200"/>
<path d="M14.3951 78.5796C14.1918 78.5836 13.9939 78.5146 13.8372 78.3852L7.99876 73.7713C7.89228 73.6881 7.80603 73.582 7.74649 73.4608C7.68694 73.3395 7.65565 73.2064 7.65495 73.0714C7.6553 72.9361 7.68574 72.8025 7.74407 72.6803C7.80241 72.5582 7.88719 72.4505 7.99228 72.3651L13.8307 67.6669C14.0174 67.5174 14.2559 67.448 14.4937 67.4742C14.7315 67.5003 14.9493 67.6197 15.0989 67.8062C15.2486 67.9927 15.318 68.2309 15.2919 68.4685C15.2657 68.7061 15.1461 68.9236 14.9595 69.0731L9.9968 73.0585L14.953 76.9466C15.0997 77.0626 15.2067 77.2213 15.2591 77.4008C15.3115 77.5802 15.3067 77.7715 15.2454 77.9481C15.1841 78.1247 15.0693 78.2779 14.9169 78.3864C14.7646 78.4949 14.5822 78.5534 14.3951 78.5537V78.5796Z" fill="#24285B"/>
<path d="M24.9691 78.5796C24.8327 78.5804 24.698 78.5498 24.5754 78.4903C24.4528 78.4307 24.3456 78.3438 24.262 78.2362C24.1143 78.0488 24.047 77.8104 24.075 77.5735C24.103 77.3367 24.2239 77.1205 24.4112 76.9725L29.3674 73.0844L24.4047 69.099C24.2146 68.9495 24.0917 68.7307 24.0631 68.4906C24.0345 68.2506 24.1026 68.0091 24.2522 67.8192C24.4019 67.6293 24.621 67.5065 24.8613 67.478C25.1015 67.4494 25.3433 67.5174 25.5335 67.6669L31.3719 72.3651C31.477 72.4505 31.5617 72.5582 31.6201 72.6803C31.6784 72.8025 31.7089 72.9361 31.7092 73.0714C31.7085 73.2064 31.6772 73.3395 31.6177 73.4608C31.5581 73.582 31.4719 73.6881 31.3654 73.7713L25.527 78.3852C25.3697 78.5136 25.1721 78.5825 24.9691 78.5796Z" fill="#24285B"/>
<path d="M17.2299 78.5796C17.1006 78.5787 16.9727 78.5523 16.8537 78.5018C16.6368 78.4005 16.4687 78.2176 16.3861 77.9931C16.3035 77.7686 16.313 77.5206 16.4125 77.303L20.6681 67.9973C20.7151 67.8867 20.7838 67.7865 20.8701 67.7028C20.9565 67.619 21.0588 67.5534 21.1709 67.5098C21.283 67.4661 21.4028 67.4454 21.5231 67.4487C21.6434 67.452 21.7618 67.4793 21.8713 67.5291C21.9809 67.5788 22.0794 67.65 22.161 67.7383C22.2426 67.8267 22.3056 67.9305 22.3465 68.0436C22.3873 68.1567 22.405 68.2768 22.3987 68.3968C22.3923 68.5169 22.3619 68.6344 22.3093 68.7426L18.0538 78.0353C17.9837 78.1957 17.8686 78.3325 17.7224 78.4291C17.5762 78.5257 17.4052 78.578 17.2299 78.5796Z" fill="#24285B"/>
<path d="M39.0329 24.8454C41.05 24.8454 42.6852 23.2119 42.6852 21.197C42.6852 19.182 41.05 17.5486 39.0329 17.5486C37.0158 17.5486 35.3807 19.182 35.3807 21.197C35.3807 23.2119 37.0158 24.8454 39.0329 24.8454Z" fill="white"/>
<path opacity="0.56" d="M46.8112 29.4398H31.7156V32.4272H46.8112V29.4398Z" fill="white"/>
<path opacity="0.19" d="M46.8112 36.1987H31.7156V39.1861H46.8112V36.1987Z" fill="white"/>
<path opacity="0.46" d="M98.8312 12.7207H61.1085V35.0452H98.8312V12.7207Z" fill="white"/>
<path d="M98.8312 41.4219H61.1085V48.8677H98.8312V41.4219Z" fill="white"/>
<path d="M98.8315 41.4219H87.8812V48.8677H98.8315V41.4219Z" fill="#C9C9C9"/>
<path d="M181.996 80.1738H167.4V82.8178H181.996V80.1738Z" fill="#C9C9C9"/>
<path opacity="0.45" d="M181.996 85.0858H167.4V87.7298H181.996V85.0858Z" fill="#C9C9C9"/>
</svg>
