<svg width="3" height="3" viewBox="0 0 3 3" fill="none" xmlns="http://www.w3.org/2000/svg">
<path d="M0.938196 2.9999C0.87777 3.00053 0.817895 2.98837 0.762499 2.96423C0.707104 2.94008 0.657441 2.90449 0.616771 2.8598C0.204686 2.38179 -0.339269 1.35985 0.278858 0.585145C0.417059 0.40353 0.595305 0.25625 0.799718 0.154761C1.00413 0.0532714 1.2292 0.000310213 1.45742 0C1.73833 0.00477477 2.01425 0.075063 2.26322 0.205264C2.51218 0.335465 2.72731 0.52198 2.89148 0.749973C2.93664 0.802421 2.96787 0.865406 2.98227 0.933104C2.99667 1.0008 2.99379 1.07103 2.9739 1.13732C2.95658 1.20317 2.92354 1.26383 2.8776 1.31407C2.83166 1.36432 2.7742 1.40265 2.71016 1.42578C2.38049 1.54116 1.49863 2.00268 1.35028 2.67024C1.33442 2.7469 1.29748 2.8176 1.2436 2.87439C1.18972 2.93118 1.12105 2.97179 1.04534 2.99166L0.938196 2.9999ZM1.47391 0.848873C1.37384 0.850359 1.27536 0.87405 1.18556 0.918233C1.09577 0.962416 1.01691 1.02599 0.954677 1.10436C0.907721 1.19473 0.883208 1.29509 0.883208 1.39693C0.883208 1.49878 0.907721 1.59913 0.954677 1.68951C1.20292 1.38487 1.50454 1.12794 1.84478 0.931287C1.73087 0.881344 1.60528 0.86422 1.48215 0.88184L1.47391 0.848873Z" fill="#231F20"/>
</svg>
