<svg width="26" height="39" viewBox="0 0 26 39" fill="none" xmlns="http://www.w3.org/2000/svg">
<path d="M20.4391 38.7038C16.8654 38.7038 6.72466 37.4734 0.302916 36.6301C0.253353 36.623 0.205856 36.6055 0.163591 36.5787C0.121327 36.5519 0.0852644 36.5163 0.0577979 36.4745C0.0303315 36.4326 0.0120953 36.3854 0.00430002 36.336C-0.00349521 36.2865 -0.000668629 36.236 0.0125905 36.1877L10.2708 1.75719C10.2898 1.69075 10.3283 1.63152 10.3812 1.58716C10.4342 1.54281 10.4993 1.51536 10.568 1.50834L25.6235 0.0014414C25.6745 -0.00327173 25.7258 0.00360862 25.7737 0.0215659C25.8216 0.0395232 25.8648 0.0680922 25.9 0.105128C25.9372 0.140081 25.9653 0.183445 25.9822 0.231565C25.999 0.279686 26.004 0.331154 25.9968 0.381624C24.5659 13.1695 21.8493 37.5356 21.8493 38.2338C21.843 38.3469 21.7935 38.4533 21.711 38.531C21.3057 38.6844 20.8707 38.7435 20.4391 38.7038ZM0.766054 36.0149C8.12099 36.955 19.5405 38.2614 21.1442 38.0333C21.4069 35.0472 24.7733 4.90922 25.2364 0.754887L10.8445 2.19958L0.766054 36.0149Z" fill="#231F20"/>
</svg>
