<svg width="13" height="11" viewBox="0 0 13 11" fill="none" xmlns="http://www.w3.org/2000/svg">
<path d="M4.24072 0.0918005L3.83586 0.167278C2.61138 0.349974 1.49732 0.977844 0.706912 1.9307C0.263807 2.60774 0.0192872 3.39539 0.00109478 4.20433C-0.0170976 5.01326 0.191759 5.81111 0.60398 6.50738C2.40176 9.74605 6.77957 10.6243 10.1556 10.9606C10.6332 11.0384 11.1226 11.0007 11.5828 10.8508C11.8099 10.7732 12.0075 10.6274 12.1487 10.4334C12.2899 10.2394 12.3678 10.0066 12.3719 9.76664C12.3428 9.56932 12.2648 9.38242 12.145 9.22301C12.0251 9.06359 11.8672 8.93674 11.6857 8.85404C11.332 8.69011 10.9545 8.58358 10.5672 8.53842C8.46754 8.19534 6.25807 7.94146 4.33678 6.97397C3.21831 6.40446 1.65383 5.10762 2.47038 3.70785C2.75618 3.26467 3.16687 2.91608 3.6506 2.70606C5.57875 1.78661 7.41084 2.48649 9.31155 3.04914C9.44972 3.0998 9.59701 3.12084 9.74384 3.1109C9.92553 3.06093 10.0825 2.94595 10.185 2.78782C10.2875 2.6297 10.3283 2.43944 10.2996 2.2532C10.2379 1.42294 9.40761 0.880881 8.62537 0.57211C7.22847 0.0416465 5.71934 -0.123668 4.24072 0.0918005Z" fill="white"/>
</svg>
