<svg width="19" height="22" viewBox="0 0 19 22" fill="none" xmlns="http://www.w3.org/2000/svg">
<path d="M15.1072 21.4382C15.0539 21.4377 15.0014 21.4251 14.9537 21.4012C14.906 21.3774 14.8644 21.343 14.832 21.3006L0.0739123 2.09842C0.0405934 2.05499 0.0176837 2.00449 0.0069484 1.95081C-0.00378687 1.89714 -0.00206407 1.84172 0.0119876 1.78881C0.109133 1.31142 0.359078 0.878647 0.724025 0.555913C1.08897 0.233178 1.54908 0.0380372 2.03477 0C2.0824 0.00048163 2.12944 0.0104657 2.17316 0.0293685C2.21687 0.0482713 2.25637 0.0757149 2.28934 0.110083L18.8982 17.1589C18.9443 17.2046 18.9766 17.2625 18.9912 17.3258C19.0058 17.3891 19.0022 17.4553 18.9808 17.5166C18.9615 17.5782 18.9256 17.6332 18.877 17.6757C18.8284 17.7182 18.7691 17.7465 18.7055 17.7574C17.8669 17.8721 17.0913 18.2656 16.5034 18.8746C15.9156 19.4836 15.5498 20.2727 15.465 21.1149C15.4592 21.1863 15.4317 21.2543 15.3862 21.3096C15.3407 21.365 15.2794 21.4051 15.2104 21.4245L15.1072 21.4382ZM0.748171 1.81633L14.9283 20.2618C15.128 19.5358 15.5105 18.8731 16.0393 18.3371C16.5681 17.8011 17.2255 17.4096 17.9487 17.2001L1.90405 0.729289C1.62966 0.785773 1.37632 0.917295 1.17225 1.10922C0.968174 1.30114 0.821368 1.54593 0.748171 1.81633Z" fill="#231F20"/>
</svg>
