<svg width="186" height="8" viewBox="0 0 186 8" fill="none" xmlns="http://www.w3.org/2000/svg">
<path d="M185.659 7.82658H0.341184C0.250697 7.82658 0.163915 7.79063 0.0999303 7.72665C0.0359458 7.66266 0 7.57589 0 7.4854V0.341176C0.00174691 0.251237 0.0382546 0.165478 0.101864 0.10187C0.165474 0.0382615 0.251243 0.00174687 0.341184 0H185.659C185.749 0.00174687 185.835 0.0382615 185.898 0.10187C185.962 0.165478 185.998 0.251237 186 0.341176V7.4854C186 7.57589 185.964 7.66266 185.9 7.72665C185.836 7.79063 185.749 7.82658 185.659 7.82658ZM0.682369 7.14423H185.318V0.682352H0.682369V7.14423Z" fill="#D1D3D4"/>
</svg>
