<svg width="23" height="11" viewBox="0 0 23 11" fill="none" xmlns="http://www.w3.org/2000/svg">
<path d="M12.3776 10.3563C12.0157 10.3563 11.6537 10.3563 11.2917 10.3563C4.83765 10.0968 -0.120697 7.62452 0.00223705 4.71514C0.125171 1.80577 5.26792 -0.243085 11.7151 0.0232663C18.1624 0.289618 23.1207 2.75507 22.9978 5.66445C22.9431 7.09865 21.6318 8.39626 19.3712 9.24312C17.1258 10.0313 14.7568 10.4084 12.3776 10.3563ZM10.6634 0.651581C5.24743 0.651581 0.773985 2.42726 0.678369 4.74929C0.582754 7.1806 5.45914 9.44118 11.319 9.68021C13.9795 9.8353 16.6443 9.46158 19.1595 8.58066C21.1401 7.82258 22.3012 6.73668 22.349 5.60981C22.4514 3.17167 17.5682 0.911102 11.7151 0.672069L10.6634 0.651581Z" fill="#231F20"/>
</svg>
