<svg width="167" height="167" viewBox="0 0 167 167" fill="none" xmlns="http://www.w3.org/2000/svg">
<rect width="167" height="167" rx="24" fill="#F0EEFF"/>
<path d="M129.046 39.8257H36.988C34.7854 39.8257 32.9998 41.6113 32.9998 43.8139V108.589C32.9998 110.791 34.7854 112.577 36.988 112.577H129.046C131.248 112.577 133.034 110.791 133.034 108.589V43.8139C133.034 41.6113 131.248 39.8257 129.046 39.8257Z" fill="#E2E2E2"/>
<path d="M34.826 39.0001H131.196C131.68 39.0001 132.145 39.1925 132.487 39.5349C132.83 39.8774 133.022 40.3419 133.022 40.8263V97.2844H32.9998V40.8263C32.9998 40.3419 33.1922 39.8774 33.5347 39.5349C33.8772 39.1925 34.3417 39.0001 34.826 39.0001Z" fill="#F2F2F2"/>
<path d="M83.1214 107.08C84.2469 107.08 85.1592 106.168 85.1592 105.042C85.1592 103.917 84.2469 103.004 83.1214 103.004C81.996 103.004 81.0836 103.917 81.0836 105.042C81.0836 106.168 81.996 107.08 83.1214 107.08Z" fill="#24285B"/>
<path d="M84.3381 106.675C84.5037 106.263 84.5303 105.809 84.4137 105.38C84.2972 104.952 84.0439 104.573 83.6925 104.302C83.3411 104.031 82.9107 103.882 82.4667 103.877C82.0228 103.873 81.5896 104.014 81.2331 104.279C81.3506 103.986 81.5341 103.726 81.7693 103.516C82.0046 103.307 82.2851 103.155 82.5889 103.072C82.8928 102.99 83.2116 102.979 83.5205 103.04C83.8293 103.101 84.1197 103.233 84.369 103.426C84.6182 103.618 84.8195 103.865 84.957 104.149C85.0946 104.432 85.1646 104.743 85.1616 105.058C85.1586 105.373 85.0827 105.683 84.9398 105.963C84.7969 106.244 84.591 106.488 84.3381 106.675Z" fill="#13183F"/>
<path d="M95.8289 112.577H70.4093L68.3416 126.632H97.8966L95.8289 112.577Z" fill="#E2E2E2"/>
<path d="M69.6687 117.609H96.5695L95.8289 112.577H70.4093L69.6687 117.609Z" fill="#C3C7C9"/>
<path d="M99.8151 126.218H66.4214C66.2258 126.218 66.0672 126.377 66.0672 126.573V127.518C66.0672 127.713 66.2258 127.872 66.4214 127.872H99.8151C100.011 127.872 100.169 127.713 100.169 127.518V126.573C100.169 126.377 100.011 126.218 99.8151 126.218Z" fill="#C3C7C9"/>
<path d="M128.898 43.1331H36.9256V93.3559H128.898V43.1331Z" fill="#F2F2F2"/>
<path d="M66.0672 39.0001H131.206C131.69 39.0001 132.154 39.1925 132.497 39.5349C132.839 39.8774 133.032 40.3419 133.032 40.8263V97.2844H66.0672V39.0001Z" fill="#24285B"/>
<path d="M47.4282 49.2029H41.5126C41.2686 49.2029 41.0346 49.1059 40.8621 48.9334C40.6895 48.7609 40.5926 48.5269 40.5926 48.2829C40.5926 48.0389 40.6895 47.8049 40.8621 47.6323C41.0346 47.4598 41.2686 47.3629 41.5126 47.3629H47.4282C47.6722 47.3629 47.9062 47.4598 48.0787 47.6323C48.2513 47.8049 48.3482 48.0389 48.3482 48.2829C48.3482 48.5269 48.2513 48.7609 48.0787 48.9334C47.9062 49.1059 47.6722 49.2029 47.4282 49.2029Z" fill="#C3C7C9"/>
<path d="M60.2111 49.2029H51.2526C51.0086 49.2029 50.7746 49.1059 50.6021 48.9334C50.4296 48.7609 50.3326 48.5269 50.3326 48.2829C50.3326 48.0389 50.4296 47.8049 50.6021 47.6323C50.7746 47.4598 51.0086 47.3629 51.2526 47.3629H60.2111C60.4551 47.3629 60.6891 47.4598 60.8617 47.6323C61.0342 47.8049 61.1311 48.0389 61.1311 48.2829C61.1311 48.5269 61.0342 48.7609 60.8617 48.9334C60.6891 49.1059 60.4551 49.2029 60.2111 49.2029Z" fill="#C3C7C9"/>
<path d="M49.0144 57.6577H44.4696C44.2256 57.6577 43.9916 57.5608 43.8191 57.3882C43.6466 57.2157 43.5496 56.9817 43.5496 56.7377C43.5496 56.4937 43.6466 56.2597 43.8191 56.0871C43.9916 55.9146 44.2256 55.8177 44.4696 55.8177H49.0144C49.2584 55.8177 49.4924 55.9146 49.665 56.0871C49.8375 56.2597 49.9344 56.4937 49.9344 56.7377C49.9344 56.9817 49.8375 57.2157 49.665 57.3882C49.4924 57.5608 49.2584 57.6577 49.0144 57.6577Z" fill="#C3C7C9"/>
<path d="M60.6021 57.6577H52.8396C52.5956 57.6577 52.3616 57.5608 52.1891 57.3882C52.0166 57.2157 51.9196 56.9817 51.9196 56.7377C51.9196 56.4937 52.0166 56.2597 52.1891 56.0871C52.3616 55.9146 52.5956 55.8177 52.8396 55.8177H60.6021C60.8461 55.8177 61.0801 55.9146 61.2527 56.0871C61.4252 56.2597 61.5221 56.4937 61.5221 56.7377C61.5221 56.9817 61.4252 57.2157 61.2527 57.3882C61.0801 57.5608 60.8461 57.6577 60.6021 57.6577Z" fill="#C3C7C9"/>
<path d="M47.6235 66.0665H41.7079C41.4639 66.0665 41.2299 65.9696 41.0574 65.797C40.8848 65.6245 40.7879 65.3905 40.7879 65.1465C40.7879 64.9025 40.8848 64.6685 41.0574 64.496C41.2299 64.3234 41.4639 64.2265 41.7079 64.2265H47.6235C47.8675 64.2265 48.1015 64.3234 48.274 64.496C48.4466 64.6685 48.5435 64.9025 48.5435 65.1465C48.5435 65.3905 48.4466 65.6245 48.274 65.797C48.1015 65.9696 47.8675 66.0665 47.6235 66.0665Z" fill="#C3C7C9"/>
<path d="M60.4043 66.0664H51.4481C51.2041 66.0664 50.9701 65.9695 50.7976 65.797C50.625 65.6244 50.5281 65.3904 50.5281 65.1464C50.5281 64.9024 50.625 64.6684 50.7976 64.4959C50.9701 64.3234 51.2041 64.2264 51.4481 64.2264H60.4043C60.6483 64.2264 60.8823 64.3234 61.0549 64.4959C61.2274 64.6684 61.3243 64.9024 61.3243 65.1464C61.3243 65.3904 61.2274 65.6244 61.0549 65.797C60.8823 65.9695 60.6483 66.0664 60.4043 66.0664Z" fill="#C3C7C9"/>
<path d="M49.2051 74.5212H44.6649C44.4209 74.5212 44.1869 74.4243 44.0144 74.2518C43.8419 74.0792 43.7449 73.8452 43.7449 73.6012C43.7449 73.3572 43.8419 73.1232 44.0144 72.9507C44.1869 72.7781 44.4209 72.6812 44.6649 72.6812H49.2051C49.4491 72.6812 49.6831 72.7781 49.8557 72.9507C50.0282 73.1232 50.1251 73.3572 50.1251 73.6012C50.1251 73.8452 50.0282 74.0792 49.8557 74.2518C49.6831 74.4243 49.4491 74.5212 49.2051 74.5212Z" fill="#C3C7C9"/>
<path d="M60.7953 74.5213H53.0351C52.7911 74.5213 52.5571 74.4243 52.3846 74.2518C52.2121 74.0793 52.1151 73.8453 52.1151 73.6013C52.1151 73.3573 52.2121 73.1233 52.3846 72.9507C52.5571 72.7782 52.7911 72.6813 53.0351 72.6813H60.7953C61.0393 72.6813 61.2733 72.7782 61.4459 72.9507C61.6184 73.1233 61.7153 73.3573 61.7153 73.6013C61.7153 73.8453 61.6184 74.0793 61.4459 74.2518C61.2733 74.4243 61.0393 74.5213 60.7953 74.5213Z" fill="#C3C7C9"/>
<path d="M48.0142 82.5965H42.0986C41.8546 82.5965 41.6206 82.4996 41.4481 82.3271C41.2755 82.1545 41.1786 81.9205 41.1786 81.6765C41.1786 81.4325 41.2755 81.1985 41.4481 81.026C41.6206 80.8535 41.8546 80.7565 42.0986 80.7565H48.0142C48.2582 80.7565 48.4922 80.8535 48.6648 81.026C48.8373 81.1985 48.9342 81.4325 48.9342 81.6765C48.9342 81.9205 48.8373 82.1545 48.6648 82.3271C48.4922 82.4996 48.2582 82.5965 48.0142 82.5965Z" fill="#C3C7C9"/>
<path d="M60.795 82.5965H51.8388C51.5948 82.5965 51.3608 82.4996 51.1882 82.3271C51.0157 82.1545 50.9188 81.9205 50.9188 81.6765C50.9188 81.4325 51.0157 81.1985 51.1882 81.026C51.3608 80.8535 51.5948 80.7565 51.8388 80.7565H60.795C61.039 80.7565 61.273 80.8535 61.4455 81.026C61.618 81.1985 61.715 81.4325 61.715 81.6765C61.715 81.9205 61.618 82.1545 61.4455 82.3271C61.273 82.4996 61.039 82.5965 60.795 82.5965Z" fill="#C3C7C9"/>
<path d="M77.1235 46.6797L74.3497 47.7516L77.1235 48.8211V49.4766L73.6229 48.0966V47.4066L77.1235 46.0266V46.6797Z" fill="#0099F5"/>
<path d="M81.1339 50.2586C80.8107 50.0839 80.5418 49.8237 80.3565 49.5065C80.1725 49.1726 80.076 48.7975 80.076 48.4163C80.076 48.035 80.1725 47.66 80.3565 47.3261C80.5405 47.0078 80.8097 46.7473 81.1339 46.574C81.4817 46.3906 81.8701 46.298 82.2632 46.3049C82.6119 46.2994 82.9567 46.3783 83.2683 46.5349C83.5591 46.6788 83.7996 46.9073 83.9583 47.1904L83.3879 47.5584C83.2678 47.3699 83.1005 47.2161 82.9026 47.1122C82.7044 47.0124 82.4851 46.9619 82.2632 46.965C82.0081 46.961 81.7562 47.0227 81.5318 47.1444C81.3169 47.2622 81.1404 47.4395 81.0235 47.655C80.9026 47.8921 80.8395 48.1546 80.8395 48.4209C80.8395 48.6871 80.9026 48.9496 81.0235 49.1868C81.1404 49.4028 81.3168 49.5809 81.5318 49.6997C81.7562 49.8213 82.0081 49.8831 82.2632 49.8791C82.4853 49.8814 82.7046 49.8301 82.9026 49.7296C83.1004 49.6265 83.2677 49.4735 83.3879 49.2857L83.9583 49.6445C83.7994 49.9284 83.559 50.1583 83.2683 50.3046C82.9571 50.4621 82.612 50.5411 82.2632 50.5346C81.8693 50.5414 81.4803 50.4463 81.1339 50.2586Z" fill="#0099F5"/>
<path d="M85.5226 50.2586C85.2014 50.0837 84.9347 49.8234 84.7521 49.5065C84.5717 49.1714 84.4773 48.7968 84.4773 48.4163C84.4773 48.0358 84.5717 47.6612 84.7521 47.3261C84.9335 47.0082 85.2004 46.7476 85.5226 46.574C85.865 46.3971 86.2447 46.3048 86.6301 46.3048C87.0154 46.3048 87.3952 46.3971 87.7375 46.574C88.0584 46.7478 88.3238 47.0085 88.5034 47.3261C88.686 47.6605 88.7817 48.0353 88.7817 48.4163C88.7817 48.7973 88.686 49.1721 88.5034 49.5065C88.3225 49.8231 88.0574 50.0835 87.7375 50.2586C87.396 50.4383 87.0159 50.5322 86.6301 50.5322C86.2442 50.5322 85.8641 50.4383 85.5226 50.2586ZM87.3465 49.6928C87.5582 49.5717 87.7313 49.393 87.8456 49.1776C87.9637 48.9408 88.0251 48.6798 88.0251 48.4151C88.0251 48.1505 87.9637 47.8895 87.8456 47.6527C87.7324 47.4384 87.5599 47.2612 87.3488 47.1421C87.1288 47.0243 86.8831 46.9627 86.6335 46.9627C86.384 46.9627 86.1382 47.0243 85.9182 47.1421C85.7074 47.2623 85.5345 47.4392 85.4191 47.6527C85.2982 47.8887 85.2352 48.15 85.2352 48.4151C85.2352 48.6803 85.2982 48.9416 85.4191 49.1776C85.535 49.3919 85.7077 49.5701 85.9182 49.6928C86.1373 49.8134 86.3834 49.8766 86.6335 49.8766C86.8836 49.8766 87.1297 49.8134 87.3488 49.6928H87.3465Z" fill="#0099F5"/>
<path d="M96.2406 46.758C96.5442 47.0616 96.7006 47.5078 96.7006 48.1035V50.4863H95.9508V48.1863C95.975 47.8604 95.8766 47.5372 95.6748 47.2801C95.5725 47.1748 95.4486 47.093 95.3116 47.0402C95.1746 46.9873 95.0278 46.9648 94.8813 46.9742C94.7136 46.966 94.5461 46.9935 94.3899 47.055C94.2337 47.1164 94.0923 47.2104 93.9751 47.3307C93.7344 47.6134 93.6139 47.9791 93.6393 48.3496V50.484H92.8826V48.184C92.9068 47.8581 92.8084 47.5349 92.6066 47.2778C92.5043 47.1725 92.3804 47.0907 92.2434 47.0379C92.1064 46.985 91.9596 46.9625 91.8131 46.9719C91.6455 46.964 91.478 46.9917 91.3219 47.0531C91.1657 47.1145 91.0243 47.2084 90.9069 47.3284C90.6662 47.6111 90.5457 47.9768 90.5711 48.3473V50.4817H89.8213V46.3417H90.5389V46.9604C90.6897 46.7473 90.8945 46.5782 91.1323 46.4705C91.3963 46.3555 91.6817 46.2983 91.9695 46.3026C92.2679 46.297 92.5631 46.3641 92.8297 46.4981C93.0755 46.6253 93.2768 46.8242 93.407 47.0685C93.5685 46.8262 93.7927 46.6322 94.0556 46.5073C94.3498 46.3695 94.6715 46.3003 94.9963 46.3049C95.2236 46.2926 95.4509 46.3265 95.6647 46.4043C95.8786 46.4822 96.0745 46.6025 96.2406 46.758Z" fill="#0099F5"/>
<path d="M95.1274 69.2842H73.6201C73.3761 69.2842 73.1421 69.1872 72.9696 69.0147C72.7971 68.8422 72.7001 68.6082 72.7001 68.3642C72.7001 68.1202 72.7971 67.8862 72.9696 67.7136C73.1421 67.5411 73.3761 67.4442 73.6201 67.4442H95.1274C95.3714 67.4442 95.6054 67.5411 95.778 67.7136C95.9505 67.8862 96.0474 68.1202 96.0474 68.3642C96.0474 68.6082 95.9505 68.8422 95.778 69.0147C95.6054 69.1872 95.3714 69.2842 95.1274 69.2842Z" fill="#0099F5"/>
<path d="M125.579 60.5993H73.6201C73.3761 60.5993 73.1421 60.5024 72.9696 60.3299C72.7971 60.1573 72.7001 59.9233 72.7001 59.6793C72.7001 59.4353 72.7971 59.2013 72.9696 59.0288C73.1421 58.8563 73.3761 58.7593 73.6201 58.7593H125.579C125.823 58.7593 126.057 58.8563 126.23 59.0288C126.402 59.2013 126.499 59.4353 126.499 59.6793C126.499 59.9233 126.402 60.1573 126.23 60.3299C126.057 60.5024 125.823 60.5993 125.579 60.5993Z" fill="#0099F5"/>
<path d="M125.579 69.2842H101.036C100.792 69.2842 100.558 69.1872 100.386 69.0147C100.213 68.8422 100.116 68.6082 100.116 68.3642C100.116 68.1202 100.213 67.8862 100.386 67.7136C100.558 67.5411 100.792 67.4442 101.036 67.4442H125.579C125.823 67.4442 126.057 67.5411 126.23 67.7136C126.402 67.8862 126.499 68.1202 126.499 68.3642C126.499 68.6082 126.402 68.8422 126.23 69.0147C126.057 69.1872 125.823 69.2842 125.579 69.2842Z" fill="#0099F5"/>
<path d="M107.777 78.1391H73.6201C73.3761 78.1391 73.1421 78.0422 72.9696 77.8697C72.7971 77.6971 72.7001 77.4631 72.7001 77.2191C72.7001 76.9751 72.7971 76.7411 72.9696 76.5686C73.1421 76.3961 73.3761 76.2991 73.6201 76.2991H107.777C108.021 76.2991 108.255 76.3961 108.428 76.5686C108.6 76.7411 108.697 76.9751 108.697 77.2191C108.697 77.4631 108.6 77.6971 108.428 77.8697C108.255 78.0422 108.021 78.1391 107.777 78.1391Z" fill="#0099F5"/>
<path d="M125.579 78.1391H111.689C111.445 78.1391 111.211 78.0422 111.039 77.8697C110.866 77.6971 110.769 77.4631 110.769 77.2191C110.769 76.9751 110.866 76.7411 111.039 76.5686C111.211 76.3961 111.445 76.2991 111.689 76.2991H125.579C125.823 76.2991 126.057 76.3961 126.23 76.5686C126.402 76.7411 126.499 76.9751 126.499 77.2191C126.499 77.4631 126.402 77.6971 126.23 77.8697C126.057 78.0422 125.823 78.1391 125.579 78.1391Z" fill="#0099F5"/>
<path d="M88.0227 87.4035H73.6201C73.3761 87.4035 73.1421 87.3066 72.9696 87.1341C72.7971 86.9615 72.7001 86.7275 72.7001 86.4835C72.7001 86.2395 72.7971 86.0055 72.9696 85.833C73.1421 85.6605 73.3761 85.5635 73.6201 85.5635H88.0227C88.2667 85.5635 88.5007 85.6605 88.6733 85.833C88.8458 86.0055 88.9427 86.2395 88.9427 86.4835C88.9427 86.7275 88.8458 86.9615 88.6733 87.1341C88.5007 87.3066 88.2667 87.4035 88.0227 87.4035Z" fill="#0099F5"/>
<path d="M125.579 87.4035H93.9521C93.7081 87.4035 93.4741 87.3066 93.3016 87.1341C93.1291 86.9615 93.0321 86.7275 93.0321 86.4835C93.0321 86.2395 93.1291 86.0055 93.3016 85.833C93.4741 85.6605 93.7081 85.5635 93.9521 85.5635H125.579C125.823 85.5635 126.057 85.6605 126.23 85.833C126.403 86.0055 126.499 86.2395 126.499 86.4835C126.499 86.7275 126.403 86.9615 126.23 87.1341C126.057 87.3066 125.823 87.4035 125.579 87.4035Z" fill="#0099F5"/>
</svg>
