<svg width="167" height="167" viewBox="0 0 167 167" fill="none" xmlns="http://www.w3.org/2000/svg">
<rect width="167" height="167" rx="24" fill="#FFEEF1"/>
<path d="M135.635 60.0453V128.035C135.635 129.028 135.24 129.981 134.538 130.683C133.836 131.386 132.883 131.78 131.89 131.78H29.7425C28.7497 131.78 27.7978 131.385 27.096 130.682C26.3942 129.98 26 129.028 26 128.035V60.0453H135.635Z" fill="#F2F2F2"/>
<path opacity="0.26" d="M26 60.0453V68.7297H129.869V131.78H131.89C132.883 131.78 133.836 131.386 134.538 130.683C135.24 129.981 135.635 129.028 135.635 128.035V60.0453H26Z" fill="#C3C7C9"/>
<path d="M135.635 47.0935V63.654H26V47.0935C26 46.1009 26.3943 45.149 27.0962 44.4472C27.798 43.7453 28.7499 43.351 29.7425 43.351H131.89C132.382 43.3507 132.869 43.4472 133.323 43.6351C133.777 43.8231 134.19 44.0987 134.538 44.4462C134.886 44.7938 135.162 45.2065 135.35 45.6607C135.538 46.115 135.635 46.6018 135.635 47.0935Z" fill="#24285B"/>
<path d="M49.9112 54.6311C50.9172 54.6311 51.7326 53.8156 51.7326 52.8097C51.7326 51.8037 50.9172 50.9883 49.9112 50.9883C48.9053 50.9883 48.0898 51.8037 48.0898 52.8097C48.0898 53.8156 48.9053 54.6311 49.9112 54.6311Z" fill="white"/>
<path d="M41.6124 54.6311C42.6183 54.6311 43.4338 53.8156 43.4338 52.8097C43.4338 51.8037 42.6183 50.9883 41.6124 50.9883C40.6065 50.9883 39.791 51.8037 39.791 52.8097C39.791 53.8156 40.6065 54.6311 41.6124 54.6311Z" fill="white"/>
<path d="M33.3165 54.6311C34.3224 54.6311 35.1379 53.8156 35.1379 52.8097C35.1379 51.8037 34.3224 50.9883 33.3165 50.9883C32.3106 50.9883 31.4951 51.8037 31.4951 52.8097C31.4951 53.8156 32.3106 54.6311 33.3165 54.6311Z" fill="white"/>
<path d="M136.939 35H100.196C99.6654 34.9986 99.1394 35.102 98.6485 35.3043C98.1575 35.5065 97.7113 35.8036 97.3354 36.1785C96.9594 36.5535 96.6612 36.9989 96.4577 37.4894C96.2542 37.9798 96.1494 38.5055 96.1494 39.0365V64.8036C96.1494 65.3336 96.2538 65.8583 96.4567 66.3479C96.6596 66.8375 96.957 67.2823 97.3318 67.6569C97.7067 68.0315 98.1517 68.3286 98.6414 68.5311C99.1311 68.7337 99.6559 68.8378 100.186 68.8374H116.458L119.82 74.0182C119.866 74.0924 119.929 74.1541 120.005 74.1975C120.081 74.2409 120.166 74.2648 120.254 74.2668C120.341 74.2689 120.427 74.2492 120.505 74.2094C120.583 74.1697 120.649 74.1111 120.699 74.0392L124.441 68.8374H136.939C137.469 68.8378 137.994 68.7337 138.484 68.5311C138.973 68.3286 139.418 68.0315 139.793 67.6569C140.168 67.2823 140.465 66.8375 140.668 66.3479C140.871 65.8583 140.976 65.3336 140.976 64.8036V39.0365C140.976 37.9659 140.55 36.9392 139.793 36.1823C139.036 35.4253 138.01 35 136.939 35Z" fill="#FFD44D"/>
<path d="M97.8797 66.4204C97.3739 66.4211 96.8725 66.3258 96.4022 66.1396C96.6789 66.9281 97.1937 67.6111 97.8754 68.0944C98.5571 68.5777 99.372 68.8374 100.208 68.8376H116.451L114.876 66.4204H97.8797Z" fill="#F9BB0D"/>
<path d="M138.441 35.2808C138.592 35.7108 138.669 36.1634 138.669 36.6192V62.3943C138.669 62.924 138.565 63.4485 138.362 63.9379C138.159 64.4274 137.862 64.872 137.488 65.2466C137.113 65.6212 136.668 65.9183 136.179 66.121C135.69 66.3238 135.165 66.4281 134.635 66.4281H122.135L118.385 71.6298C118.367 71.6543 118.346 71.6772 118.324 71.698L119.836 74.026C119.882 74.1002 119.946 74.1619 120.021 74.2053C120.097 74.2487 120.183 74.2726 120.27 74.2747C120.357 74.2767 120.444 74.257 120.521 74.2172C120.599 74.1775 120.666 74.119 120.715 74.047L124.466 68.8452H136.963C137.493 68.8456 138.018 68.7415 138.508 68.5389C138.997 68.3364 139.442 68.0393 139.817 67.6647C140.192 67.2901 140.49 66.8453 140.692 66.3557C140.895 65.8661 141 65.3414 141 64.8114V39.0364C140.999 38.2259 140.755 37.4343 140.299 36.7646C139.842 36.0948 139.195 35.5778 138.441 35.2808Z" fill="#F9BB0D"/>
<path d="M131.693 54.345C131.391 54.4502 131.129 54.6471 130.944 54.9081C130.758 55.1691 130.659 55.4814 130.659 55.8016V57.8067H132.73V55.8016C132.73 55.4811 132.63 55.1686 132.444 54.9075C132.259 54.6464 131.996 54.4498 131.693 54.345Z" fill="#24285B"/>
<path d="M109.453 57.0823C109.453 57.9563 113.537 58.657 118.571 58.657C123.604 58.657 127.691 57.9484 127.691 57.0823V49.592H109.453V57.0823Z" fill="#24285B"/>
<path d="M132.111 48.7181H131.276V54.7334H132.111V48.7181Z" fill="#24285B"/>
<path d="M110.873 51.7259L119.253 55.7728L127.691 54.5446V51.2771L110.873 51.7259Z" fill="#171C44"/>
<path d="M118.437 53.996L102.491 49.1669C102.395 49.1373 102.311 49.0777 102.252 48.9969C102.192 48.9162 102.16 48.8185 102.16 48.7181C102.16 48.6178 102.192 48.5201 102.252 48.4393C102.311 48.3586 102.395 48.299 102.491 48.2693L118.437 43.4377C118.523 43.413 118.614 43.413 118.7 43.4377L134.646 48.2693C134.742 48.299 134.826 48.3586 134.885 48.4393C134.945 48.5201 134.977 48.6178 134.977 48.7181C134.977 48.8185 134.945 48.9162 134.885 48.9969C134.826 49.0777 134.742 49.1373 134.646 49.1669L118.708 53.996C118.62 54.0221 118.526 54.0221 118.437 53.996Z" fill="#24285B"/>
<path d="M89.6521 109.01H71.7479C71.4551 109.01 71.2178 109.248 71.2178 109.541V111.853C71.2178 112.146 71.4551 112.383 71.7479 112.383H89.6521C89.9449 112.383 90.1823 112.146 90.1823 111.853V109.541C90.1823 109.248 89.9449 109.01 89.6521 109.01Z" fill="#FFD44D"/>
<path d="M88.2218 112.383H72.6744L71.6377 131.767H89.6049L88.2218 112.383Z" fill="#9C5631"/>
<path d="M80.3656 73.018C78.7909 77.2356 73.8622 89.3161 66.4559 96.9008C66.37 96.9888 66.3143 97.1018 66.2969 97.2235C66.2794 97.3452 66.3011 97.4693 66.3588 97.5779L72.4764 109.01H89.3335L95.4538 97.5858C95.5127 97.4775 95.535 97.3531 95.5176 97.2311C95.5001 97.1091 95.4436 96.996 95.3567 96.9087C87.953 89.3161 83.0216 77.2251 81.4469 73.0259C81.4065 72.9155 81.3333 72.8201 81.2372 72.7525C81.141 72.6848 81.0266 72.6481 80.909 72.6472C80.7915 72.6464 80.6764 72.6814 80.5793 72.7477C80.4822 72.8139 80.4077 72.9083 80.3656 73.018Z" fill="#FFBEB3"/>
<path opacity="0.09" d="M95.3622 96.9219C87.9559 89.3293 83.0272 77.2383 81.4525 73.0391C81.4117 72.9282 81.3379 72.8324 81.241 72.7648C81.1441 72.6972 81.0287 72.6609 80.9105 72.6609C80.7923 72.6609 80.677 72.6972 80.5801 72.7648C80.4832 72.8324 80.4093 72.9282 80.3686 73.0391C79.9854 74.0653 79.4001 75.5613 78.6338 77.3406C80.9538 82.8521 85.2658 91.6782 91.1316 97.6935C91.2183 97.7804 91.2746 97.8931 91.2921 98.0146C91.3096 98.1362 91.2874 98.2601 91.2287 98.368L85.1084 109.026H85.2737C85.3629 109.026 85.4511 109.044 85.5334 109.078C85.6158 109.112 85.6905 109.162 85.7534 109.225C85.8164 109.288 85.8662 109.363 85.9001 109.446C85.9339 109.528 85.9512 109.617 85.9508 109.706L85.8564 111.721C85.8557 111.901 85.7837 112.073 85.6563 112.2C85.5289 112.327 85.3564 112.398 85.1766 112.398H83.8985L85.321 131.788H89.6041L88.2236 112.393H89.5044C89.684 112.393 89.8562 112.322 89.9832 112.195C90.1102 112.068 90.1815 111.896 90.1815 111.716V109.7C90.1808 109.521 90.1092 109.349 89.9824 109.222C89.8556 109.096 89.6838 109.024 89.5044 109.023H89.339L95.4593 97.5964C95.5168 97.4882 95.5383 97.3645 95.5209 97.2433C95.5034 97.122 95.4479 97.0095 95.3622 96.9219Z" fill="black"/>
<path d="M80.875 92.3528C80.6562 92.3528 80.4464 92.2661 80.2914 92.1116C80.1364 91.9571 80.049 91.7475 80.0483 91.5287L79.9197 73.4198C79.9187 73.311 79.9391 73.2031 79.9799 73.1022C80.0206 73.0014 80.0809 72.9095 80.1572 72.832C80.2335 72.7545 80.3244 72.6928 80.4246 72.6504C80.5248 72.6081 80.6324 72.5859 80.7412 72.5852C80.9601 72.5859 81.17 72.6722 81.326 72.8258C81.482 72.9793 81.5717 73.1879 81.5758 73.4067L81.7044 91.5156C81.7058 91.7351 81.6201 91.9462 81.4661 92.1027C81.3121 92.2591 81.1024 92.3481 80.8829 92.3502L80.875 92.3528Z" fill="#24285B"/>
<path d="M80.6865 95.8905C82.3099 95.8905 83.626 94.5745 83.626 92.9511C83.626 91.3277 82.3099 90.0117 80.6865 90.0117C79.0632 90.0117 77.7471 91.3277 77.7471 92.9511C77.7471 94.5745 79.0632 95.8905 80.6865 95.8905Z" fill="#F0457D"/>
<path d="M102.435 72.4829H59.2024V74.0576H102.435V72.4829Z" fill="#24285B"/>
<path d="M102.433 76.2096C104.056 76.2096 105.372 74.8936 105.372 73.2702C105.372 71.6468 104.056 70.3308 102.433 70.3308C100.809 70.3308 99.4932 71.6468 99.4932 73.2702C99.4932 74.8936 100.809 76.2096 102.433 76.2096Z" fill="#0099F5"/>
<path d="M59.2023 76.2096C60.8257 76.2096 62.1417 74.8935 62.1417 73.2701C62.1417 71.6467 60.8257 70.3307 59.2023 70.3307C57.5789 70.3307 56.2629 71.6467 56.2629 73.2701C56.2629 74.8935 57.5789 76.2096 59.2023 76.2096Z" fill="#0099F5"/>
</svg>
