<svg width="86" height="78" viewBox="0 0 86 78" fill="none" xmlns="http://www.w3.org/2000/svg">
<path d="M0.337952 77.9864C0.28903 77.986 0.240729 77.9754 0.19607 77.9554C0.151411 77.9355 0.111365 77.9065 0.0784367 77.8703C0.0443836 77.8304 0.020406 77.7829 0.00852188 77.7318C-0.00336229 77.6807 -0.00281009 77.6275 0.0101371 77.5766C0.652114 74.6878 15.8478 6.83792 18.5523 3.61445C20.0344 1.84564 33.0788 0.199762 47.0384 0.0153692C55.2338 -0.0939009 75.101 0.240739 82.2174 5.69741C87.1688 9.49455 86.8546 22.0879 81.2885 43.2044C77.1908 58.8231 71.5428 73.5405 71.4881 73.6839C71.4652 73.7459 71.4245 73.7998 71.371 73.8387C71.3175 73.8776 71.2537 73.8998 71.1876 73.9024L0.35844 78L0.337952 77.9864ZM49.6199 0.67782H47.052C32.71 0.869042 20.2461 2.63785 19.0509 4.03787C17.002 6.50328 6.23868 52.7518 0.747729 77.2693L70.9076 73.2263C72.3487 69.4087 92.7622 14.6439 81.7803 6.22327C77.1567 2.67882 65.4986 0.67782 49.6199 0.67782Z" fill="#231F20"/>
</svg>
