<svg width="34" height="53" viewBox="0 0 34 53" fill="none" xmlns="http://www.w3.org/2000/svg">
<path d="M17.1683 52.9973C17.1026 52.9973 17.0383 52.9787 16.9828 52.9437C16.9273 52.9087 16.8828 52.8587 16.8545 52.7995C16.1724 51.3808 0 17.9318 0 13.3755C0 8.81925 5.12933 0 7.83724 0C9.70618 0 14.0511 1.99166 16.0224 4.63812C16.4587 5.1469 16.7634 5.75508 16.9097 6.4092C17.056 7.06331 17.0394 7.74335 16.8613 8.38954C16.211 9.9978 15.4498 11.559 14.5831 13.0618C14.2216 13.7438 13.9011 14.3577 13.6419 14.842L33.6203 45.058C33.6482 45.1008 33.6669 45.1491 33.6751 45.1996C33.6833 45.2501 33.6809 45.3017 33.6681 45.3513C33.6534 45.399 33.6288 45.4432 33.5959 45.4808C33.563 45.5184 33.5225 45.5486 33.4771 45.5695L17.3388 52.9632C17.2876 52.9939 17.2273 53.0059 17.1683 52.9973ZM7.83724 0.702538C5.70229 0.702538 0.709377 8.88745 0.709377 13.3755C0.709377 17.5498 15.6677 48.7139 17.332 52.1856L32.7814 45.1057L12.912 15.0943C12.8822 15.04 12.8665 14.979 12.8665 14.917C12.8665 14.855 12.8822 14.794 12.912 14.7397C13.1712 14.2213 13.5464 13.5187 13.9556 12.7548C14.7992 11.2905 15.5421 9.77054 16.1792 8.20538C16.3231 7.66475 16.3319 7.09703 16.2046 6.55225C16.0773 6.00747 15.818 5.50237 15.4494 5.08147C13.5464 2.4964 9.40605 0.702538 7.83724 0.702538Z" fill="#231F20"/>
</svg>
