<svg width="167" height="167" viewBox="0 0 167 167" fill="none" xmlns="http://www.w3.org/2000/svg">
<rect width="167" height="167" rx="24" fill="#FFF9EE"/>
<path d="M50.7641 140.584H105.376C110.215 140.584 114.138 136.661 114.138 131.822L114.138 34.7617C114.138 29.9227 110.215 26 105.376 26L50.7641 26C45.9252 26 42.0024 29.9227 42.0024 34.7617L42.0024 131.822C42.0024 136.661 45.9252 140.584 50.7641 140.584Z" fill="#27215E"/>
<path d="M54.6478 128.246H101.333C106.172 128.246 110.095 124.323 110.095 119.484L110.095 39.1785C110.095 34.3396 106.172 30.4168 101.333 30.4168H54.6478C49.8089 30.4168 45.8862 34.3396 45.8862 39.1785L45.8862 119.484C45.8862 124.323 49.8089 128.246 54.6478 128.246Z" fill="#E1E1E1"/>
<path d="M61.0298 128.249H101.47C106.309 128.249 110.231 124.326 110.231 119.487L110.231 41.7727C110.231 36.9338 106.309 33.0111 101.47 33.0111H61.0298C56.1908 33.0111 52.2681 36.9338 52.2681 41.7727L52.2681 119.487C52.2681 124.326 56.1908 128.249 61.0298 128.249Z" fill="#F1F1F1"/>
<path d="M50.7644 141H105.373C107.697 141 109.926 140.077 111.569 138.434C113.212 136.791 114.135 134.562 114.135 132.238V35.1861C114.136 34.0348 113.91 32.8946 113.471 31.8306C113.031 30.7666 112.386 29.7998 111.572 28.9853C110.758 28.1708 109.792 27.5247 108.728 27.0838C107.665 26.643 106.525 26.4161 105.373 26.4161H50.7644C49.613 26.4161 48.4728 26.643 47.4091 27.0838C46.3454 27.5246 45.379 28.1707 44.5651 28.9851C43.7512 29.7995 43.1057 30.7664 42.6656 31.8304C42.2254 32.8944 41.9993 34.0346 42 35.1861V132.244C42.0015 134.567 42.9256 136.795 44.5692 138.437C46.2127 140.079 48.4412 141.001 50.7644 141ZM45.8842 39.603C45.8879 37.2812 46.813 35.0557 48.4563 33.4155C50.0996 31.7753 52.3268 30.8545 54.6486 30.8552H101.331C102.482 30.8548 103.622 31.0812 104.685 31.5213C105.748 31.9615 106.714 32.6068 107.528 33.4204C108.342 34.2341 108.988 35.2001 109.428 36.2633C109.869 37.3264 110.096 38.466 110.096 39.6168V127.236C110.097 128.388 109.871 129.528 109.431 130.592C108.991 131.656 108.345 132.623 107.531 133.438C106.717 134.252 105.751 134.898 104.687 135.339C103.623 135.78 102.483 136.006 101.331 136.006H54.6486C53.4978 136.006 52.3582 135.78 51.2948 135.34C50.2315 134.9 49.2653 134.254 48.4514 133.441C47.6375 132.627 46.9919 131.661 46.5514 130.598C46.1109 129.535 45.8842 128.395 45.8842 127.244V39.603Z" fill="#27215E"/>
<path d="M68.3948 135.998H87.5855C88.3333 135.998 88.9395 135.392 88.9395 134.644C88.9395 133.896 88.3333 133.29 87.5855 133.29H68.3948C67.6471 133.29 67.0409 133.896 67.0409 134.644C67.0409 135.392 67.6471 135.998 68.3948 135.998Z" fill="#FFD711"/>
<path d="M77.4684 109.286C74.8562 109.286 72.351 108.248 70.5039 106.401C68.6568 104.554 67.6191 102.049 67.6191 99.4366C67.6191 96.8244 68.6568 94.3192 70.5039 92.4721C72.351 90.625 74.8562 89.5874 77.4684 89.5874H79.9265C82.0943 89.5874 84.1734 88.7268 85.707 87.1947C87.2406 85.6627 88.1033 83.5844 88.1055 81.4167V76.6058C88.1055 75.5315 87.8939 74.4677 87.4827 73.4752C87.0714 72.4827 86.4687 71.5809 85.709 70.8214C84.9492 70.0619 84.0472 69.4595 83.0545 69.0486C82.0619 68.6377 80.998 68.4264 79.9237 68.4268H69.2893C69.0686 68.4268 68.8569 68.3391 68.7008 68.183C68.5447 68.0269 68.457 67.8152 68.457 67.5945C68.457 67.3737 68.5447 67.162 68.7008 67.0059C68.8569 66.8498 69.0686 66.7621 69.2893 66.7621H79.9265C82.537 66.7629 85.0403 67.8002 86.8862 69.6461C88.7321 71.492 89.7694 73.9953 89.7702 76.6058V81.4167C89.7702 82.7096 89.5155 83.9898 89.0206 85.1843C88.5257 86.3788 87.8004 87.4641 86.886 88.3782C85.9717 89.2923 84.8862 90.0173 83.6916 90.5118C82.497 91.0064 81.2166 91.2607 79.9237 91.2603H77.632C73.3123 91.2603 69.6056 94.5453 69.3088 98.8539C69.2016 100.35 69.507 101.847 70.1919 103.182C70.8768 104.516 71.9149 105.637 73.193 106.423C74.4788 107.219 75.9642 107.635 77.4767 107.621L94.0567 107.604C94.2774 107.604 94.4891 107.692 94.6452 107.848C94.8013 108.004 94.889 108.216 94.889 108.437C94.889 108.658 94.8013 108.869 94.6452 109.025C94.4891 109.181 94.2774 109.269 94.0567 109.269L77.4739 109.286H77.4684Z" fill="#FF1778"/>
<path d="M97.1214 105.854C97.1214 105.854 95.1099 108.764 94.888 108.437C94.666 108.109 95.6454 105.108 95.6454 105.108L96.9494 104.444L97.1214 105.854Z" fill="#27215E"/>
<path d="M117.466 53.3422L117.979 52.2935C118.195 51.8535 118.496 51.4604 118.863 51.1365C119.231 50.8127 119.659 50.5645 120.123 50.406C120.587 50.2476 121.077 50.182 121.566 50.2131C122.055 50.2442 122.533 50.3713 122.973 50.5872L123.251 50.7176C124.139 51.1541 124.817 51.9252 125.137 52.8616C125.457 53.7979 125.392 54.8229 124.957 55.7116L124.449 56.7603L117.466 53.3422Z" fill="#FFD711"/>
<path d="M117.461 53.3354L96.2644 96.5657L103.234 99.9833L124.431 56.753L117.461 53.3354Z" fill="#0092FC"/>
<path d="M117.468 53.3423L124.437 56.7577L123.433 58.8024L122.736 60.2229L120.597 64.5899L113.628 61.1746L115.77 56.8076L116.466 55.3871L117.468 53.3423Z" fill="#0092FC"/>
<path d="M103.237 99.9887L96.9364 106.231C96.7516 106.011 96.518 105.837 96.254 105.722C95.9901 105.608 95.7031 105.557 95.416 105.574L96.2678 96.5706L103.237 99.9887Z" fill="#27215E"/>
</svg>
